{
.appVersion = "1179";
copyright = "Copyright (c) 2010, Sebastian Kosch (sebastian@aldusleaf.org),\012with Reserved Font Name \"Crimson Text\".\012This Font Software is licensed under the SIL Open Font License, Version 1.1.\012This license is available with a FAQ at: http://scripts.sil.org/OFL";
customParameters = (
{
name = vendorID;
value = PfEd;
},
{
name = panose;
value = (
2,
0,
8,
3,
0,
0,
0,
0,
0,
0
);
},
{
name = unicodeRanges;
value = (
0,
1,
2,
3,
6,
7,
29,
31,
33,
37,
38,
60,
68
);
},
{
name = codePageRanges;
value = (
1252,
1250,
1254,
1257
);
},
{
name = glyphOrder;
value = (
.notdef,
.null,
CR,
space,
exclam,
quotedbl,
numbersign,
dollar,
percent,
ampersand,
quotesingle,
parenleft,
parenright,
asterisk,
plus,
comma,
hyphen,
period,
slash,
zero,
one,
two,
three,
four,
five,
six,
seven,
eight,
nine,
colon,
semicolon,
less,
equal,
greater,
question,
at,
A,
B,
C,
D,
E,
F,
G,
H,
I,
J,
K,
L,
M,
N,
O,
P,
Q,
R,
S,
T,
U,
V,
W,
X,
Y,
Z,
bracketleft,
backslash,
bracketright,
asciicircum,
underscore,
grave,
a,
b,
c,
d,
e,
f,
g,
h,
i,
j,
k,
l,
m,
n,
o,
p,
q,
r,
s,
t,
u,
v,
w,
x,
y,
z,
braceleft,
bar,
braceright,
asciitilde,
uni00A0,
exclamdown,
cent,
sterling,
currency,
yen,
brokenbar,
section,
dieresis,
copyright,
ordfeminine,
guillemotleft,
logicalnot,
registered,
macron,
degree,
plusminus,
uni00B2,
uni00B3,
acute,
uni00B5,
paragraph,
periodcentered,
cedilla,
uni00B9,
ordmasculine,
guillemotright,
onequarter,
onehalf,
threequarters,
questiondown,
Agrave,
Aacute,
Acircumflex,
Atilde,
Adieresis,
Aring,
AE,
Ccedilla,
Egrave,
Eacute,
Ecircumflex,
Edieresis,
Igrave,
Iacute,
Icircumflex,
Idieresis,
Eth,
Ntilde,
Ograve,
Oacute,
Ocircumflex,
Otilde,
Odieresis,
multiply,
Oslash,
Ugrave,
Uacute,
Ucircumflex,
Udieresis,
Yacute,
Thorn,
germandbls,
agrave,
aacute,
acircumflex,
atilde,
adieresis,
aring,
ae,
ccedilla,
egrave,
eacute,
ecircumflex,
edieresis,
igrave,
iacute,
icircumflex,
idieresis,
eth,
ntilde,
ograve,
oacute,
ocircumflex,
otilde,
odieresis,
divide,
oslash,

glyphs = (
{
glyphname = .notdef;
layers = (
{
layerId = "E2E62ECD-1E64-44AC-9B50-C09427155398";
paths = (
{
closed = 1;
nodes = (
"306 0 LINE",
"306 682 LINE",
"34 682 LINE",
"34 0 LINE"
);
},
{
closed = 1;
nodes = (
"68 648 LINE",
"272 648 LINE",
"272 34 LINE",
"68 34 LINE"
);
}
);
userData = {
assembly = "PUSHB[ ]\011/* 2 values pushed */
1 0 
MDAP[1]\011/* MoveDirectAbsPt */
ALIGNRP[ ]\011/* AlignRelativePt */
PUSHB[ ]\011/* 3 values pushed */
7 4 6 
MIRP[01101]\011/* MoveIndirectRelPt */
SHP[0]\011/* ShiftPointByLastPoint */
PUSHB[ ]\011/* 2 values pushed */
6 5 
MDRP[11100]\011/* MoveDirectRelPt */
ALIGNRP[ ]\011/* AlignRelativePt */
PUSHB[ ]\011/* 3 values pushed */
3 2 6 
MIRP[01101]\011/* MoveIndirectRelPt */
SHP[0]\011/* ShiftPointByLastPoint */
SVTCA[0]\011/* SetFreedomAndProjectionVectorToAxis */
PUSHB[ ]\011/* 2 values pushed */
3 0 
MDAP[1]\011/* MoveDirectAbsPt */
ALIGNRP[ ]\011/* AlignRelativePt */
PUSHB[ ]\011/* 3 values pushed */
5 4 6 
MIRP[01101]\011/* MoveIndirectRelPt */
SHP[0]\011/* ShiftPointByLastPoint */
PUSHB[ ]\011/* 3 values pushed */
7 6 7 
MIRP[11100]\011/* MoveIndirectRelPt */
ALIGNRP[ ]\011/* AlignRelativePt */
PUSHB[ ]\011/* 3 values pushed */
1 2 6 
MIRP[01101]\011/* MoveIndirectRelPt */
SHP[0]\011/* ShiftPointByLastPoint */";
};
width = 374;
}
);
note = .notdef;
},
{
glyphname = exclam;
layers = (
{
layerId = "E2E62ECD-1E64-44AC-9B50-C09427155398";
paths = (
{
closed = 1;
nodes = (
"72 642 OFFCURVE",
"34 606 OFFCURVE",
"34 575 QCURVE SMOOTH",
"34 540 OFFCURVE",
"66 270 OFFCURVE",
"75 212 QCURVE SMOOTH",
"79 190 OFFCURVE",
"87 190 QCURVE SMOOTH",
"115 190 OFFCURVE",
"120 221 QCURVE SMOOTH",
"130 291 OFFCURVE",
"162 554 OFFCURVE",
"162 574 QCURVE SMOOTH",
"162 605 OFFCURVE",
"125 642 OFFCURVE",
"100 642 QCURVE SMOOTH"
);
},
{
closed = 1;
nodes = (
"23 33 OFFCURVE",
"70 -11 OFFCURVE",
"99 -11 QCURVE SMOOTH",
"129 -11 OFFCURVE",
"170 35 OFFCURVE",
"170 97 OFFCURVE",
"127 139 OFFCURVE",
"95 139 QCURVE SMOOTH",
"66 139 OFFCURVE",
"23 97 OFFCURVE",
"23 66 QCURVE SMOOTH"
);
}
);
width = 193;
}
);
note = exclam;
unicode = 0021;
},
{
glyphname = quotedbl;
layers = (
{
layerId = "E2E62ECD-1E64-44AC-9B50-C09427155398";
paths = (
{
closed = 1;
nodes = (
"65 698 OFFCURVE",
"28 650 OFFCURVE",
"28 635 QCURVE SMOOTH",
"28 616 OFFCURVE",
"57 494 OFFCURVE",
"62 447 QCURVE",
"64 434 OFFCURVE",
"80 434 QCURVE SMOOTH",
"98 434 OFFCURVE",
"100 449 QCURVE SMOOTH",
"103 479 OFFCURVE",
"131 603 OFFCURVE",
"131 633 QCURVE SMOOTH",
"131 673 OFFCURVE",
"116 698 OFFCURVE",
"101 698 QCURVE SMOOTH",
"83 698 LINE SMOOTH"
);
},
{
closed = 1;
nodes = (
"228 698 OFFCURVE",
"192 651 OFFCURVE",
"192 635 QCURVE SMOOTH",
"192 616 OFFCURVE",
"221 494 OFFCURVE",
"226 447 QCURVE",
"228 434 OFFCURVE",
"241 434 QCURVE SMOOTH",
"247 434 OFFCURVE",
"260 442 OFFCURVE",
"261 449 QCURVE",
"264 480 OFFCURVE",
"294 603 OFFCURVE",
"294 633 QCURVE SMOOTH",
"294 673 OFFCURVE",
"279 698 OFFCURVE",
"265 698 QCURVE SMOOTH",
"246 698 LINE SMOOTH"
);
}
);
width = 323;
}
);
note = quotedbl;
unicode = 0022;
},
{
glyphname = numbersign;
layers = (
{
layerId = "E2E62ECD-1E64-44AC-9B50-C09427155398";
paths = (
{
closed = 1;
nodes = (
"331 171 LINE",
"431 171 LINE",
"432 171 LINE SMOOTH",
"433 171 OFFCURVE",
"436 174 OFFCURVE",
"437 177 QCURVE SMOOTH",
"446 206 OFFCURVE",
"446 230 QCURVE SMOOTH",
"446 234 OFFCURVE",
"442 238 OFFCURVE",
"440 237 OFFCURVE",
"439 237 QCURVE SMOOTH",
"339 237 LINE",
"352 311 LINE",
"431 311 LINE",
"437 318 LINE",
"446 347 OFFCURVE",
"446 371 QCURVE SMOOTH",
"446 375 OFFCURVE",
"442 379 OFFCURVE",
"440 378 OFFCURVE",
"439 378 QCURVE SMOOTH",
"361 378 LINE",
"385 530 LINE",
"386 532 LINE",
"386 534 OFFCURVE",
"381 539 OFFCURVE",
"375 539 QCURVE SMOOTH",
"318 539 OFFCURVE",
"318 530 QCURVE",
"294 378 LINE",
"212 378 LINE",
"235 530 LINE",
"236 532 LINE",
"236 534 OFFCURVE",
"231 539 OFFCURVE",
"225 539 QCURVE SMOOTH",
"168 539 OFFCURVE",
"168 530 QCURVE",
"144 378 LINE",
"41 378 LINE",
"40 378 LINE SMOOTH",
"38 378 OFFCURVE",
"35 376 OFFCURVE",
"34 373 QCURVE SMOOTH",
"26 346 OFFCURVE",
"26 322 QCURVE SMOOTH",
"26 312 OFFCURVE",
"32 311 QCURVE",
"135 311 LINE",
"123 237 LINE",
"41 237 LINE",
"40 237 LINE SMOOTH",
"38 237 OFFCURVE",
"35 235 OFFCURVE",
"34 232 QCURVE SMOOTH",
"26 205 OFFCURVE",
"26 181 QCURVE SMOOTH",
"26 171 OFFCURVE",
"32 171 QCURVE SMOOTH",
"114 171 LINE",
"91 24 LINE",
"92 22 LINE",
"92 20 OFFCURVE",
"99 15 OFFCURVE",
"105 15 QCURVE SMOOTH",
"128 15 LINE SMOOTH",
"143 15 OFFCURVE",
"158 20 OFFCURVE",
"159 22 OFFCURVE",
"159 24 QCURVE",
"181 171 LINE",
"263 171 LINE",
"241 24 LINE",
"241 22 LINE SMOOTH",
"241 20 OFFCURVE",
"248 15 OFFCURVE",
"254 15 QCURVE SMOOTH",
"277 15 LINE SMOOTH",
"298 15 OFFCURVE",
"304 20 QCURVE",
"307 24 OFFCURVE",
"307 24 QCURVE"
);
},
{
closed = 1;
nodes = (
"190 237 LINE",
"203 311 LINE",
"285 311 LINE",
"273 237 LINE"
);
}
);
width = 473;
}
);
note = numbersign;
unicode = 0023;
},
{
glyphname = dollar;
layers = (
{
layerId = "E2E62ECD-1E64-44AC-9B50-C09427155398";
paths = (
{
closed = 1;
nodes = (
"153 -31 LINE",
"153 -40 OFFCURVE",
"192 -40 QCURVE",
"306 660 LINE",
"306 668 OFFCURVE",
"267 668 QCURVE"
);
},
{
closed = 1;
nodes = (
"160 643 OFFCURVE",
"31 542 OFFCURVE",
"31 467 QCURVE SMOOTH",
"31 440 OFFCURVE",
"48 391 OFFCURVE",
"67 360 OFFCURVE",
"111 321 OFFCURVE",
"133 306 OFFCURVE",
"191 270 OFFCURVE",
"197 266 QCURVE SMOOTH",
"249 232 OFFCURVE",
"305 176 OFFCURVE",
"305 145 QCURVE SMOOTH",
"305 101 OFFCURVE",
"255 46 OFFCURVE",
"220 46 QCURVE SMOOTH",
"188 46 OFFCURVE",
"133 76 OFFCURVE",
"98 121 OFFCURVE",
"76 164 OFFCURVE",
"72 181 QCURVE",
"64 185 OFFCURVE",
"42 185 QCURVE SMOOTH",
"24 185 OFFCURVE",
"25 175 QCURVE",
"30 81 OFFCURVE",
"47 16 QCURVE",
"156 -9 OFFCURVE",
"216 -9 QCURVE SMOOTH",
"301 -9 OFFCURVE",
"438 94 OFFCURVE",
"438 171 QCURVE SMOOTH",
"438 247 OFFCURVE",
"383 300 QCURVE SMOOTH",
"360 322 OFFCURVE",
"277 374 QCURVE SMOOTH",
"158 450 OFFCURVE",
"158 507 QCURVE SMOOTH",
"158 545 OFFCURVE",
"199 589 OFFCURVE",
"236 589 QCURVE SMOOTH",
"275 589 OFFCURVE",
"338 524 OFFCURVE",
"362 465 OFFCURVE",
"362 455 QCURVE SMOOTH",
"362 448 OFFCURVE",
"380 448 QCURVE SMOOTH",
"403 448 OFFCURVE",
"410 458 QCURVE",
"410 532 OFFCURVE",
"388 618 QCURVE",
"383 619 OFFCURVE",
"331 633 OFFCURVE",
"268 643 OFFCURVE",
"235 643 QCURVE SMOOTH"
);
}
);
width = 464;
}
);
note = dollar;
unicode = 0024;
},
{
glyphname = percent;
layers = (
{
layerId = "E2E62ECD-1E64-44AC-9B50-C09427155398";
paths = (
{
closed = 1;
nodes = (
"241 605 OFFCURVE",
"241 466 QCURVE SMOOTH",
"241 430 OFFCURVE",
"215 375 OFFCURVE",
"187 375 QCURVE SMOOTH",
"118 375 OFFCURVE",
"118 510 QCURVE SMOOTH",
"118 605 OFFCURVE",
"170 605 QCURVE SMOOTH"
);
},
{
closed = 1;
nodes = (
"23 426 OFFCURVE",
"114 337 OFFCURVE",
"246 337 OFFCURVE",
"338 426 OFFCURVE",
"338 552 OFFCURVE",
"246 642 OFFCURVE",
"114 642 OFFCURVE",
"23 552 OFFCURVE"
);
},
{
closed = 1;
nodes = (
"538 268 OFFCURVE",
"538 130 QCURVE SMOOTH",
"538 93 OFFCURVE",
"512 38 OFFCURVE",
"484 38 QCURVE SMOOTH",
"415 38 OFFCURVE",
"415 174 QCURVE SMOOTH",
"415 212 OFFCURVE",
"439 268 OFFCURVE",
"468 268 QCURVE SMOOTH"
);
},
{
closed = 1;
nodes = (
"320 90 OFFCURVE",
"411 1 OFFCURVE",
"543 1 OFFCURVE",
"635 90 OFFCURVE",
"635 216 OFFCURVE",
"543 306 OFFCURVE",
"411 306 OFFCURVE",
"320 216 OFFCURVE"
);
},
{
closed = 1;
nodes = (
"584 646 OFFCURVE",
"552 646 QCURVE SMOOTH",
"545 646 OFFCURVE",
"533 632 QCURVE",
"52 10 LINE",
"55 -4 OFFCURVE",
"91 -4 QCURVE SMOOTH",
"115 -4 OFFCURVE",
"124 7 QCURVE SMOOTH",
"605 629 LINE"
);
}
);
width = 660;
}
);
note = percent;
unicode = 0025;
},
{
glyphname = ampersand;
layers = (
{
layerId = "E2E62ECD-1E64-44AC-9B50-C09427155398";
paths = (
{
closed = 1;
nodes = (
"305 56 OFFCURVE",
"258 56 QCURVE SMOOTH",
"219 56 OFFCURVE",
"165 110 OFFCURVE",
"165 163 QCURVE SMOOTH",
"165 255 OFFCURVE",
"211 288 QCURVE",
"236 249 LINE SMOOTH",
"262 210 OFFCURVE",
"326 116 OFFCURVE",
"339 101 QCURVE"
);
},
{
closed = 1;
nodes = (
"320 603 OFFCURVE",
"353 552 OFFCURVE",
"353 524 QCURVE SMOOTH",
"353 483 OFFCURVE",
"319 433 OFFCURVE",
"282 407 QCURVE",
"281 409 OFFCURVE",
"263 438 OFFCURVE",
"253 456 OFFCURVE",
"240 484 OFFCURVE",
"233 512 OFFCURVE",
"233 524 QCURVE SMOOTH",
"233 557 OFFCURVE",
"259 603 OFFCURVE",
"289 603 QCURVE SMOOTH"
);
},
{
closed = 1;
nodes = (
"113 486 OFFCURVE",
"119 457 OFFCURVE",
"127 435 OFFCURVE",
"142 404 OFFCURVE",
"150 389 OFFCURVE",
"168 358 OFFCURVE",
"171 354 QCURVE",
"141 335 OFFCURVE",
"107 310 OFFCURVE",
"52 259 OFFCURVE",
"25 198 OFFCURVE",
"25 162 QCURVE SMOOTH",
"25 78 OFFCURVE",
"143 -4 OFFCURVE",
"223 -4 QCURVE SMOOTH",
"321 -4 OFFCURVE",
"385 52 QCURVE",
"398 38 LINE SMOOTH",
"411 24 OFFCURVE",
"470 -3 OFFCURVE",
"503 -3 QCURVE SMOOTH",
"548 -3 OFFCURVE",
"629 87 OFFCURVE",
"637 110 QCURVE",
"637 117 OFFCURVE",
"616 134 OFFCURVE",
"609 134 QCURVE",
"599 117 OFFCURVE",
"563 82 OFFCURVE",
"543 82 QCURVE SMOOTH",
"535 82 OFFCURVE",
"518 88 OFFCURVE",
"506 97 OFFCURVE",
"492 110 OFFCURVE",
"484 119 OFFCURVE",
"479 125 QCURVE SMOOTH",
"474 131 LINE",
"485 142 OFFCURVE",
"534 203 OFFCURVE",
"577 253 OFFCURVE",
"583 257 QCURVE SMOOTH",
"600 269 OFFCURVE",
"650 276 QCURVE",
"658 278 OFFCURVE",
"658 297 QCURVE SMOOTH",
"658 312 OFFCURVE",
"653 314 QCURVE",
"586 311 OFFCURVE",
"542 311 QCURVE SMOOTH",
"439 312 LINE",
"436 311 OFFCURVE",
"436 288 OFFCURVE",
"438 280 QCURVE",
"439 280 OFFCURVE",
"465 280 OFFCURVE",
"484 272 OFFCURVE",
"484 262 QCURVE SMOOTH",
"484 253 OFFCURVE",
"431 191 QCURVE",
"360 282 OFFCURVE",
"320 346 QCURVE",
"388 388 OFFCURVE",
"460 472 OFFCURVE",
"460 533 QCURVE SMOOTH",
"460 588 OFFCURVE",
"368 657 OFFCURVE",
"216 655 OFFCURVE",
"113 576 OFFCURVE",
"113 500 QCURVE SMOOTH"
);
}
);
width = 701;
}
);
note = ampersand;
unicode = 0026;
},
{
glyphname = quotesingle;
layers = (
{
layerId = "E2E62ECD-1E64-44AC-9B50-C09427155398";
paths = (
{
closed = 1;
nodes = (
"86 698 OFFCURVE",
"50 651 OFFCURVE",
"50 635 QCURVE SMOOTH",
"50 616 OFFCURVE",
"79 494 OFFCURVE",
"84 447 QCURVE",
"86 434 OFFCURVE",
"99 434 QCURVE SMOOTH",
"105 434 OFFCURVE",
"118 442 OFFCURVE",
"119 449 QCURVE",
"122 480 OFFCURVE",
"152 603 OFFCURVE",
"152 633 QCURVE SMOOTH",
"152 673 OFFCURVE",
"137 698 OFFCURVE",
"123 698 QCURVE SMOOTH",
"104 698 LINE SMOOTH"
);
}
);
width = 200;
}
);
note = quotesingle;
unicode = 0027;
},
{
glyphname = parenleft;
layers = (
{
layerId = "E2E62ECD-1E64-44AC-9B50-C09427155398";
paths = (
{
closed = 1;
nodes = (
"152 446 OFFCURVE",
"239 685 OFFCURVE",
"286 718 QCURVE",
"287 719 OFFCURVE",
"287 721 QCURVE SMOOTH",
"287 728 OFFCURVE",
"280 748 OFFCURVE",
"275 748 QCURVE SMOOTH",
"261 748 OFFCURVE",
"204 708 OFFCURVE",
"134 627 OFFCURVE",
"70 524 OFFCURVE",
"27 379 OFFCURVE",
"27 305 QCURVE SMOOTH",
"27 229 OFFCURVE",
"71 84 OFFCURVE",
"135 -19 OFFCURVE",
"206 -98 OFFCURVE",
"262 -137 OFFCURVE",
"275 -137 QCURVE SMOOTH",
"280 -137 OFFCURVE",
"287 -118 OFFCURVE",
"287 -111 QCURVE SMOOTH",
"287 -107 OFFCURVE",
"285 -106 QCURVE SMOOTH",
"248 -86 OFFCURVE",
"152 152 OFFCURVE",
"152 305 QCURVE SMOOTH"
);
}
);
width = 309;
}
);
note = parenleft;
unicode = 0028;
},
{
glyphname = parenright;
layers = (
{
layerId = "E2E62ECD-1E64-44AC-9B50-C09427155398";
paths = (
{
closed = 1;
nodes = (
"157 157 OFFCURVE",
"62 -88 OFFCURVE",
"24 -106 QCURVE SMOOTH",
"22 -107 OFFCURVE",
"22 -112 QCURVE SMOOTH",
"22 -119 OFFCURVE",
"29 -137 OFFCURVE",
"34 -137 QCURVE SMOOTH",
"54 -137 OFFCURVE",
"134 -68 OFFCURVE",
"219 43 OFFCURVE",
"282 216 OFFCURVE",
"282 394 OFFCURVE",
"219 567 OFFCURVE",
"133 679 OFFCURVE",
"54 748 OFFCURVE",
"34 748 QCURVE SMOOTH",
"29 748 OFFCURVE",
"22 728 OFFCURVE",
"22 721 QCURVE SMOOTH",
"22 719 OFFCURVE",
"23 718 QCURVE",
"70 686 OFFCURVE",
"157 446 OFFCURVE",
"157 305 QCURVE SMOOTH"
);
}
);
width = 309;
}
);
note = parenright;
unicode = 0029;
},
{
glyphname = asterisk;
layers = (
{
layerId = "E2E62ECD-1E64-44AC-9B50-C09427155398";
paths = (
{
closed = 1;
nodes = (
"282 610 OFFCURVE",
"245 539 OFFCURVE",
"232 526 QCURVE",
"225 520 LINE",
"221 520 OFFCURVE",
"219 526 QCURVE",
"210 544 OFFCURVE",
"194 623 OFFCURVE",
"186 640 QCURVE SMOOTH",
"179 656 OFFCURVE",
"148 668 OFFCURVE",
"133 662 QCURVE SMOOTH",
"119 656 OFFCURVE",
"107 623 OFFCURVE",
"114 606 QCURVE SMOOTH",
"122 588 OFFCURVE",
"177 530 OFFCURVE",
"186 514 QCURVE",
"188 506 LINE",
"186 502 OFFCURVE",
"179 502 QCURVE",
"159 499 OFFCURVE",
"80 509 OFFCURVE",
"44 505 OFFCURVE",
"22 479 OFFCURVE",
"26 447 OFFCURVE",
"54 426 OFFCURVE",
"72 428 QCURVE SMOOTH",
"92 430 OFFCURVE",
"163 465 OFFCURVE",
"181 468 QCURVE",
"190 467 LINE",
"192 464 OFFCURVE",
"191 460 QCURVE",
"187 440 OFFCURVE",
"153 368 OFFCURVE",
"150 349 QCURVE SMOOTH",
"147 332 OFFCURVE",
"166 304 OFFCURVE",
"196 296 OFFCURVE",
"224 317 OFFCURVE",
"228 334 QCURVE SMOOTH",
"232 354 OFFCURVE",
"222 433 OFFCURVE",
"224 451 QCURVE",
"229 458 LINE",
"233 460 OFFCURVE",
"238 457 QCURVE SMOOTH",
"255 447 OFFCURVE",
"313 393 OFFCURVE",
"330 384 QCURVE SMOOTH",
"346 376 OFFCURVE",
"379 384 OFFCURVE",
"387 398 QCURVE SMOOTH",
"395 411 OFFCURVE",
"385 445 OFFCURVE",
"369 454 QCURVE SMOOTH",
"351 464 OFFCURVE",
"273 478 OFFCURVE",
"256 486 QCURVE",
"250 492 LINE",
"250 497 OFFCURVE",
"253 499 QCURVE",
"267 512 OFFCURVE",
"337 551 OFFCURVE",
"351 564 QCURVE",
"364 577 OFFCURVE",
"367 611 OFFCURVE",
"356 623 QCURVE",
"346 635 OFFCURVE",
"310 635 OFFCURVE",
"297 623 QCURVE SMOOTH"
);
}
);
width = 416;
}
);
note = asterisk;
unicode = 002A;
},
{
glyphname = plus;
layers = (
{
layerId = "E2E62ECD-1E64-44AC-9B50-C09427155398";
paths = (
{
closed = 1;
nodes = (
"301 210 OFFCURVE",
"305 210 QCURVE SMOOTH",
"488 210 LINE",
"490 210 LINE SMOOTH",
"491 210 OFFCURVE",
"494 213 OFFCURVE",
"495 216 QCURVE",
"505 253 OFFCURVE",
"505 275 QCURVE SMOOTH",
"505 282 OFFCURVE",
"497 282 QCURVE SMOOTH",
"305 282 LINE SMOOTH",
"301 282 OFFCURVE",
"301 287 QCURVE SMOOTH",
"301 479 LINE",
"291 485 LINE",
"261 485 OFFCURVE",
"234 477 QCURVE SMOOTH",
"228 475 OFFCURVE",
"229 470 QCURVE",
"229 288 LINE SMOOTH",
"229 282 OFFCURVE",
"224 282 QCURVE SMOOTH",
"41 282 LINE",
"40 282 LINE SMOOTH",
"38 282 OFFCURVE",
"35 280 OFFCURVE",
"34 277 QCURVE SMOOTH",
"26 250 OFFCURVE",
"26 220 QCURVE SMOOTH",
"26 210 OFFCURVE",
"32 210 QCURVE SMOOTH",
"223 210 LINE SMOOTH",
"229 210 OFFCURVE",
"229 205 QCURVE SMOOTH",
"229 14 LINE SMOOTH",
"229 6 OFFCURVE",
"235 6 QCURVE SMOOTH",
"236 6 OFFCURVE",
"239 7 OFFCURVE",
"241 7 QCURVE",
"286 13 OFFCURVE",
"301 23 QCURVE",
"301 207 LINE SMOOTH"
);
}
);
width = 532;
}
);
note = plus;
unicode = 002B;
},
{
glyphname = comma;
layers = (
{
layerId = "E2E62ECD-1E64-44AC-9B50-C09427155398";
paths = (
{
closed = 1;
nodes = (
"94 -65 OFFCURVE",
"59 -113 OFFCURVE",
"24 -133 OFFCURVE",
"24 -134 QCURVE SMOOTH",
"24 -141 OFFCURVE",
"40 -168 OFFCURVE",
"46 -168 QCURVE SMOOTH",
"48 -168 LINE",
"86 -151 OFFCURVE",
"158 -69 OFFCURVE",
"176 -20 QCURVE",
"190 29 OFFCURVE",
"190 50 QCURVE SMOOTH",
"190 92 OFFCURVE",
"176 123 QCURVE",
"161 134 OFFCURVE",
"136 134 QCURVE SMOOTH",
"96 134 OFFCURVE",
"56 82 OFFCURVE",
"56 62 QCURVE SMOOTH",
"56 26 OFFCURVE",
"94 -18 OFFCURVE",
"94 -31 QCURVE SMOOTH"
);
}
);
width = 219;
}
);
note = comma;
unicode = 002C;
},
{
glyphname = hyphen;
layers = (
{
layerId = "E2E62ECD-1E64-44AC-9B50-C09427155398";
paths = (
{
closed = 1;
nodes = (
"31 199 OFFCURVE",
"35 193 OFFCURVE",
"37 193 OFFCURVE",
"38 193 QCURVE",
"279 204 LINE",
"282 210 LINE",
"286 215 OFFCURVE",
"292 248 OFFCURVE",
"292 270 QCURVE SMOOTH",
"292 279 OFFCURVE",
"286 279 QCURVE SMOOTH",
"285 279 LINE",
"44 267 LINE",
"43 267 LINE SMOOTH",
"41 267 OFFCURVE",
"36 257 OFFCURVE",
"31 226 OFFCURVE",
"31 204 QCURVE SMOOTH"
);
}
);
width = 325;
}
);
note = hyphen;
unicode = 002D;
},
{
glyphname = period;
layers = (
{
layerId = "E2E62ECD-1E64-44AC-9B50-C09427155398";
paths = (
{
closed = 1;
nodes = (
"176 96 OFFCURVE",
"133 139 OFFCURVE",
"103 139 QCURVE SMOOTH",
"72 139 OFFCURVE",
"29 96 OFFCURVE",
"29 36 OFFCURVE",
"74 -11 OFFCURVE",
"105 -11 QCURVE SMOOTH",
"135 -11 OFFCURVE",
"176 35 OFFCURVE",
"176 66 QCURVE SMOOTH"
);
}
);
width = 204;
}
);
note = period;
unicode = 002E;
},
{
glyphname = slash;
layers = (
{
layerId = "E2E62ECD-1E64-44AC-9B50-C09427155398";
paths = (
{
closed = 1;
nodes = (
"392 761 OFFCURVE",
"367 761 QCURVE SMOOTH",
"328 761 OFFCURVE",
"318 739 QCURVE",
"22 -28 LINE",
"23 -30 LINE SMOOTH",
"24 -32 OFFCURVE",
"33 -35 OFFCURVE",
"40 -35 QCURVE SMOOTH",
"64 -35 OFFCURVE",
"106 -18 OFFCURVE",
"108 -12 QCURVE",
"404 755 LINE"
);
}
);
width = 425;
}
);
note = slash;
unicode = 002F;
},
{
glyphname = zero;
layers = (
{
layerId = "E2E62ECD-1E64-44AC-9B50-C09427155398";
paths = (
{
closed = 1;
nodes = (
"764 748 LINE"
);
},
{
closed = 1;
nodes = (
"167 431 OFFCURVE",
"217 575 OFFCURVE",
"261 575 QCURVE SMOOTH",
"302 575 OFFCURVE",
"348 436 OFFCURVE",
"348 317 QCURVE SMOOTH",
"348 193 OFFCURVE",
"305 49 OFFCURVE",
"261 49 QCURVE SMOOTH",
"222 49 OFFCURVE",
"167 197 OFFCURVE",
"167 312 QCURVE SMOOTH"
);
},
{
closed = 1;
nodes = (
"351 -3 OFFCURVE",
"488 182 OFFCURVE",
"488 440 OFFCURVE",
"351 625 OFFCURVE",
"260 625 QCURVE SMOOTH",
"168 625 OFFCURVE",
"27 439 OFFCURVE",
"27 183 OFFCURVE",
"168 -3 OFFCURVE",
"260 -3 QCURVE SMOOTH"
);
}
);
width = 515;
}
);
note = zero;
unicode = 0030;
},
{
glyphname = one;
layers = (
{
layerId = "E2E62ECD-1E64-44AC-9B50-C09427155398";
paths = (
{
closed = 1;
nodes = (
"91 502 OFFCURVE",
"106 502 QCURVE SMOOTH",
"126 502 OFFCURVE",
"126 452 QCURVE SMOOTH",
"126 116 LINE SMOOTH",
"126 83 OFFCURVE",
"120 59 QCURVE SMOOTH",
"118 51 OFFCURVE",
"70 33 OFFCURVE",
"59 33 QCURVE SMOOTH",
"55 33 OFFCURVE",
"55 0 OFFCURVE",
"59 -4 QCURVE",
"69 -3 OFFCURVE",
"168 4 OFFCURVE",
"214 4 OFFCURVE",
"311 -3 OFFCURVE",
"322 -4 QCURVE",
"324 0 OFFCURVE",
"324 12 QCURVE SMOOTH",
"324 33 OFFCURVE",
"321 33 QCURVE SMOOTH",
"313 33 OFFCURVE",
"266 50 OFFCURVE",
"264 57 QCURVE SMOOTH",
"256 88 OFFCURVE",
"256 129 QCURVE SMOOTH",
"256 530 LINE SMOOTH",
"256 595 OFFCURVE",
"265 624 QCURVE",
"261 643 OFFCURVE",
"253 643 QCURVE SMOOTH",
"251 643 LINE SMOOTH",
"249 643 OFFCURVE",
"184 606 OFFCURVE",
"74 538 OFFCURVE",
"23 505 QCURVE",
"21 503 OFFCURVE",
"21 493 QCURVE SMOOTH",
"21 488 OFFCURVE",
"30 472 OFFCURVE",
"36 469 QCURVE"
);
}
);
width = 346;
}
);
note = one;
unicode = 0031;
},
{
glyphname = two;
layers = (
{
layerId = "E2E62ECD-1E64-44AC-9B50-C09427155398";
paths = (
{
closed = 1;
nodes = (
"191 642 OFFCURVE",
"122 614 OFFCURVE",
"77 568 OFFCURVE",
"51 531 OFFCURVE",
"43 513 QCURVE",
"43 503 OFFCURVE",
"64 488 OFFCURVE",
"72 488 QCURVE",
"82 502 LINE SMOOTH",
"92 516 OFFCURVE",
"112 538 OFFCURVE",
"155 559 OFFCURVE",
"180 559 QCURVE SMOOTH",
"219 559 OFFCURVE",
"265 494 OFFCURVE",
"265 451 QCURVE SMOOTH",
"265 378 OFFCURVE",
"119 139 OFFCURVE",
"23 33 QCURVE",
"24 12 OFFCURVE",
"35 0 QCURVE",
"401 0 LINE SMOOTH",
"411 0 OFFCURVE",
"413 14 QCURVE",
"432 107 OFFCURVE",
"452 192 QCURVE",
"444 198 OFFCURVE",
"414 198 OFFCURVE",
"412 191 QCURVE SMOOTH",
"407 171 OFFCURVE",
"399 149 OFFCURVE",
"381 117 OFFCURVE",
"351 102 OFFCURVE",
"330 102 QCURVE SMOOTH",
"159 102 LINE SMOOTH",
"155 102 OFFCURVE",
"153 109 OFFCURVE",
"155 111 QCURVE",
"205 157 OFFCURVE",
"234 184 OFFCURVE",
"314 264 OFFCURVE",
"344 307 OFFCURVE",
"389 376 OFFCURVE",
"405 438 OFFCURVE",
"405 470 QCURVE SMOOTH",
"405 549 OFFCURVE",
"306 642 OFFCURVE",
"232 642 QCURVE SMOOTH"
);
}
);
width = 475;
}
);
note = two;
unicode = 0032;
},
{
glyphname = three;
layers = (
{
layerId = "E2E62ECD-1E64-44AC-9B50-C09427155398";
paths = (
{
closed = 1;
nodes = (
"198 642 OFFCURVE",
"104 595 OFFCURVE",
"75 557 QCURVE",
"75 550 OFFCURVE",
"91 530 OFFCURVE",
"98 530 QCURVE",
"135 572 OFFCURVE",
"192 572 QCURVE SMOOTH",
"216 572 OFFCURVE",
"253 534 OFFCURVE",
"253 493 QCURVE SMOOTH",
"253 439 OFFCURVE",
"188 368 OFFCURVE",
"131 359 QCURVE",
"128 352 OFFCURVE",
"128 344 QCURVE SMOOTH",
"128 323 OFFCURVE",
"135 314 QCURVE",
"167 319 OFFCURVE",
"190 319 QCURVE SMOOTH",
"239 319 OFFCURVE",
"295 246 OFFCURVE",
"295 188 QCURVE SMOOTH",
"295 121 OFFCURVE",
"245 48 OFFCURVE",
"198 48 QCURVE SMOOTH",
"154 48 OFFCURVE",
"128 83 QCURVE SMOOTH",
"101 119 OFFCURVE",
"72 119 QCURVE SMOOTH",
"49 119 OFFCURVE",
"30 82 OFFCURVE",
"30 59 QCURVE SMOOTH",
"30 46 OFFCURVE",
"36 30 QCURVE",
"89 -4 OFFCURVE",
"153 -4 QCURVE SMOOTH",
"258 -4 OFFCURVE",
"430 115 OFFCURVE",
"430 214 QCURVE SMOOTH",
"430 284 OFFCURVE",
"324 378 OFFCURVE",
"285 378 QCURVE",
"314 396 OFFCURVE",
"370 479 OFFCURVE",
"370 527 QCURVE SMOOTH",
"370 583 OFFCURVE",
"295 642 OFFCURVE",
"254 642 QCURVE SMOOTH"
);
}
);
width = 456;
}
);
note = three;
unicode = 0033;
},
{
glyphname = four;
layers = (
{
layerId = "E2E62ECD-1E64-44AC-9B50-C09427155398";
paths = (
{
closed = 1;
nodes = (
"379 644 OFFCURVE",
"367 630 QCURVE SMOOTH",
"24 222 LINE",
"24 189 OFFCURVE",
"39 174 QCURVE",
"288 174 LINE",
"288 8 LINE SMOOTH",
"288 -5 OFFCURVE",
"346 -5 QCURVE SMOOTH",
"388 -5 OFFCURVE",
"412 4 QCURVE",
"412 174 LINE",
"459 174 LINE",
"462 175 LINE",
"464 176 OFFCURVE",
"468 181 OFFCURVE",
"468 184 QCURVE SMOOTH",
"468 244 OFFCURVE",
"453 244 QCURVE SMOOTH",
"412 244 LINE",
"412 634 LINE SMOOTH",
"412 644 OFFCURVE",
"394 644 QCURVE SMOOTH"
);
},
{
closed = 1;
nodes = (
"124 244 LINE SMOOTH",
"117 244 OFFCURVE",
"117 253 QCURVE SMOOTH",
"117 255 OFFCURVE",
"118 256 QCURVE",
"282 452 LINE",
"283 453 OFFCURVE",
"285 454 QCURVE",
"288 454 OFFCURVE",
"288 445 QCURVE SMOOTH",
"288 244 LINE"
);
}
);
width = 492;
}
);
note = four;
unicode = 0034;
},
{
glyphname = five;
layers = (
{
layerId = "E2E62ECD-1E64-44AC-9B50-C09427155398";
paths = (
{
closed = 1;
nodes = (
"108 615 OFFCURVE",
"81 462 OFFCURVE",
"57 330 OFFCURVE",
"56 328 QCURVE",
"62 320 OFFCURVE",
"73 314 QCURVE",
"84 317 LINE SMOOTH",
"94 320 OFFCURVE",
"113 324 OFFCURVE",
"152 328 OFFCURVE",
"174 328 QCURVE SMOOTH",
"219 328 OFFCURVE",
"286 248 OFFCURVE",
"286 183 QCURVE SMOOTH",
"286 131 OFFCURVE",
"240 49 OFFCURVE",
"189 49 QCURVE SMOOTH",
"145 49 OFFCURVE",
"119 84 QCURVE SMOOTH",
"92 120 OFFCURVE",
"63 120 QCURVE SMOOTH",
"40 120 OFFCURVE",
"21 83 OFFCURVE",
"21 60 QCURVE SMOOTH",
"21 47 OFFCURVE",
"27 31 QCURVE",
"80 -3 OFFCURVE",
"144 -3 QCURVE SMOOTH",
"260 -3 OFFCURVE",
"421 133 OFFCURVE",
"421 235 QCURVE SMOOTH",
"421 311 OFFCURVE",
"285 422 OFFCURVE",
"208 422 QCURVE SMOOTH",
"169 422 OFFCURVE",
"127 412 QCURVE",
"146 523 LINE",
"147 531 OFFCURVE",
"159 532 QCURVE",
"167 532 OFFCURVE",
"213 532 OFFCURVE",
"305 533 OFFCURVE",
"363 535 QCURVE",
"374 555 OFFCURVE",
"374 609 QCURVE SMOOTH",
"374 631 OFFCURVE",
"366 643 QCURVE",
"344 638 OFFCURVE",
"112 638 QCURVE"
);
}
);
width = 448;
}
);
note = five;
unicode = 0035;
},
{
glyphname = six;
layers = (
{
layerId = "E2E62ECD-1E64-44AC-9B50-C09427155398";
paths = (
{
closed = 1;
nodes = (
"163 264 OFFCURVE",
"169 287 QCURVE SMOOTH",
"176 315 OFFCURVE",
"213 315 QCURVE SMOOTH",
"260 315 OFFCURVE",
"300 245 OFFCURVE",
"300 177 QCURVE SMOOTH",
"300 108 OFFCURVE",
"272 46 OFFCURVE",
"238 46 QCURVE SMOOTH",
"162 46 OFFCURVE",
"162 190 QCURVE SMOOTH"
);
},
{
closed = 1;
nodes = (
"316 -6 OFFCURVE",
"434 110 OFFCURVE",
"434 186 QCURVE SMOOTH",
"434 260 OFFCURVE",
"321 367 OFFCURVE",
"242 367 QCURVE SMOOTH",
"214 367 OFFCURVE",
"185 355 QCURVE",
"180 362 OFFCURVE",
"183 376 QCURVE",
"206 448 OFFCURVE",
"328 575 OFFCURVE",
"412 611 QCURVE",
"411 613 OFFCURVE",
"409 627 OFFCURVE",
"406 635 OFFCURVE",
"399 644 OFFCURVE",
"394 645 QCURVE",
"326 617 OFFCURVE",
"202 537 OFFCURVE",
"92 427 OFFCURVE",
"27 282 OFFCURVE",
"27 202 QCURVE SMOOTH",
"27 109 OFFCURVE",
"154 -6 OFFCURVE",
"237 -6 QCURVE SMOOTH"
);
}
);
width = 460;
}
);
note = six;
unicode = 0036;
},
{
glyphname = seven;
layers = (
{
layerId = "E2E62ECD-1E64-44AC-9B50-C09427155398";
paths = (
{
closed = 1;
nodes = (
"369 536 LINE",
"115 23 LINE",
"115 9 OFFCURVE",
"137 -11 OFFCURVE",
"151 -11 QCURVE SMOOTH",
"155 -11 OFFCURVE",
"158 -10 QCURVE",
"432 565 LINE",
"459 616 OFFCURVE",
"459 632 QCURVE SMOOTH",
"459 641 OFFCURVE",
"452 641 QCURVE",
"426 640 LINE",
"400 638 OFFCURVE",
"385 638 QCURVE SMOOTH",
"90 638 LINE SMOOTH",
"74 638 OFFCURVE",
"71 626 QCURVE SMOOTH",
"51 538 OFFCURVE",
"27 447 QCURVE",
"33 441 OFFCURVE",
"70 444 OFFCURVE",
"72 449 QCURVE",
"73 452 OFFCURVE",
"80 475 OFFCURVE",
"83 483 OFFCURVE",
"91 503 OFFCURVE",
"98 511 OFFCURVE",
"109 525 OFFCURVE",
"120 531 OFFCURVE",
"136 536 OFFCURVE",
"145 536 QCURVE SMOOTH"
);
}
);
width = 470;
}
);
note = seven;
unicode = 0037;
},
{
glyphname = eight;
layers = (
{
layerId = "E2E62ECD-1E64-44AC-9B50-C09427155398";
paths = (
{
closed = 1;
nodes = (
"197 46 OFFCURVE",
"158 114 OFFCURVE",
"158 159 QCURVE SMOOTH",
"158 260 OFFCURVE",
"186 275 QCURVE SMOOTH",
"188 276 OFFCURVE",
"191 276 QCURVE SMOOTH",
"198 276 OFFCURVE",
"205 270 QCURVE",
"224 256 OFFCURVE",
"245 239 OFFCURVE",
"286 199 OFFCURVE",
"306 156 OFFCURVE",
"306 134 QCURVE SMOOTH",
"306 97 OFFCURVE",
"266 46 OFFCURVE",
"234 46 QCURVE SMOOTH"
);
},
{
closed = 1;
nodes = (
"294 580 OFFCURVE",
"294 483 QCURVE SMOOTH",
"294 417 OFFCURVE",
"262 386 QCURVE SMOOTH",
"260 384 OFFCURVE",
"256 384 QCURVE SMOOTH",
"248 384 OFFCURVE",
"243 388 QCURVE",
"217 407 OFFCURVE",
"199 422 OFFCURVE",
"173 467 OFFCURVE",
"173 494 QCURVE SMOOTH",
"173 580 OFFCURVE",
"231 580 QCURVE SMOOTH"
);
},
{
closed = 1;
nodes = (
"156 633 OFFCURVE",
"43 550 OFFCURVE",
"43 486 QCURVE SMOOTH",
"43 467 OFFCURVE",
"49 432 OFFCURVE",
"64 403 OFFCURVE",
"76 382 OFFCURVE",
"99 358 OFFCURVE",
"111 347 OFFCURVE",
"137 325 OFFCURVE",
"140 323 QCURVE SMOOTH",
"147 318 OFFCURVE",
"141 315 QCURVE SMOOTH",
"24 253 OFFCURVE",
"24 159 QCURVE SMOOTH",
"24 75 OFFCURVE",
"141 -6 OFFCURVE",
"311 -6 OFFCURVE",
"440 92 OFFCURVE",
"440 170 QCURVE SMOOTH",
"440 187 OFFCURVE",
"429 220 OFFCURVE",
"409 250 OFFCURVE",
"389 274 OFFCURVE",
"359 300 OFFCURVE",
"342 314 OFFCURVE",
"315 333 OFFCURVE",
"314 334 QCURVE",
"312 335 OFFCURVE",
"312 340 OFFCURVE",
"314 341 QCURVE",
"424 408 OFFCURVE",
"424 489 QCURVE SMOOTH",
"424 556 OFFCURVE",
"306 633 OFFCURVE",
"228 633 QCURVE SMOOTH"
);
}
);
width = 464;
}
);
note = eight;
unicode = 0038;
},
{
glyphname = nine;
layers = (
{
layerId = "E2E62ECD-1E64-44AC-9B50-C09427155398";
paths = (
{
closed = 1;
nodes = (
"294 375 OFFCURVE",
"288 352 QCURVE SMOOTH",
"281 324 OFFCURVE",
"244 324 QCURVE SMOOTH",
"197 324 OFFCURVE",
"157 394 OFFCURVE",
"157 462 QCURVE SMOOTH",
"157 531 OFFCURVE",
"185 593 OFFCURVE",
"219 593 QCURVE SMOOTH",
"295 593 OFFCURVE",
"295 449 QCURVE SMOOTH"
);
},
{
closed = 1;
nodes = (
"141 645 OFFCURVE",
"23 529 OFFCURVE",
"23 453 QCURVE SMOOTH",
"23 379 OFFCURVE",
"136 272 OFFCURVE",
"215 272 QCURVE SMOOTH",
"243 272 OFFCURVE",
"272 284 QCURVE",
"277 277 OFFCURVE",
"274 263 QCURVE",
"251 191 OFFCURVE",
"129 64 OFFCURVE",
"45 28 QCURVE",
"45 -2 OFFCURVE",
"63 -6 QCURVE",
"131 22 OFFCURVE",
"255 102 OFFCURVE",
"365 212 OFFCURVE",
"430 357 OFFCURVE",
"430 437 QCURVE SMOOTH",
"430 530 OFFCURVE",
"303 645 OFFCURVE",
"220 645 QCURVE SMOOTH"
);
}
);
width = 453;
}
);
note = nine;
unicode = 0039;
},
{
glyphname = colon;
layers = (
{
layerId = "E2E62ECD-1E64-44AC-9B50-C09427155398";
paths = (
{
closed = 1;
nodes = (
"175 389 OFFCURVE",
"134 432 OFFCURVE",
"104 432 QCURVE SMOOTH",
"73 432 OFFCURVE",
"28 389 OFFCURVE",
"28 359 QCURVE SMOOTH",
"28 328 OFFCURVE",
"73 281 OFFCURVE",
"104 281 QCURVE SMOOTH",
"134 281 OFFCURVE",
"175 328 OFFCURVE",
"175 359 QCURVE SMOOTH"
);
},
{
closed = 1;
nodes = (
"175 97 OFFCURVE",
"134 140 OFFCURVE",
"104 140 QCURVE SMOOTH",
"73 140 OFFCURVE",
"28 97 OFFCURVE",
"28 67 QCURVE SMOOTH",
"28 36 OFFCURVE",
"73 -11 OFFCURVE",
"104 -11 QCURVE SMOOTH",
"134 -11 OFFCURVE",
"175 36 OFFCURVE",
"175 67 QCURVE SMOOTH"
);
}
);
width = 202;
}
);
note = colon;
unicode = 003A;
},
{
glyphname = semicolon;
layers = (
{
layerId = "E2E62ECD-1E64-44AC-9B50-C09427155398";
paths = (
{
closed = 1;
nodes = (
"40 328 OFFCURVE",
"85 281 OFFCURVE",
"116 281 QCURVE SMOOTH",
"146 281 OFFCURVE",
"187 328 OFFCURVE",
"187 359 QCURVE SMOOTH",
"187 389 OFFCURVE",
"146 432 OFFCURVE",
"116 432 QCURVE SMOOTH",
"85 432 OFFCURVE",
"40 389 OFFCURVE",
"40 359 QCURVE SMOOTH"
);
},
{
closed = 1;
nodes = (
"85 -52 OFFCURVE",
"53 -106 OFFCURVE",
"22 -133 OFFCURVE",
"22 -134 QCURVE SMOOTH",
"22 -141 OFFCURVE",
"38 -168 OFFCURVE",
"44 -168 QCURVE SMOOTH",
"46 -168 LINE",
"72 -158 OFFCURVE",
"158 -68 OFFCURVE",
"175 -25 QCURVE",
"178 -19 OFFCURVE",
"188 37 OFFCURVE",
"188 52 QCURVE SMOOTH",
"188 89 OFFCURVE",
"174 126 QCURVE",
"163 134 OFFCURVE",
"134 134 QCURVE SMOOTH",
"94 134 OFFCURVE",
"54 82 OFFCURVE",
"54 62 QCURVE SMOOTH",
"54 36 OFFCURVE",
"85 -3 OFFCURVE",
"85 -18 QCURVE SMOOTH"
);
}
);
width = 215;
}
);
note = semicolon;
unicode = 003B;
},
{
glyphname = less;
layers = (
{
layerId = "E2E62ECD-1E64-44AC-9B50-C09427155398";
paths = (
{
closed = 1;
nodes = (
"439 50 OFFCURVE",
"436 51 QCURVE",
"117 209 LINE",
"435 364 LINE",
"438 373 LINE",
"427 430 OFFCURVE",
"421 430 QCURVE SMOOTH",
"420 430 OFFCURVE",
"416 428 QCURVE SMOOTH",
"43 241 LINE SMOOTH",
"25 232 OFFCURVE",
"25 217 QCURVE SMOOTH",
"25 187 OFFCURVE",
"43 177 QCURVE",
"418 -13 LINE SMOOTH",
"422 -15 OFFCURVE",
"423 -15 QCURVE SMOOTH",
"427 -15 OFFCURVE",
"439 37 OFFCURVE",
"439 45 QCURVE SMOOTH"
);
}
);
width = 464;
}
);
note = less;
unicode = 003C;
},
{
glyphname = equal;
layers = (
{
layerId = "E2E62ECD-1E64-44AC-9B50-C09427155398";
paths = (
{
closed = 1;
nodes = (
"499 181 OFFCURVE",
"491 181 QCURVE SMOOTH",
"47 181 LINE",
"46 181 LINE SMOOTH",
"44 181 OFFCURVE",
"41 179 OFFCURVE",
"40 176 QCURVE",
"31 145 OFFCURVE",
"31 119 QCURVE SMOOTH",
"31 109 OFFCURVE",
"38 109 QCURVE SMOOTH",
"483 109 LINE",
"484 109 LINE SMOOTH",
"485 109 OFFCURVE",
"488 112 OFFCURVE",
"489 115 QCURVE",
"499 152 OFFCURVE",
"499 176 QCURVE SMOOTH"
);
},
{
closed = 1;
nodes = (
"31 251 OFFCURVE",
"38 251 QCURVE SMOOTH",
"483 251 LINE",
"484 251 LINE SMOOTH",
"485 251 OFFCURVE",
"488 254 OFFCURVE",
"489 257 QCURVE",
"499 294 OFFCURVE",
"499 318 QCURVE SMOOTH",
"499 323 OFFCURVE",
"495 323 QCURVE SMOOTH",
"46 323 LINE SMOOTH",
"36 323 OFFCURVE",
"31 261 QCURVE"
);
}
);
width = 530;
}
);
note = equal;
unicode = 003D;
},
{
glyphname = greater;
layers = (
{
layerId = "E2E62ECD-1E64-44AC-9B50-C09427155398";
paths = (
{
closed = 1;
nodes = (
"27 37 OFFCURVE",
"39 -15 OFFCURVE",
"43 -15 QCURVE SMOOTH",
"44 -15 OFFCURVE",
"48 -13 QCURVE SMOOTH",
"423 177 LINE",
"441 187 OFFCURVE",
"441 217 QCURVE SMOOTH",
"441 232 OFFCURVE",
"423 241 QCURVE SMOOTH",
"50 428 LINE SMOOTH",
"46 430 OFFCURVE",
"45 430 QCURVE SMOOTH",
"39 430 OFFCURVE",
"28 373 QCURVE",
"31 364 OFFCURVE",
"31 364 QCURVE",
"349 209 LINE",
"30 51 LINE",
"27 45 OFFCURVE",
"27 45 QCURVE"
);
}
);
width = 467;
}
);
note = greater;
unicode = 003E;
},
{
glyphname = question;
layers = (
{
layerId = "E2E62ECD-1E64-44AC-9B50-C09427155398";
paths = (
{
closed = 1;
nodes = (
"31 33 OFFCURVE",
"78 -11 OFFCURVE",
"107 -11 QCURVE SMOOTH",
"137 -11 OFFCURVE",
"178 35 OFFCURVE",
"178 97 OFFCURVE",
"135 139 OFFCURVE",
"103 139 QCURVE SMOOTH",
"74 139 OFFCURVE",
"31 97 OFFCURVE",
"31 66 QCURVE SMOOTH"
);
},
{
closed = 1;
nodes = (
"118 522 OFFCURVE",
"167 536 OFFCURVE",
"184 536 QCURVE SMOOTH",
"241 536 OFFCURVE",
"241 486 QCURVE SMOOTH",
"241 455 OFFCURVE",
"194 414 OFFCURVE",
"126 380 QCURVE SMOOTH",
"96 365 OFFCURVE",
"77 316 OFFCURVE",
"79 268 QCURVE SMOOTH",
"82 227 OFFCURVE",
"83 212 QCURVE",
"84 204 OFFCURVE",
"91 190 OFFCURVE",
"95 190 QCURVE SMOOTH",
"107 190 OFFCURVE",
"128 208 OFFCURVE",
"128 221 QCURVE SMOOTH",
"128 253 OFFCURVE",
"141 263 QCURVE SMOOTH",
"146 267 OFFCURVE",
"162 275 OFFCURVE",
"194 288 OFFCURVE",
"206 293 QCURVE SMOOTH",
"267 320 OFFCURVE",
"327 397 OFFCURVE",
"327 469 QCURVE SMOOTH",
"327 551 OFFCURVE",
"179 642 OFFCURVE",
"91 646 QCURVE",
"58 646 OFFCURVE",
"32 633 QCURVE",
"23 620 OFFCURVE",
"23 590 QCURVE SMOOTH",
"23 564 OFFCURVE",
"64 522 OFFCURVE",
"96 522 QCURVE SMOOTH"
);
}
);
width = 350;
}
);
note = question;
unicode = 003F;
},
{
glyphname = at;
layers = (
{
layerId = "E2E62ECD-1E64-44AC-9B50-C09427155398";
paths = (
{
closed = 1;
nodes = (
"691 34 OFFCURVE",
"584 34 QCURVE SMOOTH",
"545 34 OFFCURVE",
"547 115 QCURVE SMOOTH",
"547 123 OFFCURVE",
"549 143 QCURVE SMOOTH",
"570 348 LINE SMOOTH",
"572 368 OFFCURVE",
"577 401 QCURVE",
"560 404 LINE",
"544 406 OFFCURVE",
"494 410 OFFCURVE",
"476 410 QCURVE SMOOTH",
"349 410 OFFCURVE",
"192 247 OFFCURVE",
"192 141 QCURVE SMOOTH",
"192 85 OFFCURVE",
"257 -7 OFFCURVE",
"310 -7 QCURVE SMOOTH",
"357 -7 OFFCURVE",
"435 41 OFFCURVE",
"447 67 QCURVE",
"448 68 OFFCURVE",
"452 70 OFFCURVE",
"452 69 QCURVE SMOOTH",
"452 37 OFFCURVE",
"521 -13 OFFCURVE",
"572 -13 QCURVE SMOOTH",
"604 -13 OFFCURVE",
"664 11 OFFCURVE",
"720 63 OFFCURVE",
"754 164 OFFCURVE",
"754 233 QCURVE SMOOTH",
"754 293 OFFCURVE",
"709 414 OFFCURVE",
"628 514 OFFCURVE",
"504 577 OFFCURVE",
"432 577 QCURVE SMOOTH",
"259 577 OFFCURVE",
"27 365 OFFCURVE",
"27 185 QCURVE SMOOTH",
"27 124 OFFCURVE",
"80 -2 OFFCURVE",
"173 -105 OFFCURVE",
"311 -171 OFFCURVE",
"389 -171 QCURVE SMOOTH",
"449 -171 OFFCURVE",
"516 -141 OFFCURVE",
"516 -122 QCURVE SMOOTH",
"516 -121 OFFCURVE",
"514 -113 QCURVE",
"479 -126 OFFCURVE",
"444 -126 QCURVE SMOOTH",
"266 -126 OFFCURVE",
"102 64 OFFCURVE",
"102 223 QCURVE SMOOTH",
"102 354 OFFCURVE",
"284 519 OFFCURVE",
"421 519 QCURVE SMOOTH",
"545 519 OFFCURVE",
"691 344 OFFCURVE",
"691 214 QCURVE SMOOTH"
);
},
{
closed = 1;
nodes = (
"462 328 OFFCURVE",
"461 322 QCURVE",
"446 182 LINE SMOOTH",
"444 158 OFFCURVE",
"371 53 OFFCURVE",
"338 53 QCURVE SMOOTH",
"319 53 OFFCURVE",
"302 92 OFFCURVE",
"302 143 QCURVE SMOOTH",
"302 240 OFFCURVE",
"386 359 OFFCURVE",
"430 359 QCURVE SMOOTH",
"450 359 OFFCURVE",
"462 346 OFFCURVE",
"462 334 QCURVE SMOOTH"
);
}
);
width = 781;
}
);
note = at;
unicode = 0040;
},
{
glyphname = A;
layers = (
{
layerId = "E2E62ECD-1E64-44AC-9B50-C09427155398";
paths = (
{
closed = 1;
nodes = (
"419 33 OFFCURVE",
"419 0 OFFCURVE",
"423 -4 QCURVE",
"567 4 OFFCURVE",
"574 4 QCURVE SMOOTH",
"600 4 OFFCURVE",
"715 -4 OFFCURVE",
"719 -4 QCURVE",
"721 -1 OFFCURVE",
"721 33 OFFCURVE",
"717 33 QCURVE SMOOTH",
"703 33 OFFCURVE",
"649 50 OFFCURVE",
"643 66 QCURVE SMOOTH",
"629 102 OFFCURVE",
"610 148 QCURVE SMOOTH",
"405 655 LINE",
"396 668 OFFCURVE",
"381 668 QCURVE SMOOTH",
"355 668 OFFCURVE",
"344 642 QCURVE SMOOTH",
"123 134 LINE",
"118 122 LINE SMOOTH",
"113 111 OFFCURVE",
"96 76 OFFCURVE",
"88 64 QCURVE SMOOTH",
"81 53 OFFCURVE",
"25 32 OFFCURVE",
"13 32 QCURVE SMOOTH",
"11 32 OFFCURVE",
"11 11 QCURVE SMOOTH",
"11 0 OFFCURVE",
"15 -4 QCURVE",
"34 -3 OFFCURVE",
"104 4 OFFCURVE",
"154 4 OFFCURVE",
"233 -3 OFFCURVE",
"246 -4 QCURVE",
"248 2 OFFCURVE",
"248 32 OFFCURVE",
"245 33 QCURVE",
"235 33 OFFCURVE",
"208 36 OFFCURVE",
"172 54 OFFCURVE",
"172 86 OFFCURVE",
"192 131 QCURVE SMOOTH",
"225 207 OFFCURVE",
"225 207 QCURVE",
"228 212 OFFCURVE",
"232 212 QCURVE SMOOTH",
"267 213 OFFCURVE",
"333 213 QCURVE SMOOTH",
"410 213 OFFCURVE",
"429 212 QCURVE",
"432 212 OFFCURVE",
"436 208 QCURVE",
"466 135 LINE SMOOTH",
"491 70 OFFCURVE",
"491 68 QCURVE SMOOTH",
"491 52 OFFCURVE",
"445 33 OFFCURVE",
"423 33 QCURVE SMOOTH"
);
},
{
closed = 1;
nodes = (
"257 276 OFFCURVE",
"257 280 QCURVE",
"335 459 LINE",
"407 280 LINE",
"404 275 LINE",
"373 273 OFFCURVE",
"333 273 QCURVE SMOOTH",
"289 273 OFFCURVE",
"259 276 QCURVE"
);
}
);
width = 720;
}
);
note = A;
unicode = 0041;
},
{
glyphname = B;
layers = (
{
layerId = "E2E62ECD-1E64-44AC-9B50-C09427155398";
paths = (
{
closed = 1;
nodes = (
"428 55 OFFCURVE",
"325 55 QCURVE SMOOTH",
"260 55 OFFCURVE",
"250 62 QCURVE SMOOTH",
"243 67 OFFCURVE",
"243 76 QCURVE SMOOTH",
"243 301 LINE SMOOTH",
"243 306 OFFCURVE",
"254 310 QCURVE",
"272 315 OFFCURVE",
"305 315 QCURVE SMOOTH",
"428 315 OFFCURVE",
"428 176 QCURVE SMOOTH"
);
},
{
closed = 1;
nodes = (
"103 78 OFFCURVE",
"97 55 QCURVE",
"94 47 OFFCURVE",
"43 33 OFFCURVE",
"31 33 QCURVE SMOOTH",
"27 33 OFFCURVE",
"27 13 QCURVE SMOOTH",
"27 0 OFFCURVE",
"31 -4 QCURVE",
"52 -2 LINE",
"74 -1 OFFCURVE",
"147 2 OFFCURVE",
"177 2 QCURVE SMOOTH",
"324 0 LINE SMOOTH",
"438 -2 OFFCURVE",
"578 101 OFFCURVE",
"578 187 QCURVE SMOOTH",
"578 255 OFFCURVE",
"502 342 OFFCURVE",
"467 348 QCURVE",
"464 351 OFFCURVE",
"472 354 QCURVE SMOOTH",
"495 363 OFFCURVE",
"555 431 OFFCURVE",
"555 483 QCURVE SMOOTH",
"555 530 OFFCURVE",
"511 602 OFFCURVE",
"440 642 OFFCURVE",
"364 661 OFFCURVE",
"327 661 QCURVE SMOOTH",
"209 659 OFFCURVE",
"176 659 QCURVE SMOOTH",
"109 659 OFFCURVE",
"29 664 QCURVE",
"26 661 OFFCURVE",
"26 645 QCURVE SMOOTH",
"26 627 OFFCURVE",
"30 627 QCURVE SMOOTH",
"41 627 OFFCURVE",
"94 607 OFFCURVE",
"97 599 QCURVE",
"103 576 OFFCURVE",
"103 521 QCURVE SMOOTH",
"103 143 LINE SMOOTH"
);
},
{
closed = 1;
nodes = (
"334 371 OFFCURVE",
"295 371 QCURVE SMOOTH",
"243 371 OFFCURVE",
"243 385 QCURVE SMOOTH",
"243 499 LINE",
"243 590 LINE SMOOTH",
"243 600 OFFCURVE",
"252 602 QCURVE",
"266 606 OFFCURVE",
"310 606 QCURVE SMOOTH",
"402 606 OFFCURVE",
"402 482 QCURVE SMOOTH",
"402 447 OFFCURVE",
"383 402 OFFCURVE",
"367 388 OFFCURVE",
"352 380 QCURVE SMOOTH"
);
}
);
width = 605;
}
);
note = B;
unicode = 0042;
},
{
glyphname = C;
layers = (
{
layerId = "E2E62ECD-1E64-44AC-9B50-C09427155398";
paths = (
{
closed = 1;
nodes = (
"607 190 OFFCURVE",
"566 190 QCURVE SMOOTH",
"565 190 OFFCURVE",
"554 159 OFFCURVE",
"533 114 OFFCURVE",
"520 101 QCURVE SMOOTH",
"466 47 OFFCURVE",
"392 47 QCURVE SMOOTH",
"291 47 OFFCURVE",
"181 218 OFFCURVE",
"181 343 QCURVE SMOOTH",
"181 611 OFFCURVE",
"360 611 QCURVE SMOOTH",
"409 611 OFFCURVE",
"488 582 OFFCURVE",
"533 536 OFFCURVE",
"556 496 OFFCURVE",
"561 478 QCURVE",
"576 475 OFFCURVE",
"577 475 QCURVE SMOOTH",
"604 475 OFFCURVE",
"604 505 OFFCURVE",
"589 637 OFFCURVE",
"584 638 QCURVE",
"464 667 OFFCURVE",
"355 667 QCURVE SMOOTH",
"214 667 OFFCURVE",
"25 464 OFFCURVE",
"25 322 QCURVE SMOOTH",
"25 188 OFFCURVE",
"213 -7 OFFCURVE",
"345 -7 QCURVE SMOOTH",
"458 -7 OFFCURVE",
"570 34 QCURVE SMOOTH",
"580 38 OFFCURVE",
"611 166 OFFCURVE",
"611 180 QCURVE"
);
}
);
width = 638;
}
);
note = C;
unicode = 0043;
},
{
glyphname = D;
layers = (
{
layerId = "E2E62ECD-1E64-44AC-9B50-C09427155398";
paths = (
{
closed = 1;
nodes = (
"109 659 OFFCURVE",
"29 664 QCURVE",
"26 661 OFFCURVE",
"26 645 QCURVE SMOOTH",
"26 627 OFFCURVE",
"30 627 QCURVE SMOOTH",
"41 627 OFFCURVE",
"94 607 OFFCURVE",
"97 599 QCURVE",
"103 576 OFFCURVE",
"103 521 QCURVE SMOOTH",
"103 143 LINE SMOOTH",
"103 78 OFFCURVE",
"97 55 QCURVE",
"94 47 OFFCURVE",
"43 33 OFFCURVE",
"31 33 QCURVE SMOOTH",
"27 33 OFFCURVE",
"27 13 QCURVE SMOOTH",
"27 0 OFFCURVE",
"31 -4 QCURVE",
"177 2 LINE",
"212 2 OFFCURVE",
"330 -3 OFFCURVE",
"349 -3 QCURVE SMOOTH",
"511 -3 OFFCURVE",
"697 192 OFFCURVE",
"697 336 QCURVE SMOOTH",
"697 466 OFFCURVE",
"513 659 OFFCURVE",
"350 659 QCURVE SMOOTH",
"176 659 OFFCURVE",
"176 659 QCURVE SMOOTH"
);
},
{
closed = 1;
nodes = (
"243 569 OFFCURVE",
"256 587 QCURVE SMOOTH",
"268 603 OFFCURVE",
"353 603 QCURVE SMOOTH",
"358 603 LINE SMOOTH",
"444 603 OFFCURVE",
"541 450 OFFCURVE",
"541 340 QCURVE SMOOTH",
"541 197 OFFCURVE",
"449 53 OFFCURVE",
"365 53 QCURVE SMOOTH",
"274 53 OFFCURVE",
"252 66 QCURVE SMOOTH",
"243 71 OFFCURVE",
"243 136 QCURVE SMOOTH",
"243 524 LINE SMOOTH"
);
}
);
width = 724;
}
);
note = D;
unicode = 0044;
},
{
glyphname = E;
layers = (
{
layerId = "E2E62ECD-1E64-44AC-9B50-C09427155398";
paths = (
{
closed = 1;
nodes = (
"109 659 OFFCURVE",
"29 664 QCURVE",
"26 661 OFFCURVE",
"26 645 QCURVE SMOOTH",
"26 627 OFFCURVE",
"30 627 QCURVE SMOOTH",
"41 627 OFFCURVE",
"94 607 OFFCURVE",
"97 599 QCURVE",
"103 576 OFFCURVE",
"103 521 QCURVE SMOOTH",
"103 143 LINE SMOOTH",
"103 78 OFFCURVE",
"97 55 QCURVE",
"94 47 OFFCURVE",
"43 33 OFFCURVE",
"31 33 QCURVE SMOOTH",
"27 33 OFFCURVE",
"27 13 QCURVE SMOOTH",
"27 0 OFFCURVE",
"31 -4 QCURVE",
"177 2 LINE",
"246 2 OFFCURVE",
"468 -2 OFFCURVE",
"519 -2 QCURVE",
"524 32 OFFCURVE",
"573 170 QCURVE",
"567 176 OFFCURVE",
"543 176 QCURVE SMOOTH",
"530 176 OFFCURVE",
"529 170 QCURVE",
"517 139 OFFCURVE",
"474 89 OFFCURVE",
"457 80 QCURVE SMOOTH",
"407 54 OFFCURVE",
"345 54 QCURVE SMOOTH",
"319 54 LINE SMOOTH",
"256 54 OFFCURVE",
"251 70 QCURVE SMOOTH",
"243 93 OFFCURVE",
"243 141 QCURVE SMOOTH",
"243 295 LINE SMOOTH",
"243 304 OFFCURVE",
"315 304 QCURVE SMOOTH",
"380 304 OFFCURVE",
"393 296 QCURVE",
"394 295 OFFCURVE",
"400 292 OFFCURVE",
"402 290 OFFCURVE",
"407 282 OFFCURVE",
"411 272 OFFCURVE",
"417 252 OFFCURVE",
"421 238 QCURVE",
"424 230 OFFCURVE",
"437 230 QCURVE SMOOTH",
"454 230 OFFCURVE",
"458 234 QCURVE",
"458 423 LINE",
"453 428 OFFCURVE",
"436 428 QCURVE SMOOTH",
"422 428 OFFCURVE",
"421 421 QCURVE",
"417 407 OFFCURVE",
"415 392 QCURVE SMOOTH",
"412 367 OFFCURVE",
"407 363 QCURVE",
"401 359 OFFCURVE",
"339 359 QCURVE SMOOTH",
"286 359 LINE SMOOTH",
"243 359 OFFCURVE",
"243 365 QCURVE SMOOTH",
"243 519 LINE SMOOTH",
"243 573 OFFCURVE",
"248 597 QCURVE",
"250 610 OFFCURVE",
"313 610 QCURVE SMOOTH",
"351 610 LINE SMOOTH",
"390 610 OFFCURVE",
"472 556 OFFCURVE",
"491 518 QCURVE",
"494 511 OFFCURVE",
"505 511 QCURVE SMOOTH",
"523 511 OFFCURVE",
"528 516 QCURVE",
"500 654 OFFCURVE",
"499 664 QCURVE",
"442 664 OFFCURVE",
"220 659 OFFCURVE",
"176 659 QCURVE SMOOTH"
);
}
);
width = 598;
}
);
note = E;
unicode = 0045;
},
{
glyphname = F;
layers = (
{
layerId = "E2E62ECD-1E64-44AC-9B50-C09427155398";
paths = (
{
closed = 1;
nodes = (
"119 659 OFFCURVE",
"29 664 QCURVE",
"26 661 OFFCURVE",
"26 645 QCURVE SMOOTH",
"26 627 OFFCURVE",
"30 627 QCURVE SMOOTH",
"41 627 OFFCURVE",
"94 607 OFFCURVE",
"97 599 QCURVE",
"103 576 OFFCURVE",
"103 521 QCURVE SMOOTH",
"103 143 LINE SMOOTH",
"103 78 OFFCURVE",
"97 55 QCURVE",
"94 47 OFFCURVE",
"43 33 OFFCURVE",
"31 33 QCURVE SMOOTH",
"27 33 OFFCURVE",
"27 13 QCURVE SMOOTH",
"27 0 OFFCURVE",
"31 -4 QCURVE",
"177 2 LINE",
"210 2 OFFCURVE",
"330 -4 QCURVE",
"332 2 OFFCURVE",
"332 14 QCURVE SMOOTH",
"332 33 OFFCURVE",
"328 33 QCURVE SMOOTH",
"313 33 OFFCURVE",
"253 47 OFFCURVE",
"250 59 QCURVE SMOOTH",
"243 90 OFFCURVE",
"243 141 QCURVE SMOOTH",
"243 295 LINE SMOOTH",
"243 304 OFFCURVE",
"315 304 QCURVE SMOOTH",
"380 304 OFFCURVE",
"393 296 QCURVE",
"394 295 OFFCURVE",
"400 292 OFFCURVE",
"402 290 OFFCURVE",
"407 282 OFFCURVE",
"411 272 OFFCURVE",
"417 252 OFFCURVE",
"421 238 QCURVE",
"424 230 OFFCURVE",
"437 230 QCURVE SMOOTH",
"454 230 OFFCURVE",
"458 234 QCURVE",
"458 423 LINE",
"453 428 OFFCURVE",
"436 428 QCURVE SMOOTH",
"422 428 OFFCURVE",
"421 421 QCURVE",
"417 407 OFFCURVE",
"415 392 QCURVE SMOOTH",
"412 367 OFFCURVE",
"407 363 QCURVE",
"401 359 OFFCURVE",
"339 359 QCURVE SMOOTH",
"286 359 LINE SMOOTH",
"243 359 OFFCURVE",
"243 365 QCURVE SMOOTH",
"243 519 LINE SMOOTH",
"243 573 OFFCURVE",
"248 597 QCURVE",
"250 610 OFFCURVE",
"313 610 QCURVE SMOOTH",
"351 610 LINE SMOOTH",
"390 610 OFFCURVE",
"472 556 OFFCURVE",
"491 518 QCURVE",
"494 511 OFFCURVE",
"505 511 QCURVE SMOOTH",
"523 511 OFFCURVE",
"528 516 QCURVE",
"500 654 OFFCURVE",
"499 664 QCURVE",
"447 664 OFFCURVE",
"241 659 OFFCURVE",
"176 659 QCURVE SMOOTH"
);
}
);
width = 553;
}
);
note = F;
unicode = 0046;
},
{
glyphname = G;
layers = (
{
layerId = "E2E62ECD-1E64-44AC-9B50-C09427155398";
paths = (
{
closed = 1;
nodes = (
"25 188 OFFCURVE",
"211 -9 OFFCURVE",
"343 -9 QCURVE SMOOTH",
"408 -9 OFFCURVE",
"513 12 OFFCURVE",
"554 29 OFFCURVE",
"591 48 QCURVE SMOOTH",
"612 59 OFFCURVE",
"612 76 QCURVE SMOOTH",
"612 78 OFFCURVE",
"606 96 OFFCURVE",
"606 114 QCURVE SMOOTH",
"606 172 LINE SMOOTH",
"606 243 OFFCURVE",
"622 251 QCURVE SMOOTH",
"652 266 OFFCURVE",
"675 266 QCURVE SMOOTH",
"679 266 OFFCURVE",
"679 284 QCURVE SMOOTH",
"679 295 OFFCURVE",
"676 304 QCURVE",
"556 298 OFFCURVE",
"541 298 QCURVE SMOOTH",
"518 298 OFFCURVE",
"469 300 OFFCURVE",
"410 303 OFFCURVE",
"392 304 QCURVE",
"388 300 OFFCURVE",
"389 267 OFFCURVE",
"393 267 QCURVE SMOOTH",
"451 267 OFFCURVE",
"459 240 QCURVE SMOOTH",
"466 214 OFFCURVE",
"466 163 QCURVE SMOOTH",
"466 156 LINE",
"466 93 LINE SMOOTH",
"466 72 OFFCURVE",
"455 63 QCURVE SMOOTH",
"435 47 OFFCURVE",
"391 47 QCURVE SMOOTH",
"317 47 OFFCURVE",
"218 141 OFFCURVE",
"179 270 OFFCURVE",
"179 345 QCURVE SMOOTH",
"179 611 OFFCURVE",
"359 611 QCURVE SMOOTH",
"408 611 OFFCURVE",
"486 580 OFFCURVE",
"530 530 OFFCURVE",
"552 490 OFFCURVE",
"557 471 QCURVE",
"567 466 OFFCURVE",
"588 466 QCURVE SMOOTH",
"606 466 OFFCURVE",
"606 474 QCURVE SMOOTH",
"606 488 OFFCURVE",
"588 637 OFFCURVE",
"583 638 QCURVE",
"463 667 OFFCURVE",
"354 667 QCURVE SMOOTH",
"217 667 OFFCURVE",
"25 463 OFFCURVE",
"25 322 QCURVE SMOOTH"
);
}
);
width = 705;
}
);
note = G;
unicode = 0047;
},
{
glyphname = H;
layers = (
{
layerId = "E2E62ECD-1E64-44AC-9B50-C09427155398";
paths = (
{
closed = 1;
nodes = (
"483 82 OFFCURVE",
"477 59 QCURVE",
"474 51 OFFCURVE",
"422 33 OFFCURVE",
"411 33 QCURVE SMOOTH",
"407 33 OFFCURVE",
"406 0 OFFCURVE",
"410 -4 QCURVE",
"423 -3 OFFCURVE",
"532 4 OFFCURVE",
"559 4 QCURVE SMOOTH",
"585 4 OFFCURVE",
"685 -4 OFFCURVE",
"694 -4 QCURVE",
"697 5 OFFCURVE",
"697 13 QCURVE SMOOTH",
"697 34 OFFCURVE",
"693 34 QCURVE SMOOTH",
"684 34 OFFCURVE",
"633 50 OFFCURVE",
"631 57 QCURVE SMOOTH",
"623 88 OFFCURVE",
"623 142 QCURVE SMOOTH",
"623 516 LINE SMOOTH",
"623 571 OFFCURVE",
"631 601 QCURVE SMOOTH",
"633 608 OFFCURVE",
"685 625 OFFCURVE",
"694 625 QCURVE SMOOTH",
"699 625 OFFCURVE",
"699 644 QCURVE SMOOTH",
"699 653 OFFCURVE",
"696 662 QCURVE",
"576 656 OFFCURVE",
"561 656 QCURVE SMOOTH",
"550 656 OFFCURVE",
"412 662 QCURVE",
"408 658 OFFCURVE",
"409 625 OFFCURVE",
"413 625 QCURVE SMOOTH",
"424 625 OFFCURVE",
"473 607 OFFCURVE",
"476 599 QCURVE",
"483 572 OFFCURVE",
"483 520 QCURVE SMOOTH",
"483 375 LINE SMOOTH",
"483 373 OFFCURVE",
"481 371 QCURVE",
"391 369 OFFCURVE",
"364 369 QCURVE SMOOTH",
"342 369 OFFCURVE",
"244 371 QCURVE",
"242 374 LINE",
"242 516 LINE SMOOTH",
"242 580 OFFCURVE",
"250 601 QCURVE",
"253 608 OFFCURVE",
"305 625 OFFCURVE",
"314 625 QCURVE SMOOTH",
"318 625 OFFCURVE",
"318 657 OFFCURVE",
"315 662 QCURVE",
"195 656 OFFCURVE",
"169 656 QCURVE SMOOTH",
"168 656 OFFCURVE",
"30 662 QCURVE",
"28 660 OFFCURVE",
"28 645 QCURVE SMOOTH",
"28 625 OFFCURVE",
"32 625 QCURVE SMOOTH",
"44 625 OFFCURVE",
"90 609 OFFCURVE",
"95 598 QCURVE",
"102 581 OFFCURVE",
"102 520 QCURVE SMOOTH",
"102 138 LINE SMOOTH",
"102 84 OFFCURVE",
"95 57 QCURVE",
"92 49 OFFCURVE",
"40 33 OFFCURVE",
"28 33 QCURVE SMOOTH",
"26 33 OFFCURVE",
"26 13 QCURVE SMOOTH",
"26 0 OFFCURVE",
"30 -4 QCURVE",
"45 -3 OFFCURVE",
"144 4 OFFCURVE",
"196 4 OFFCURVE",
"309 -4 OFFCURVE",
"314 -4 QCURVE",
"317 3 OFFCURVE",
"316 33 OFFCURVE",
"312 33 QCURVE SMOOTH",
"303 33 OFFCURVE",
"252 51 OFFCURVE",
"250 58 QCURVE SMOOTH",
"242 89 OFFCURVE",
"242 142 QCURVE SMOOTH",
"242 306 LINE",
"240 308 LINE",
"240 310 OFFCURVE",
"364 311 QCURVE SMOOTH",
"387 311 OFFCURVE",
"481 309 QCURVE",
"483 305 OFFCURVE",
"483 305 QCURVE",
"483 138 LINE SMOOTH"
);
}
);
width = 727;
}
);
note = H;
unicode = 0048;
},
{
glyphname = I;
layers = (
{
layerId = "E2E62ECD-1E64-44AC-9B50-C09427155398";
paths = (
{
closed = 1;
nodes = (
"102 138 LINE SMOOTH",
"102 85 OFFCURVE",
"95 58 QCURVE",
"92 50 OFFCURVE",
"40 33 OFFCURVE",
"29 33 QCURVE SMOOTH",
"26 33 OFFCURVE",
"26 12 QCURVE SMOOTH",
"26 0 OFFCURVE",
"30 -4 QCURVE",
"44 -3 OFFCURVE",
"148 4 OFFCURVE",
"175 4 QCURVE SMOOTH",
"201 4 OFFCURVE",
"307 -4 OFFCURVE",
"314 -4 QCURVE",
"316 2 OFFCURVE",
"316 14 QCURVE SMOOTH",
"316 33 OFFCURVE",
"312 33 QCURVE SMOOTH",
"303 33 OFFCURVE",
"252 51 OFFCURVE",
"250 58 QCURVE SMOOTH",
"242 89 OFFCURVE",
"242 146 QCURVE SMOOTH",
"242 516 LINE",
"242 531 LINE SMOOTH",
"242 546 OFFCURVE",
"246 589 OFFCURVE",
"249 601 QCURVE SMOOTH",
"251 608 OFFCURVE",
"305 625 OFFCURVE",
"314 625 QCURVE SMOOTH",
"318 625 OFFCURVE",
"318 644 QCURVE SMOOTH",
"318 653 OFFCURVE",
"315 662 QCURVE",
"195 656 OFFCURVE",
"175 656 QCURVE SMOOTH",
"144 655 OFFCURVE",
"111 656 OFFCURVE",
"45 661 OFFCURVE",
"30 662 QCURVE",
"28 660 OFFCURVE",
"28 642 QCURVE SMOOTH",
"28 625 OFFCURVE",
"32 625 QCURVE SMOOTH",
"43 625 OFFCURVE",
"89 608 OFFCURVE",
"94 600 QCURVE",
"102 586 OFFCURVE",
"102 522 QCURVE SMOOTH"
);
}
);
width = 346;
}
);
note = I;
unicode = 0049;
},
{
glyphname = J;
layers = (
{
layerId = "E2E62ECD-1E64-44AC-9B50-C09427155398";
paths = (
{
closed = 1;
nodes = (
"317 656 OFFCURVE",
"179 662 QCURVE",
"177 660 OFFCURVE",
"177 642 QCURVE SMOOTH",
"177 625 OFFCURVE",
"181 625 QCURVE SMOOTH",
"192 625 OFFCURVE",
"238 608 OFFCURVE",
"243 600 QCURVE",
"251 586 OFFCURVE",
"251 522 QCURVE SMOOTH",
"251 135 LINE SMOOTH",
"251 -8 OFFCURVE",
"223 -148 OFFCURVE",
"179 -148 QCURVE SMOOTH",
"165 -148 OFFCURVE",
"110 -87 OFFCURVE",
"86 -87 QCURVE SMOOTH",
"61 -87 OFFCURVE",
"23 -123 OFFCURVE",
"23 -148 QCURVE SMOOTH",
"23 -176 OFFCURVE",
"38 -200 QCURVE",
"61 -218 OFFCURVE",
"95 -218 QCURVE SMOOTH",
"232 -218 OFFCURVE",
"391 -27 OFFCURVE",
"391 143 QCURVE SMOOTH",
"391 516 LINE SMOOTH",
"391 574 OFFCURVE",
"398 601 QCURVE SMOOTH",
"400 608 OFFCURVE",
"454 625 OFFCURVE",
"463 625 QCURVE SMOOTH",
"467 625 OFFCURVE",
"467 644 QCURVE SMOOTH",
"467 653 OFFCURVE",
"464 662 QCURVE",
"344 656 OFFCURVE",
"324 656 QCURVE SMOOTH"
);
}
);
width = 493;
}
);
note = J;
unicode = 004A;
},
{
glyphname = K;
layers = (
{
layerId = "E2E62ECD-1E64-44AC-9B50-C09427155398";
paths = (
{
closed = 1;
nodes = (
"168 656 OFFCURVE",
"30 662 QCURVE",
"28 660 OFFCURVE",
"28 642 QCURVE SMOOTH",
"28 625 OFFCURVE",
"32 625 QCURVE SMOOTH",
"43 625 OFFCURVE",
"89 608 OFFCURVE",
"94 600 QCURVE",
"102 586 OFFCURVE",
"102 522 QCURVE SMOOTH",
"102 138 LINE SMOOTH",
"102 85 OFFCURVE",
"95 58 QCURVE",
"92 50 OFFCURVE",
"40 33 OFFCURVE",
"29 33 QCURVE SMOOTH",
"26 33 OFFCURVE",
"26 12 QCURVE SMOOTH",
"26 0 OFFCURVE",
"30 -4 QCURVE",
"44 -3 OFFCURVE",
"148 4 OFFCURVE",
"175 4 QCURVE SMOOTH",
"201 4 OFFCURVE",
"307 -4 OFFCURVE",
"314 -4 QCURVE",
"316 2 OFFCURVE",
"316 14 QCURVE SMOOTH",
"316 33 OFFCURVE",
"312 33 QCURVE SMOOTH",
"303 33 OFFCURVE",
"252 51 OFFCURVE",
"250 58 QCURVE SMOOTH",
"242 89 OFFCURVE",
"242 146 QCURVE SMOOTH",
"242 272 LINE SMOOTH",
"242 289 OFFCURVE",
"268 289 QCURVE SMOOTH",
"279 289 OFFCURVE",
"282 286 QCURVE",
"460 85 OFFCURVE",
"460 53 QCURVE SMOOTH",
"460 45 OFFCURVE",
"424 33 OFFCURVE",
"413 33 QCURVE SMOOTH",
"409 33 OFFCURVE",
"409 0 OFFCURVE",
"413 -4 QCURVE",
"501 4 OFFCURVE",
"555 4 QCURVE SMOOTH",
"580 4 OFFCURVE",
"705 -4 OFFCURVE",
"706 -4 QCURVE",
"710 4 OFFCURVE",
"710 14 QCURVE SMOOTH",
"710 33 OFFCURVE",
"706 33 QCURVE SMOOTH",
"694 33 OFFCURVE",
"647 45 OFFCURVE",
"636 58 QCURVE",
"399 367 LINE",
"387 381 OFFCURVE",
"400 396 QCURVE SMOOTH",
"572 586 LINE SMOOTH",
"578 593 OFFCURVE",
"595 604 OFFCURVE",
"611 612 OFFCURVE",
"631 619 OFFCURVE",
"647 622 OFFCURVE",
"665 625 OFFCURVE",
"676 626 OFFCURVE",
"682 626 QCURVE",
"688 627 LINE",
"691 627 OFFCURVE",
"692 658 OFFCURVE",
"690 662 QCURVE",
"570 656 OFFCURVE",
"558 656 QCURVE SMOOTH",
"535 656 OFFCURVE",
"424 662 QCURVE",
"422 655 OFFCURVE",
"426 627 OFFCURVE",
"430 627 QCURVE SMOOTH",
"446 627 OFFCURVE",
"490 619 OFFCURVE",
"490 609 QCURVE SMOOTH",
"490 596 OFFCURVE",
"482 586 QCURVE",
"386 476 OFFCURVE",
"300 388 QCURVE SMOOTH",
"263 350 OFFCURVE",
"256 350 QCURVE SMOOTH",
"249 350 LINE",
"248 350 LINE SMOOTH",
"246 350 OFFCURVE",
"242 354 OFFCURVE",
"242 358 QCURVE SMOOTH",
"242 516 LINE SMOOTH",
"242 574 OFFCURVE",
"249 601 QCURVE SMOOTH",
"251 608 OFFCURVE",
"305 625 OFFCURVE",
"314 625 QCURVE SMOOTH",
"318 625 OFFCURVE",
"318 644 QCURVE SMOOTH",
"318 653 OFFCURVE",
"315 662 QCURVE",
"195 656 OFFCURVE",
"175 656 QCURVE SMOOTH"
);
}
);
width = 741;
}
);
note = K;
unicode = 004B;
},
{
glyphname = L;
layers = (
{
layerId = "E2E62ECD-1E64-44AC-9B50-C09427155398";
paths = (
{
closed = 1;
nodes = (
"168 656 OFFCURVE",
"30 662 QCURVE",
"28 660 OFFCURVE",
"28 642 QCURVE SMOOTH",
"28 625 OFFCURVE",
"32 625 QCURVE SMOOTH",
"43 625 OFFCURVE",
"89 608 OFFCURVE",
"94 600 QCURVE",
"102 586 OFFCURVE",
"102 525 QCURVE SMOOTH",
"102 143 LINE SMOOTH",
"102 78 OFFCURVE",
"96 55 QCURVE",
"93 47 OFFCURVE",
"42 33 OFFCURVE",
"30 33 QCURVE SMOOTH",
"26 33 OFFCURVE",
"26 13 QCURVE SMOOTH",
"26 0 OFFCURVE",
"30 -4 QCURVE",
"176 2 LINE",
"219 2 OFFCURVE",
"461 -2 OFFCURVE",
"518 -2 QCURVE",
"523 32 OFFCURVE",
"572 170 QCURVE",
"566 176 OFFCURVE",
"542 176 QCURVE SMOOTH",
"530 176 OFFCURVE",
"528 170 QCURVE",
"516 139 OFFCURVE",
"473 89 OFFCURVE",
"456 80 QCURVE SMOOTH",
"406 54 OFFCURVE",
"344 54 QCURVE SMOOTH",
"318 54 LINE SMOOTH",
"255 54 OFFCURVE",
"250 70 QCURVE SMOOTH",
"242 93 OFFCURVE",
"242 142 QCURVE SMOOTH",
"242 521 LINE SMOOTH",
"242 574 OFFCURVE",
"249 601 QCURVE SMOOTH",
"251 608 OFFCURVE",
"305 625 OFFCURVE",
"314 625 QCURVE SMOOTH",
"318 625 OFFCURVE",
"318 644 QCURVE SMOOTH",
"318 653 OFFCURVE",
"315 662 QCURVE",
"195 656 OFFCURVE",
"175 656 QCURVE SMOOTH"
);
}
);
width = 598;
}
);
note = L;
unicode = 004C;
},
{
glyphname = M;
layers = (
{
layerId = "E2E62ECD-1E64-44AC-9B50-C09427155398";
paths = (
{
closed = 1;
nodes = (
"164 656 OFFCURVE",
"89 661 OFFCURVE",
"75 662 QCURVE",
"71 658 OFFCURVE",
"71 647 QCURVE SMOOTH",
"71 626 OFFCURVE",
"75 626 QCURVE SMOOTH",
"88 626 OFFCURVE",
"146 613 OFFCURVE",
"149 605 QCURVE",
"152 598 OFFCURVE",
"152 587 QCURVE",
"151 574 OFFCURVE",
"145 386 OFFCURVE",
"137 183 OFFCURVE",
"134 131 QCURVE SMOOTH",
"132 106 OFFCURVE",
"130 83 QCURVE SMOOTH",
"128 62 OFFCURVE",
"47 32 OFFCURVE",
"29 32 QCURVE SMOOTH",
"26 32 OFFCURVE",
"26 13 QCURVE SMOOTH",
"26 0 OFFCURVE",
"30 -4 QCURVE",
"46 -3 OFFCURVE",
"138 4 OFFCURVE",
"190 4 OFFCURVE",
"294 -4 OFFCURVE",
"302 -4 QCURVE",
"304 2 OFFCURVE",
"304 13 QCURVE SMOOTH",
"304 33 OFFCURVE",
"300 33 QCURVE SMOOTH",
"287 33 OFFCURVE",
"205 60 OFFCURVE",
"202 73 QCURVE",
"201 80 OFFCURVE",
"201 109 QCURVE",
"218 494 LINE",
"438 0 LINE",
"444 -2 OFFCURVE",
"447 -2 QCURVE SMOOTH",
"459 -2 OFFCURVE",
"483 21 OFFCURVE",
"487 31 QCURVE SMOOTH",
"660 462 LINE SMOOTH",
"663 469 OFFCURVE",
"665 469 QCURVE SMOOTH",
"669 469 OFFCURVE",
"673 402 QCURVE SMOOTH",
"681 148 LINE SMOOTH",
"683 112 OFFCURVE",
"683 89 QCURVE SMOOTH",
"683 76 OFFCURVE",
"675 61 QCURVE SMOOTH",
"670 51 OFFCURVE",
"624 33 OFFCURVE",
"613 33 QCURVE SMOOTH",
"610 33 OFFCURVE",
"610 12 QCURVE SMOOTH",
"610 1 OFFCURVE",
"615 -4 QCURVE",
"629 -3 OFFCURVE",
"733 4 OFFCURVE",
"760 4 QCURVE SMOOTH",
"786 4 OFFCURVE",
"876 -3 OFFCURVE",
"887 -4 QCURVE",
"889 2 OFFCURVE",
"889 13 QCURVE SMOOTH",
"889 33 OFFCURVE",
"885 33 QCURVE SMOOTH",
"876 33 OFFCURVE",
"831 51 OFFCURVE",
"827 60 QCURVE",
"815 91 OFFCURVE",
"812 152 QCURVE SMOOTH",
"810 198 OFFCURVE",
"794 532 OFFCURVE",
"792 572 QCURVE SMOOTH",
"791 602 OFFCURVE",
"806 613 QCURVE SMOOTH",
"823 625 OFFCURVE",
"848 625 QCURVE SMOOTH",
"849 625 LINE SMOOTH",
"854 625 OFFCURVE",
"854 646 QCURVE SMOOTH",
"854 656 OFFCURVE",
"850 662 QCURVE",
"730 656 OFFCURVE",
"724 656 QCURVE SMOOTH",
"661 656 OFFCURVE",
"643 658 QCURVE",
"610 546 LINE",
"565 422 OFFCURVE",
"488 231 QCURVE",
"488 230 OFFCURVE",
"486 230 QCURVE SMOOTH",
"484 230 LINE",
"449 317 OFFCURVE",
"305 630 OFFCURVE",
"295 662 QCURVE",
"283 661 OFFCURVE",
"210 656 OFFCURVE",
"190 656 QCURVE SMOOTH"
);
}
);
width = 918;
}
);
note = M;
unicode = 004D;
},
{
glyphname = N;
layers = (
{
layerId = "E2E62ECD-1E64-44AC-9B50-C09427155398";
paths = (
{
closed = 1;
nodes = (
"585 289 LINE SMOOTH",
"585 255 OFFCURVE",
"583 248 QCURVE",
"537 309 OFFCURVE",
"381 499 OFFCURVE",
"282 628 OFFCURVE",
"265 662 QCURVE",
"201 654 OFFCURVE",
"167 654 QCURVE SMOOTH",
"141 654 OFFCURVE",
"46 661 OFFCURVE",
"30 662 QCURVE",
"26 658 OFFCURVE",
"28 625 OFFCURVE",
"32 625 QCURVE SMOOTH",
"46 625 OFFCURVE",
"106 615 OFFCURVE",
"111 608 QCURVE",
"126 589 OFFCURVE",
"126 537 QCURVE SMOOTH",
"126 144 LINE SMOOTH",
"126 87 OFFCURVE",
"116 71 QCURVE SMOOTH",
"107 56 OFFCURVE",
"67 37 OFFCURVE",
"41 33 OFFCURVE",
"31 33 QCURVE SMOOTH",
"28 33 OFFCURVE",
"28 14 QCURVE SMOOTH",
"28 -1 OFFCURVE",
"31 -4 QCURVE",
"49 -3 OFFCURVE",
"129 4 OFFCURVE",
"181 4 OFFCURVE",
"281 -4 OFFCURVE",
"290 -4 QCURVE",
"292 0 OFFCURVE",
"291 34 OFFCURVE",
"288 34 QCURVE SMOOTH",
"273 34 OFFCURVE",
"207 53 OFFCURVE",
"198 70 QCURVE SMOOTH",
"190 86 OFFCURVE",
"190 141 QCURVE SMOOTH",
"190 524 LINE",
"597 18 LINE SMOOTH",
"616 -5 OFFCURVE",
"628 -5 QCURVE SMOOTH",
"649 -5 OFFCURVE",
"653 -1 QCURVE",
"649 103 OFFCURVE",
"649 139 QCURVE SMOOTH",
"649 519 LINE SMOOTH",
"649 575 OFFCURVE",
"663 592 QCURVE SMOOTH",
"691 625 OFFCURVE",
"746 625 QCURVE SMOOTH",
"751 625 OFFCURVE",
"751 644 QCURVE SMOOTH",
"751 654 OFFCURVE",
"747 662 QCURVE",
"735 661 OFFCURVE",
"648 654 OFFCURVE",
"623 654 QCURVE SMOOTH",
"583 654 OFFCURVE",
"491 662 QCURVE",
"488 658 OFFCURVE",
"490 625 OFFCURVE",
"494 625 QCURVE SMOOTH",
"506 625 OFFCURVE",
"563 607 OFFCURVE",
"572 596 QCURVE SMOOTH",
"585 581 OFFCURVE",
"585 524 QCURVE SMOOTH"
);
}
);
width = 777;
}
);
note = N;
unicode = 004E;
},
{
glyphname = O;
layers = (
{
layerId = "E2E62ECD-1E64-44AC-9B50-C09427155398";
paths = (
{
closed = 1;
nodes = (
"383 611 OFFCURVE",
"457 556 OFFCURVE",
"495 463 OFFCURVE",
"512 364 OFFCURVE",
"512 309 QCURVE SMOOTH",
"512 198 OFFCURVE",
"437 46 OFFCURVE",
"362 46 QCURVE SMOOTH",
"313 46 OFFCURVE",
"239 105 OFFCURVE",
"200 200 OFFCURVE",
"181 299 OFFCURVE",
"181 350 QCURVE SMOOTH",
"181 422 OFFCURVE",
"208 534 OFFCURVE",
"278 611 OFFCURVE",
"331 611 QCURVE SMOOTH"
);
},
{
closed = 1;
nodes = (
"478 -10 OFFCURVE",
"668 188 OFFCURVE",
"668 468 OFFCURVE",
"478 667 OFFCURVE",
"214 667 OFFCURVE",
"25 468 OFFCURVE",
"25 188 OFFCURVE",
"214 -10 OFFCURVE"
);
}
);
width = 695;
}
);
note = O;
unicode = 004F;
},
{
glyphname = P;
layers = (
{
layerId = "E2E62ECD-1E64-44AC-9B50-C09427155398";
paths = (
{
closed = 1;
nodes = (
"119 659 OFFCURVE",
"29 664 QCURVE",
"26 661 OFFCURVE",
"26 645 QCURVE SMOOTH",
"26 627 OFFCURVE",
"30 627 QCURVE SMOOTH",
"41 627 OFFCURVE",
"94 607 OFFCURVE",
"97 599 QCURVE",
"103 576 OFFCURVE",
"103 521 QCURVE SMOOTH",
"103 143 LINE SMOOTH",
"103 78 OFFCURVE",
"97 55 QCURVE",
"94 47 OFFCURVE",
"43 33 OFFCURVE",
"31 33 QCURVE SMOOTH",
"27 33 OFFCURVE",
"27 13 QCURVE SMOOTH",
"27 0 OFFCURVE",
"31 -4 QCURVE",
"177 2 LINE",
"210 2 OFFCURVE",
"330 -4 QCURVE",
"332 2 OFFCURVE",
"332 14 QCURVE SMOOTH",
"332 33 OFFCURVE",
"328 33 QCURVE SMOOTH",
"313 33 OFFCURVE",
"253 47 OFFCURVE",
"250 59 QCURVE SMOOTH",
"243 90 OFFCURVE",
"243 141 QCURVE SMOOTH",
"243 499 LINE SMOOTH",
"243 588 OFFCURVE",
"255 597 QCURVE SMOOTH",
"266 605 OFFCURVE",
"301 605 QCURVE SMOOTH",
"393 605 OFFCURVE",
"393 468 QCURVE SMOOTH",
"393 332 OFFCURVE",
"309 332 QCURVE SMOOTH",
"277 332 OFFCURVE",
"264 340 QCURVE",
"259 340 OFFCURVE",
"261 308 OFFCURVE",
"265 302 QCURVE SMOOTH",
"267 299 OFFCURVE",
"283 290 OFFCURVE",
"315 280 OFFCURVE",
"331 280 QCURVE SMOOTH",
"420 280 OFFCURVE",
"545 398 OFFCURVE",
"545 479 QCURVE SMOOTH",
"545 543 OFFCURVE",
"467 630 OFFCURVE",
"363 662 OFFCURVE",
"304 662 QCURVE SMOOTH",
"274 662 OFFCURVE",
"205 659 OFFCURVE",
"176 659 QCURVE SMOOTH"
);
}
);
width = 572;
}
);
note = P;
unicode = 0050;
},
{
glyphname = Q;
layers = (
{
layerId = "E2E62ECD-1E64-44AC-9B50-C09427155398";
paths = (
{
closed = 1;
nodes = (
"381 603 OFFCURVE",
"455 550 OFFCURVE",
"493 460 OFFCURVE",
"510 364 OFFCURVE",
"510 309 QCURVE SMOOTH",
"510 198 OFFCURVE",
"435 51 OFFCURVE",
"360 51 QCURVE SMOOTH",
"311 51 OFFCURVE",
"237 108 OFFCURVE",
"198 201 OFFCURVE",
"179 300 OFFCURVE",
"179 350 QCURVE SMOOTH",
"179 461 OFFCURVE",
"251 603 OFFCURVE",
"329 603 QCURVE SMOOTH"
);
},
{
closed = 1;
nodes = (
"625 -74 OFFCURVE",
"566 -61 OFFCURVE",
"533 -45 OFFCURVE",
"466 -7 OFFCURVE",
"440 5 QCURVE",
"517 20 OFFCURVE",
"664 200 OFFCURVE",
"664 328 QCURVE SMOOTH",
"664 468 OFFCURVE",
"476 667 OFFCURVE",
"212 667 OFFCURVE",
"25 468 OFFCURVE",
"25 328 QCURVE SMOOTH",
"25 262 OFFCURVE",
"72 143 OFFCURVE",
"146 63 OFFCURVE",
"222 11 OFFCURVE",
"258 0 QCURVE SMOOTH",
"300 -13 OFFCURVE",
"407 -87 OFFCURVE",
"505 -143 OFFCURVE",
"553 -143 QCURVE SMOOTH",
"597 -143 OFFCURVE",
"707 -112 OFFCURVE",
"750 -89 QCURVE",
"750 -84 LINE SMOOTH",
"750 -64 OFFCURVE",
"738 -64 QCURVE SMOOTH",
"736 -64 OFFCURVE",
"714 -69 OFFCURVE",
"680 -74 OFFCURVE",
"662 -74 QCURVE SMOOTH"
);
}
);
width = 775;
}
);
note = Q;
unicode = 0051;
},
{
glyphname = R;
layers = (
{
layerId = "E2E62ECD-1E64-44AC-9B50-C09427155398";
paths = (
{
closed = 1;
nodes = (
"394 605 OFFCURVE",
"394 472 QCURVE SMOOTH",
"394 416 OFFCURVE",
"351 348 OFFCURVE",
"312 348 QCURVE SMOOTH",
"285 348 LINE SMOOTH",
"276 348 OFFCURVE",
"264 350 OFFCURVE",
"250 358 OFFCURVE",
"243 376 OFFCURVE",
"243 391 QCURVE SMOOTH",
"243 499 LINE SMOOTH",
"244 589 OFFCURVE",
"266 605 OFFCURVE",
"301 605 QCURVE SMOOTH"
);
},
{
closed = 1;
nodes = (
"286 660 OFFCURVE",
"203 659 OFFCURVE",
"176 659 QCURVE SMOOTH",
"121 659 OFFCURVE",
"29 664 QCURVE",
"26 661 OFFCURVE",
"26 645 QCURVE SMOOTH",
"26 627 OFFCURVE",
"30 627 QCURVE SMOOTH",
"41 627 OFFCURVE",
"94 607 OFFCURVE",
"97 599 QCURVE",
"103 576 OFFCURVE",
"103 521 QCURVE SMOOTH",
"103 143 LINE SMOOTH",
"103 78 OFFCURVE",
"97 55 QCURVE",
"94 47 OFFCURVE",
"43 33 OFFCURVE",
"31 33 QCURVE SMOOTH",
"27 33 OFFCURVE",
"27 13 QCURVE SMOOTH",
"27 0 OFFCURVE",
"31 -4 QCURVE",
"177 2 LINE",
"210 2 OFFCURVE",
"330 -4 QCURVE",
"332 2 OFFCURVE",
"332 14 QCURVE SMOOTH",
"332 33 OFFCURVE",
"328 33 QCURVE SMOOTH",
"313 33 OFFCURVE",
"253 47 OFFCURVE",
"250 59 QCURVE SMOOTH",
"243 90 OFFCURVE",
"243 141 QCURVE SMOOTH",
"243 277 LINE SMOOTH",
"243 293 OFFCURVE",
"252 293 QCURVE SMOOTH",
"260 293 OFFCURVE",
"263 292 QCURVE",
"268 290 OFFCURVE",
"283 274 OFFCURVE",
"305 242 OFFCURVE",
"324 213 OFFCURVE",
"356 163 OFFCURVE",
"366 147 QCURVE SMOOTH",
"386 116 OFFCURVE",
"410 84 OFFCURVE",
"459 36 OFFCURVE",
"508 12 OFFCURVE",
"589 -7 OFFCURVE",
"638 -7 QCURVE SMOOTH",
"659 -7 OFFCURVE",
"673 -5 QCURVE",
"677 4 OFFCURVE",
"677 15 QCURVE SMOOTH",
"677 28 OFFCURVE",
"673 33 QCURVE",
"635 33 OFFCURVE",
"554 98 OFFCURVE",
"529 135 QCURVE SMOOTH",
"516 154 OFFCURVE",
"473 213 OFFCURVE",
"442 262 OFFCURVE",
"420 299 QCURVE SMOOTH",
"415 307 OFFCURVE",
"423 310 QCURVE",
"468 325 OFFCURVE",
"546 425 OFFCURVE",
"546 492 QCURVE SMOOTH",
"546 538 OFFCURVE",
"498 607 OFFCURVE",
"424 643 OFFCURVE",
"350 660 OFFCURVE",
"316 660 QCURVE SMOOTH"
);
}
);
width = 709;
}
);
note = R;
unicode = 0052;
},
{
glyphname = S;
layers = (
{
layerId = "E2E62ECD-1E64-44AC-9B50-C09427155398";
paths = (
{
closed = 1;
nodes = (
"31 454 OFFCURVE",
"50 399 OFFCURVE",
"95 353 OFFCURVE",
"129 327 OFFCURVE",
"162 305 QCURVE SMOOTH",
"172 298 OFFCURVE",
"177 295 QCURVE",
"184 290 OFFCURVE",
"235 258 OFFCURVE",
"263 238 OFFCURVE",
"299 206 OFFCURVE",
"317 173 OFFCURVE",
"317 156 QCURVE SMOOTH",
"317 47 OFFCURVE",
"218 47 QCURVE SMOOTH",
"167 47 OFFCURVE",
"83 140 OFFCURVE",
"75 186 QCURVE SMOOTH",
"74 192 OFFCURVE",
"43 192 QCURVE SMOOTH",
"28 192 OFFCURVE",
"25 182 QCURVE",
"25 159 OFFCURVE",
"40 48 OFFCURVE",
"48 16 QCURVE",
"159 -10 OFFCURVE",
"238 -10 QCURVE SMOOTH",
"324 -10 OFFCURVE",
"456 95 OFFCURVE",
"456 175 QCURVE SMOOTH",
"456 207 OFFCURVE",
"442 260 OFFCURVE",
"425 293 OFFCURVE",
"388 327 OFFCURVE",
"367 342 OFFCURVE",
"317 372 OFFCURVE",
"309 377 QCURVE SMOOTH",
"304 380 OFFCURVE",
"295 386 QCURVE SMOOTH",
"261 408 OFFCURVE",
"231 428 OFFCURVE",
"184 468 OFFCURVE",
"164 506 OFFCURVE",
"164 526 QCURVE SMOOTH",
"164 572 OFFCURVE",
"211 614 OFFCURVE",
"245 614 QCURVE SMOOTH",
"298 614 OFFCURVE",
"370 523 OFFCURVE",
"377 473 QCURVE",
"379 466 OFFCURVE",
"408 466 QCURVE SMOOTH",
"419 466 OFFCURVE",
"423 476 QCURVE",
"423 545 OFFCURVE",
"412 642 QCURVE",
"396 645 OFFCURVE",
"341 658 OFFCURVE",
"310 664 OFFCURVE",
"265 670 OFFCURVE",
"244 670 QCURVE SMOOTH",
"164 670 OFFCURVE",
"31 564 OFFCURVE",
"31 489 QCURVE SMOOTH"
);
}
);
width = 483;
}
);
note = S;
unicode = 0053;
},
{
glyphname = T;
layers = (
{
layerId = "E2E62ECD-1E64-44AC-9B50-C09427155398";
paths = (
{
closed = 1;
nodes = (
"87 663 OFFCURVE",
"43 674 QCURVE",
"24 511 LINE",
"31 504 OFFCURVE",
"53 504 QCURVE SMOOTH",
"62 504 OFFCURVE",
"63 509 QCURVE",
"77 562 OFFCURVE",
"129 607 OFFCURVE",
"170 607 QCURVE SMOOTH",
"206 607 OFFCURVE",
"244 600 OFFCURVE",
"249 595 OFFCURVE",
"252 589 QCURVE",
"260 575 OFFCURVE",
"260 497 QCURVE SMOOTH",
"260 135 LINE SMOOTH",
"260 85 OFFCURVE",
"253 58 QCURVE",
"250 50 OFFCURVE",
"198 33 OFFCURVE",
"187 33 QCURVE SMOOTH",
"184 33 OFFCURVE",
"184 12 QCURVE SMOOTH",
"184 0 OFFCURVE",
"188 -4 QCURVE",
"202 -3 OFFCURVE",
"306 4 OFFCURVE",
"333 4 QCURVE SMOOTH",
"359 4 OFFCURVE",
"465 -4 OFFCURVE",
"472 -4 QCURVE",
"474 2 OFFCURVE",
"474 14 QCURVE SMOOTH",
"474 33 OFFCURVE",
"470 33 QCURVE SMOOTH",
"461 33 OFFCURVE",
"410 51 OFFCURVE",
"408 58 QCURVE SMOOTH",
"400 89 OFFCURVE",
"400 139 QCURVE SMOOTH",
"400 500 LINE SMOOTH",
"400 561 OFFCURVE",
"408 589 QCURVE",
"412 607 OFFCURVE",
"493 607 QCURVE SMOOTH",
"575 607 OFFCURVE",
"600 508 QCURVE",
"601 503 OFFCURVE",
"610 503 QCURVE SMOOTH",
"632 503 OFFCURVE",
"639 510 QCURVE",
"620 674 LINE",
"576 663 OFFCURVE",
"551 663 QCURVE SMOOTH",
"509 663 OFFCURVE",
"373 657 OFFCURVE",
"289 657 OFFCURVE",
"154 663 OFFCURVE",
"112 663 QCURVE SMOOTH"
);
}
);
width = 665;
}
);
note = T;
unicode = 0054;
},
{
glyphname = U;
layers = (
{
layerId = "E2E62ECD-1E64-44AC-9B50-C09427155398";
paths = (
{
closed = 1;
nodes = (
"164 656 OFFCURVE",
"26 662 QCURVE",
"24 660 OFFCURVE",
"24 642 QCURVE SMOOTH",
"24 625 OFFCURVE",
"28 625 QCURVE SMOOTH",
"39 625 OFFCURVE",
"85 608 OFFCURVE",
"90 600 QCURVE",
"98 586 OFFCURVE",
"98 522 QCURVE SMOOTH",
"98 311 LINE SMOOTH",
"98 147 OFFCURVE",
"246 -5 OFFCURVE",
"368 -5 QCURVE SMOOTH",
"482 -5 OFFCURVE",
"625 145 OFFCURVE",
"625 291 QCURVE SMOOTH",
"625 519 LINE SMOOTH",
"625 575 OFFCURVE",
"639 592 QCURVE SMOOTH",
"667 625 OFFCURVE",
"722 625 QCURVE SMOOTH",
"727 625 OFFCURVE",
"727 644 QCURVE SMOOTH",
"727 654 OFFCURVE",
"723 662 QCURVE",
"711 661 OFFCURVE",
"624 654 OFFCURVE",
"599 654 QCURVE SMOOTH",
"559 654 OFFCURVE",
"467 662 QCURVE",
"464 658 OFFCURVE",
"466 625 OFFCURVE",
"470 625 QCURVE SMOOTH",
"482 625 OFFCURVE",
"539 607 OFFCURVE",
"548 596 QCURVE SMOOTH",
"561 581 OFFCURVE",
"561 524 QCURVE SMOOTH",
"561 286 LINE SMOOTH",
"561 172 OFFCURVE",
"466 75 OFFCURVE",
"392 75 QCURVE SMOOTH",
"321 75 OFFCURVE",
"238 187 OFFCURVE",
"238 279 QCURVE SMOOTH",
"238 516 LINE SMOOTH",
"238 574 OFFCURVE",
"245 601 QCURVE SMOOTH",
"247 608 OFFCURVE",
"301 625 OFFCURVE",
"310 625 QCURVE SMOOTH",
"314 625 OFFCURVE",
"314 644 QCURVE SMOOTH",
"314 653 OFFCURVE",
"311 662 QCURVE",
"191 656 OFFCURVE",
"171 656 QCURVE SMOOTH"
);
}
);
width = 753;
}
);
note = U;
unicode = 0055;
},
{
glyphname = V;
layers = (
{
layerId = "E2E62ECD-1E64-44AC-9B50-C09427155398";
paths = (
{
closed = 1;
nodes = (
"136 654 OFFCURVE",
"23 662 OFFCURVE",
"18 662 QCURVE",
"16 659 OFFCURVE",
"16 625 OFFCURVE",
"20 625 QCURVE SMOOTH",
"34 625 OFFCURVE",
"87 608 OFFCURVE",
"93 592 QCURVE",
"96 585 OFFCURVE",
"126 510 QCURVE SMOOTH",
"331 3 LINE",
"340 -10 OFFCURVE",
"354 -10 QCURVE SMOOTH",
"364 -10 OFFCURVE",
"389 10 OFFCURVE",
"397 27 QCURVE SMOOTH",
"613 524 LINE SMOOTH",
"643 590 OFFCURVE",
"651 597 QCURVE",
"666 609 OFFCURVE",
"714 626 OFFCURVE",
"725 626 QCURVE SMOOTH",
"727 626 OFFCURVE",
"727 647 QCURVE SMOOTH",
"727 658 OFFCURVE",
"723 662 QCURVE",
"704 661 OFFCURVE",
"632 654 OFFCURVE",
"582 654 OFFCURVE",
"507 661 OFFCURVE",
"493 662 QCURVE",
"491 656 OFFCURVE",
"491 626 OFFCURVE",
"494 625 QCURVE",
"524 625 OFFCURVE",
"565 605 OFFCURVE",
"565 590 QCURVE SMOOTH",
"565 567 OFFCURVE",
"545 522 QCURVE SMOOTH",
"404 193 LINE",
"270 523 LINE SMOOTH",
"247 580 OFFCURVE",
"247 589 QCURVE SMOOTH",
"247 607 OFFCURVE",
"296 625 OFFCURVE",
"313 625 QCURVE SMOOTH",
"317 625 OFFCURVE",
"317 658 OFFCURVE",
"313 662 QCURVE",
"169 654 OFFCURVE",
"162 654 QCURVE SMOOTH"
);
}
);
width = 729;
}
);
note = V;
unicode = 0056;
},
{
glyphname = W;
layers = (
{
layerId = "E2E62ECD-1E64-44AC-9B50-C09427155398";
paths = (
{
closed = 1;
nodes = (
"142 656 OFFCURVE",
"4 662 QCURVE",
"2 660 OFFCURVE",
"2 644 QCURVE SMOOTH",
"2 625 OFFCURVE",
"6 625 QCURVE SMOOTH",
"19 625 OFFCURVE",
"58 614 OFFCURVE",
"66 604 QCURVE SMOOTH",
"85 580 OFFCURVE",
"112 527 QCURVE SMOOTH",
"383 -8 LINE",
"386 -13 OFFCURVE",
"392 -13 QCURVE SMOOTH",
"408 -13 OFFCURVE",
"426 19 QCURVE SMOOTH",
"546 233 LINE",
"669 -8 LINE",
"672 -13 OFFCURVE",
"680 -13 QCURVE SMOOTH",
"698 -13 OFFCURVE",
"714 19 QCURVE SMOOTH",
"961 510 LINE SMOOTH",
"991 568 OFFCURVE",
"1019 598 QCURVE SMOOTH",
"1029 608 OFFCURVE",
"1075 626 OFFCURVE",
"1090 626 QCURVE SMOOTH",
"1093 626 OFFCURVE",
"1093 637 QCURVE SMOOTH",
"1093 654 OFFCURVE",
"1090 662 QCURVE",
"970 656 OFFCURVE",
"965 656 QCURVE SMOOTH",
"942 656 OFFCURVE",
"846 662 QCURVE",
"842 658 OFFCURVE",
"843 626 OFFCURVE",
"847 626 QCURVE SMOOTH",
"865 626 OFFCURVE",
"918 611 OFFCURVE",
"918 594 QCURVE SMOOTH",
"918 580 OFFCURVE",
"900 544 QCURVE SMOOTH",
"729 205 LINE",
"721 191 OFFCURVE",
"716 201 QCURVE SMOOTH",
"629 372 LINE",
"699 510 LINE SMOOTH",
"728 567 OFFCURVE",
"755 596 QCURVE SMOOTH",
"765 607 OFFCURVE",
"813 626 OFFCURVE",
"828 626 QCURVE",
"831 627 OFFCURVE",
"830 656 OFFCURVE",
"828 662 QCURVE",
"708 656 OFFCURVE",
"703 656 QCURVE SMOOTH",
"680 656 OFFCURVE",
"584 662 QCURVE",
"580 658 OFFCURVE",
"581 626 OFFCURVE",
"585 626 QCURVE SMOOTH",
"595 626 OFFCURVE",
"624 622 OFFCURVE",
"659 607 OFFCURVE",
"659 594 QCURVE SMOOTH",
"659 583 OFFCURVE",
"639 542 QCURVE SMOOTH",
"591 447 LINE",
"533 562 LINE",
"521 593 LINE",
"521 610 OFFCURVE",
"551 625 OFFCURVE",
"567 625 QCURVE",
"570 626 OFFCURVE",
"569 656 OFFCURVE",
"567 662 QCURVE",
"447 656 OFFCURVE",
"435 656 QCURVE SMOOTH",
"434 656 OFFCURVE",
"296 662 QCURVE",
"294 660 OFFCURVE",
"294 644 QCURVE SMOOTH",
"294 625 OFFCURVE",
"298 625 QCURVE SMOOTH",
"331 625 OFFCURVE",
"356 600 QCURVE SMOOTH",
"368 588 OFFCURVE",
"399 527 QCURVE SMOOTH",
"509 310 LINE",
"447 200 LINE",
"437 184 OFFCURVE",
"432 195 QCURVE",
"248 560 LINE",
"236 591 LINE",
"236 625 OFFCURVE",
"282 625 QCURVE",
"285 626 OFFCURVE",
"284 656 OFFCURVE",
"282 662 QCURVE",
"162 656 OFFCURVE",
"146 656 QCURVE SMOOTH"
);
}
);
width = 1094;
}
);
note = W;
unicode = 0057;
},
{
glyphname = X;
layers = (
{
layerId = "E2E62ECD-1E64-44AC-9B50-C09427155398";
paths = (
{
closed = 1;
nodes = (
"183 656 OFFCURVE",
"77 662 OFFCURVE",
"71 662 QCURVE",
"67 658 OFFCURVE",
"67 625 OFFCURVE",
"71 625 QCURVE SMOOTH",
"103 625 OFFCURVE",
"124 610 QCURVE SMOOTH",
"136 602 OFFCURVE",
"178 537 QCURVE SMOOTH",
"312 332 LINE",
"119 67 LINE SMOOTH",
"108 52 OFFCURVE",
"44 33 OFFCURVE",
"31 33 QCURVE SMOOTH",
"27 33 OFFCURVE",
"27 10 QCURVE SMOOTH",
"27 8 OFFCURVE",
"31 -4 QCURVE",
"151 2 OFFCURVE",
"159 2 QCURVE SMOOTH",
"192 2 OFFCURVE",
"291 -4 QCURVE",
"293 0 OFFCURVE",
"293 12 QCURVE SMOOTH",
"293 33 OFFCURVE",
"288 33 QCURVE SMOOTH",
"262 33 OFFCURVE",
"214 51 OFFCURVE",
"214 66 QCURVE SMOOTH",
"214 83 OFFCURVE",
"354 269 QCURVE",
"484 72 LINE",
"487 67 OFFCURVE",
"487 61 QCURVE SMOOTH",
"487 49 OFFCURVE",
"444 33 OFFCURVE",
"431 33 QCURVE SMOOTH",
"427 33 OFFCURVE",
"425 0 OFFCURVE",
"429 -4 QCURVE",
"438 -4 OFFCURVE",
"554 2 OFFCURVE",
"587 2 QCURVE SMOOTH",
"613 2 OFFCURVE",
"733 -4 QCURVE",
"736 2 OFFCURVE",
"736 11 QCURVE SMOOTH",
"736 33 OFFCURVE",
"733 33 QCURVE SMOOTH",
"720 33 OFFCURVE",
"667 54 OFFCURVE",
"648 76 QCURVE SMOOTH",
"630 97 OFFCURVE",
"458 356 QCURVE",
"645 586 LINE SMOOTH",
"662 607 OFFCURVE",
"720 625 OFFCURVE",
"734 625 QCURVE SMOOTH",
"738 625 OFFCURVE",
"738 657 OFFCURVE",
"735 662 QCURVE",
"615 656 OFFCURVE",
"589 656 OFFCURVE",
"478 662 QCURVE",
"474 658 OFFCURVE",
"475 625 OFFCURVE",
"479 625 QCURVE SMOOTH",
"506 625 OFFCURVE",
"553 606 OFFCURVE",
"553 594 QCURVE SMOOTH",
"553 588 OFFCURVE",
"536 559 OFFCURVE",
"504 518 OFFCURVE",
"474 480 OFFCURVE",
"432 429 OFFCURVE",
"420 414 QCURVE",
"309 582 LINE SMOOTH",
"301 594 OFFCURVE",
"301 604 QCURVE",
"302 614 OFFCURVE",
"339 625 OFFCURVE",
"354 625 QCURVE SMOOTH",
"357 625 OFFCURVE",
"358 658 OFFCURVE",
"356 662 QCURVE",
"236 656 OFFCURVE",
"212 656 QCURVE SMOOTH"
);
}
);
width = 768;
}
);
note = X;
unicode = 0058;
},
{
glyphname = Y;
layers = (
{
layerId = "E2E62ECD-1E64-44AC-9B50-C09427155398";
paths = (
{
closed = 1;
nodes = (
"155 656 OFFCURVE",
"108 658 OFFCURVE",
"52 661 OFFCURVE",
"35 662 QCURVE",
"31 658 OFFCURVE",
"31 625 OFFCURVE",
"35 625 QCURVE SMOOTH",
"63 625 OFFCURVE",
"88 610 QCURVE SMOOTH",
"109 598 OFFCURVE",
"142 537 QCURVE SMOOTH",
"173 484 LINE SMOOTH",
"204 430 OFFCURVE",
"267 316 OFFCURVE",
"267 309 QCURVE SMOOTH",
"267 139 LINE SMOOTH",
"267 85 OFFCURVE",
"260 58 QCURVE",
"257 50 OFFCURVE",
"205 33 OFFCURVE",
"194 33 QCURVE SMOOTH",
"191 33 OFFCURVE",
"191 12 QCURVE SMOOTH",
"191 0 OFFCURVE",
"195 -4 QCURVE",
"209 -3 OFFCURVE",
"313 4 OFFCURVE",
"340 4 QCURVE SMOOTH",
"366 4 OFFCURVE",
"472 -4 OFFCURVE",
"479 -4 QCURVE",
"481 2 OFFCURVE",
"481 14 QCURVE SMOOTH",
"481 33 OFFCURVE",
"477 33 QCURVE SMOOTH",
"468 33 OFFCURVE",
"417 51 OFFCURVE",
"415 58 QCURVE SMOOTH",
"407 89 OFFCURVE",
"407 145 QCURVE SMOOTH",
"407 304 LINE SMOOTH",
"407 317 OFFCURVE",
"556 555 OFFCURVE",
"582 590 QCURVE SMOOTH",
"596 608 OFFCURVE",
"642 626 OFFCURVE",
"660 626 QCURVE SMOOTH",
"664 626 OFFCURVE",
"664 644 QCURVE SMOOTH",
"664 653 OFFCURVE",
"661 662 QCURVE",
"574 656 OFFCURVE",
"548 656 QCURVE SMOOTH",
"517 656 OFFCURVE",
"427 662 QCURVE",
"423 658 OFFCURVE",
"424 625 OFFCURVE",
"428 625 QCURVE SMOOTH",
"492 625 OFFCURVE",
"492 603 QCURVE SMOOTH",
"492 587 OFFCURVE",
"412 449 OFFCURVE",
"383 407 QCURVE SMOOTH",
"378 400 OFFCURVE",
"373 405 QCURVE",
"273 582 LINE SMOOTH",
"265 596 OFFCURVE",
"265 604 QCURVE",
"266 614 OFFCURVE",
"303 625 OFFCURVE",
"318 625 QCURVE SMOOTH",
"321 625 OFFCURVE",
"322 658 OFFCURVE",
"320 662 QCURVE",
"200 656 OFFCURVE",
"177 656 QCURVE SMOOTH"
);
}
);
width = 669;
}
);
note = Y;
unicode = 0059;
},
{
glyphname = Z;
layers = (
{
layerId = "E2E62ECD-1E64-44AC-9B50-C09427155398";
paths = (
{
closed = 1;
nodes = (
"99 656 OFFCURVE",
"75 662 QCURVE",
"69 609 OFFCURVE",
"45 482 QCURVE",
"49 478 OFFCURVE",
"78 478 QCURVE SMOOTH",
"89 478 OFFCURVE",
"91 484 QCURVE",
"93 488 OFFCURVE",
"96 497 QCURVE",
"107 526 OFFCURVE",
"118 549 OFFCURVE",
"148 585 OFFCURVE",
"195 599 OFFCURVE",
"231 599 QCURVE SMOOTH",
"402 599 LINE",
"34 43 LINE",
"30 38 OFFCURVE",
"30 26 QCURVE SMOOTH",
"30 9 OFFCURVE",
"38 0 QCURVE",
"555 0 LINE",
"557 16 OFFCURVE",
"570 61 OFFCURVE",
"582 97 OFFCURVE",
"603 157 OFFCURVE",
"609 174 QCURVE",
"602 180 OFFCURVE",
"578 180 QCURVE SMOOTH",
"568 180 OFFCURVE",
"565 174 QCURVE",
"548 124 OFFCURVE",
"459 57 OFFCURVE",
"389 57 QCURVE SMOOTH",
"230 57 LINE SMOOTH",
"216 57 OFFCURVE",
"216 67 QCURVE SMOOTH",
"216 72 OFFCURVE",
"223 82 QCURVE SMOOTH",
"588 633 LINE",
"588 641 OFFCURVE",
"581 665 OFFCURVE",
"578 666 QCURVE",
"438 656 OFFCURVE",
"346 656 QCURVE SMOOTH",
"237 656 LINE SMOOTH"
);
}
);
width = 635;
}
);
note = Z;
unicode = 005A;
},
{
glyphname = bracketleft;
layers = (
{
layerId = "E2E62ECD-1E64-44AC-9B50-C09427155398";
paths = (
{
closed = 1;
nodes = (
"34 770 OFFCURVE",
"34 747 QCURVE SMOOTH",
"34 -87 LINE SMOOTH",
"34 -110 OFFCURVE",
"53 -110 QCURVE SMOOTH",
"146 -110 OFFCURVE",
"282 -133 QCURVE",
"288 -131 OFFCURVE",
"288 -117 QCURVE SMOOTH",
"288 -97 OFFCURVE",
"278 -92 QCURVE SMOOTH",
"252 -79 OFFCURVE",
"182 -60 OFFCURVE",
"165 -60 QCURVE SMOOTH",
"157 -60 OFFCURVE",
"157 -52 QCURVE SMOOTH",
"157 711 LINE SMOOTH",
"157 720 OFFCURVE",
"166 720 QCURVE SMOOTH",
"185 720 OFFCURVE",
"255 740 OFFCURVE",
"278 752 QCURVE SMOOTH",
"288 757 OFFCURVE",
"288 778 QCURVE SMOOTH",
"288 793 OFFCURVE",
"282 793 QCURVE",
"164 770 OFFCURVE",
"53 770 QCURVE SMOOTH"
);
}
);
width = 310;
}
);
note = bracketleft;
unicode = 005B;
},
{
glyphname = backslash;
layers = (
{
layerId = "E2E62ECD-1E64-44AC-9B50-C09427155398";
paths = (
{
closed = 1;
nodes = (
"391 7 OFFCURVE",
"388 13 QCURVE",
"101 739 LINE",
"91 761 OFFCURVE",
"42 761 QCURVE SMOOTH",
"28 761 OFFCURVE",
"21 755 QCURVE",
"334 -37 LINE",
"358 -39 LINE",
"368 -39 OFFCURVE",
"391 -24 OFFCURVE",
"391 -6 QCURVE SMOOTH"
);
}
);
width = 413;
}
);
note = backslash;
unicode = 005C;
},
{
glyphname = bracketright;
layers = (
{
layerId = "E2E62ECD-1E64-44AC-9B50-C09427155398";
paths = (
{
closed = 1;
nodes = (
"21 -131 OFFCURVE",
"27 -133 QCURVE",
"163 -110 OFFCURVE",
"256 -110 QCURVE SMOOTH",
"275 -110 OFFCURVE",
"275 -87 QCURVE SMOOTH",
"275 747 LINE SMOOTH",
"275 770 OFFCURVE",
"256 770 QCURVE SMOOTH",
"145 770 OFFCURVE",
"27 793 QCURVE",
"21 793 OFFCURVE",
"21 778 QCURVE SMOOTH",
"21 757 OFFCURVE",
"31 752 QCURVE SMOOTH",
"54 740 OFFCURVE",
"124 720 OFFCURVE",
"143 720 QCURVE SMOOTH",
"152 720 OFFCURVE",
"152 711 QCURVE SMOOTH",
"152 -52 LINE SMOOTH",
"152 -60 OFFCURVE",
"144 -60 QCURVE SMOOTH",
"127 -60 OFFCURVE",
"57 -79 OFFCURVE",
"31 -92 QCURVE SMOOTH",
"21 -97 OFFCURVE",
"21 -117 QCURVE SMOOTH"
);
}
);
width = 310;
}
);
note = bracketright;
unicode = 005D;
},
{
glyphname = asciicircum;
layers = (
{
layerId = "E2E62ECD-1E64-44AC-9B50-C09427155398";
paths = (
{
closed = 1;
nodes = (
"352 469 OFFCURVE",
"360 494 OFFCURVE",
"360 500 QCURVE",
"359 502 OFFCURVE",
"328 533 OFFCURVE",
"288 575 OFFCURVE",
"278 588 QCURVE SMOOTH",
"259 614 OFFCURVE",
"231 660 OFFCURVE",
"223 679 OFFCURVE",
"212 690 OFFCURVE",
"203 690 QCURVE SMOOTH",
"200 690 OFFCURVE",
"197 688 OFFCURVE",
"196 686 OFFCURVE",
"194 679 OFFCURVE",
"193 677 QCURVE SMOOTH",
"171 629 OFFCURVE",
"105 547 OFFCURVE",
"57 502 OFFCURVE",
"56 499 QCURVE",
"57 492 LINE SMOOTH",
"58 484 OFFCURVE",
"65 469 OFFCURVE",
"69 469 QCURVE SMOOTH",
"83 469 OFFCURVE",
"176 542 OFFCURVE",
"207 582 QCURVE",
"241 542 OFFCURVE",
"334 469 OFFCURVE",
"347 469 QCURVE SMOOTH"
);
}
);
width = 388;
}
);
note = asciicircum;
unicode = 005E;
},
{
glyphname = underscore;
layers = (
{
layerId = "E2E62ECD-1E64-44AC-9B50-C09427155398";
paths = (
{
closed = 1;
nodes = (
"30 -43 OFFCURVE",
"37 -43 QCURVE SMOOTH",
"482 -43 LINE",
"483 -43 LINE SMOOTH",
"484 -43 OFFCURVE",
"487 -40 OFFCURVE",
"488 -37 QCURVE",
"498 0 OFFCURVE",
"498 8 QCURVE SMOOTH",
"498 13 OFFCURVE",
"494 13 QCURVE SMOOTH",
"45 13 LINE SMOOTH",
"35 13 OFFCURVE",
"30 -33 QCURVE"
);
}
);
width = 529;
}
);
note = underscore;
unicode = 005F;
},
{
glyphname = grave;
layers = (
{
layerId = "E2E62ECD-1E64-44AC-9B50-C09427155398";
paths = (
{
closed = 1;
nodes = (
"42 633 OFFCURVE",
"185 522 OFFCURVE",
"198 522 QCURVE SMOOTH",
"203 522 OFFCURVE",
"215 535 OFFCURVE",
"215 540 QCURVE SMOOTH",
"215 543 OFFCURVE",
"185 592 OFFCURVE",
"139 658 OFFCURVE",
"122 678 QCURVE",
"113 687 OFFCURVE",
"88 687 QCURVE SMOOTH",
"65 687 OFFCURVE",
"42 667 OFFCURVE",
"42 658 QCURVE SMOOTH"
);
}
);
width = 247;
}
);
note = grave;
unicode = 0060;
},
{
glyphname = a;
layers = (
{
layerId = "E2E62ECD-1E64-44AC-9B50-C09427155398";
paths = (
{
closed = 1;
nodes = (
"189 65 OFFCURVE",
"158 97 OFFCURVE",
"158 133 QCURVE SMOOTH",
"158 143 OFFCURVE",
"164 159 OFFCURVE",
"180 173 OFFCURVE",
"191 182 OFFCURVE",
"219 193 OFFCURVE",
"229 197 OFFCURVE",
"264 208 OFFCURVE",
"266 209 QCURVE",
"266 108 LINE SMOOTH",
"266 90 OFFCURVE",
"237 65 OFFCURVE",
"211 65 QCURVE SMOOTH"
);
},
{
closed = 1;
nodes = (
"172 449 OFFCURVE",
"37 364 OFFCURVE",
"37 313 QCURVE",
"54 283 OFFCURVE",
"100 283 QCURVE SMOOTH",
"122 283 OFFCURVE",
"158 304 OFFCURVE",
"158 326 QCURVE SMOOTH",
"158 393 OFFCURVE",
"216 393 QCURVE SMOOTH",
"266 393 OFFCURVE",
"266 311 QCURVE SMOOTH",
"266 275 LINE SMOOTH",
"266 263 OFFCURVE",
"257 260 QCURVE SMOOTH",
"245 256 OFFCURVE",
"182 239 OFFCURVE",
"142 226 OFFCURVE",
"86 201 OFFCURVE",
"53 172 OFFCURVE",
"28 127 OFFCURVE",
"28 100 QCURVE SMOOTH",
"28 54 OFFCURVE",
"93 -7 OFFCURVE",
"148 -7 QCURVE SMOOTH",
"168 -7 OFFCURVE",
"208 3 OFFCURVE",
"237 17 OFFCURVE",
"259 31 OFFCURVE",
"273 42 OFFCURVE",
"274 42 QCURVE",
"281 23 OFFCURVE",
"325 -6 OFFCURVE",
"349 -6 QCURVE SMOOTH",
"377 -6 OFFCURVE",
"440 23 OFFCURVE",
"454 36 QCURVE",
"461 48 OFFCURVE",
"461 73 QCURVE SMOOTH",
"461 84 OFFCURVE",
"454 88 QCURVE",
"437 75 OFFCURVE",
"420 75 QCURVE SMOOTH",
"396 75 OFFCURVE",
"396 109 QCURVE SMOOTH",
"396 271 LINE SMOOTH",
"396 372 OFFCURVE",
"321 449 OFFCURVE",
"251 449 QCURVE SMOOTH"
);
}
);
width = 486;
}
);
note = a;
unicode = 0061;
},
{
glyphname = b;
layers = (
{
layerId = "E2E62ECD-1E64-44AC-9B50-C09427155398";
paths = (
{
closed = 1;
nodes = (
"269 447 OFFCURVE",
"233 418 QCURVE",
"231 417 OFFCURVE",
"228 417 OFFCURVE",
"227 424 OFFCURVE",
"227 428 OFFCURVE",
"227 431 QCURVE SMOOTH",
"227 577 LINE SMOOTH",
"227 633 OFFCURVE",
"238 678 QCURVE",
"237 683 OFFCURVE",
"229 695 OFFCURVE",
"225 695 QCURVE SMOOTH",
"223 695 LINE",
"213 692 LINE SMOOTH",
"203 689 OFFCURVE",
"168 679 OFFCURVE",
"124 669 OFFCURVE",
"61 659 OFFCURVE",
"30 656 QCURVE",
"24 656 OFFCURVE",
"24 639 QCURVE SMOOTH",
"24 619 OFFCURVE",
"30 619 QCURVE SMOOTH",
"39 619 LINE SMOOTH",
"86 619 OFFCURVE",
"91 603 QCURVE",
"97 573 OFFCURVE",
"97 531 QCURVE SMOOTH",
"97 128 LINE SMOOTH",
"97 99 OFFCURVE",
"93 48 OFFCURVE",
"89 18 OFFCURVE",
"89 15 QCURVE SMOOTH",
"89 10 OFFCURVE",
"118 -9 OFFCURVE",
"124 -9 OFFCURVE",
"166 10 OFFCURVE",
"176 10 QCURVE SMOOTH",
"202 10 OFFCURVE",
"258 -8 OFFCURVE",
"305 -8 QCURVE SMOOTH",
"403 -8 OFFCURVE",
"540 126 OFFCURVE",
"540 226 QCURVE SMOOTH",
"540 318 OFFCURVE",
"410 447 OFFCURVE",
"320 447 QCURVE SMOOTH"
);
},
{
closed = 1;
nodes = (
"396 386 OFFCURVE",
"396 193 QCURVE SMOOTH",
"396 127 OFFCURVE",
"353 46 OFFCURVE",
"308 46 QCURVE SMOOTH",
"273 46 OFFCURVE",
"227 89 OFFCURVE",
"227 129 QCURVE SMOOTH",
"227 318 LINE SMOOTH",
"227 342 OFFCURVE",
"270 386 OFFCURVE",
"309 386 QCURVE SMOOTH"
);
}
);
width = 564;
}
);
note = b;
unicode = 0062;
},
{
glyphname = c;
layers = (
{
layerId = "E2E62ECD-1E64-44AC-9B50-C09427155398";
paths = (
{
closed = 1;
nodes = (
"165 447 OFFCURVE",
"26 318 OFFCURVE",
"26 226 QCURVE SMOOTH",
"26 128 OFFCURVE",
"156 -7 OFFCURVE",
"252 -7 QCURVE SMOOTH",
"314 -7 OFFCURVE",
"413 58 OFFCURVE",
"423 83 QCURVE",
"427 91 OFFCURVE",
"427 103 QCURVE SMOOTH",
"427 118 OFFCURVE",
"418 122 QCURVE",
"398 107 OFFCURVE",
"374 92 OFFCURVE",
"314 73 OFFCURVE",
"281 73 QCURVE SMOOTH",
"168 73 OFFCURVE",
"168 242 QCURVE SMOOTH",
"168 392 OFFCURVE",
"248 392 QCURVE SMOOTH",
"272 392 OFFCURVE",
"299 369 OFFCURVE",
"308 346 QCURVE SMOOTH",
"328 296 OFFCURVE",
"367 296 QCURVE SMOOTH",
"421 296 OFFCURVE",
"421 388 QCURVE",
"413 398 OFFCURVE",
"383 421 OFFCURVE",
"308 447 OFFCURVE",
"265 447 QCURVE SMOOTH"
);
}
);
width = 462;
}
);
note = c;
unicode = 0063;
},
{
glyphname = d;
layers = (
{
layerId = "E2E62ECD-1E64-44AC-9B50-C09427155398";
paths = (
{
closed = 1;
nodes = (
"278 393 OFFCURVE",
"313 372 OFFCURVE",
"327 338 OFFCURVE",
"331 316 OFFCURVE",
"331 304 QCURVE SMOOTH",
"331 122 LINE SMOOTH",
"331 94 OFFCURVE",
"286 55 OFFCURVE",
"252 55 QCURVE SMOOTH",
"162 55 OFFCURVE",
"162 236 QCURVE SMOOTH",
"162 318 OFFCURVE",
"205 393 OFFCURVE",
"252 393 QCURVE SMOOTH"
);
},
{
closed = 1;
nodes = (
"155 447 OFFCURVE",
"18 312 OFFCURVE",
"18 212 QCURVE SMOOTH",
"18 115 OFFCURVE",
"145 -6 OFFCURVE",
"226 -6 QCURVE SMOOTH",
"285 -6 OFFCURVE",
"327 36 QCURVE SMOOTH",
"329 38 OFFCURVE",
"331 36 OFFCURVE",
"331 32 QCURVE SMOOTH",
"331 11 LINE SMOOTH",
"331 -6 OFFCURVE",
"337 -6 QCURVE",
"352 -4 LINE",
"366 -1 OFFCURVE",
"410 6 OFFCURVE",
"459 13 OFFCURVE",
"508 19 OFFCURVE",
"523 20 QCURVE",
"529 20 OFFCURVE",
"529 45 QCURVE SMOOTH",
"529 56 OFFCURVE",
"526 57 QCURVE",
"516 58 LINE",
"507 58 OFFCURVE",
"487 60 OFFCURVE",
"469 68 OFFCURVE",
"467 75 QCURVE",
"461 104 OFFCURVE",
"461 147 QCURVE SMOOTH",
"461 577 LINE SMOOTH",
"461 633 OFFCURVE",
"472 678 QCURVE",
"471 683 OFFCURVE",
"463 695 OFFCURVE",
"459 695 QCURVE SMOOTH",
"457 695 LINE",
"447 692 LINE SMOOTH",
"437 689 OFFCURVE",
"402 679 OFFCURVE",
"358 669 OFFCURVE",
"295 659 OFFCURVE",
"264 656 QCURVE",
"258 656 OFFCURVE",
"258 639 QCURVE SMOOTH",
"258 619 OFFCURVE",
"264 619 QCURVE SMOOTH",
"273 619 LINE SMOOTH",
"320 619 OFFCURVE",
"325 603 QCURVE",
"331 573 OFFCURVE",
"331 531 QCURVE SMOOTH",
"331 452 LINE SMOOTH",
"331 438 OFFCURVE",
"328 438 QCURVE",
"299 447 OFFCURVE",
"258 447 QCURVE SMOOTH"
);
}
);
width = 554;
}
);
note = d;
unicode = 0064;
},
{
glyphname = e;
layers = (
{
layerId = "E2E62ECD-1E64-44AC-9B50-C09427155398";
paths = (
{
closed = 1;
nodes = (
"270 392 OFFCURVE",
"311 332 OFFCURVE",
"311 294 QCURVE SMOOTH",
"311 275 OFFCURVE",
"297 275 QCURVE SMOOTH",
"170 275 LINE SMOOTH",
"163 275 OFFCURVE",
"163 281 QCURVE SMOOTH",
"163 317 OFFCURVE",
"199 392 OFFCURVE",
"238 392 QCURVE SMOOTH"
);
},
{
closed = 1;
nodes = (
"146 447 OFFCURVE",
"26 317 OFFCURVE",
"26 221 QCURVE SMOOTH",
"26 127 OFFCURVE",
"159 -7 OFFCURVE",
"251 -7 QCURVE SMOOTH",
"313 -7 OFFCURVE",
"413 59 OFFCURVE",
"423 83 QCURVE",
"427 91 OFFCURVE",
"427 103 QCURVE SMOOTH",
"427 118 OFFCURVE",
"418 122 QCURVE",
"398 107 OFFCURVE",
"374 92 OFFCURVE",
"314 73 OFFCURVE",
"281 73 QCURVE SMOOTH",
"224 73 OFFCURVE",
"163 159 OFFCURVE",
"163 213 QCURVE SMOOTH",
"163 220 OFFCURVE",
"169 220 QCURVE SMOOTH",
"395 220 LINE SMOOTH",
"423 220 OFFCURVE",
"442 234 OFFCURVE",
"442 257 QCURVE SMOOTH",
"442 322 OFFCURVE",
"333 447 OFFCURVE",
"243 447 QCURVE SMOOTH"
);
}
);
width = 462;
}
);
note = e;
unicode = 0065;
},
{
glyphname = f;
layers = (
{
layerId = "E2E62ECD-1E64-44AC-9B50-C09427155398";
paths = (
{
closed = 1;
nodes = (
"241 695 OFFCURVE",
"114 547 OFFCURVE",
"114 443 QCURVE SMOOTH",
"114 436 LINE SMOOTH",
"114 430 OFFCURVE",
"109 430 QCURVE SMOOTH",
"81 430 LINE SMOOTH",
"64 430 OFFCURVE",
"39 389 OFFCURVE",
"39 376 QCURVE SMOOTH",
"39 370 OFFCURVE",
"42 370 QCURVE SMOOTH",
"109 370 LINE SMOOTH",
"114 370 OFFCURVE",
"114 363 QCURVE SMOOTH",
"114 134 LINE SMOOTH",
"114 88 OFFCURVE",
"107 58 QCURVE",
"105 51 OFFCURVE",
"53 33 OFFCURVE",
"42 33 QCURVE SMOOTH",
"38 33 OFFCURVE",
"38 0 OFFCURVE",
"42 -4 QCURVE",
"53 -3 OFFCURVE",
"155 4 OFFCURVE",
"179 4 QCURVE SMOOTH",
"202 4 OFFCURVE",
"305 -3 OFFCURVE",
"316 -4 QCURVE",
"318 0 OFFCURVE",
"317 33 OFFCURVE",
"314 33 QCURVE SMOOTH",
"305 33 OFFCURVE",
"253 51 OFFCURVE",
"251 58 QCURVE SMOOTH",
"244 85 OFFCURVE",
"244 149 QCURVE SMOOTH",
"244 364 LINE SMOOTH",
"244 370 OFFCURVE",
"250 370 QCURVE SMOOTH",
"353 370 LINE",
"365 394 OFFCURVE",
"365 422 QCURVE SMOOTH",
"365 429 OFFCURVE",
"360 429 QCURVE SMOOTH",
"249 429 LINE SMOOTH",
"244 429 OFFCURVE",
"244 434 QCURVE SMOOTH",
"244 475 LINE SMOOTH",
"244 542 OFFCURVE",
"274 634 OFFCURVE",
"306 634 QCURVE SMOOTH",
"325 634 OFFCURVE",
"354 600 OFFCURVE",
"385 565 OFFCURVE",
"406 565 QCURVE SMOOTH",
"430 565 OFFCURVE",
"456 600 OFFCURVE",
"456 643 OFFCURVE",
"453 662 QCURVE",
"445 676 OFFCURVE",
"380 696 OFFCURVE",
"336 696 QCURVE SMOOTH"
);
}
);
width = 380;
}
);
note = f;
unicode = 0066;
},
{
glyphname = g;
layers = (
{
layerId = "E2E62ECD-1E64-44AC-9B50-C09427155398";
paths = (
{
closed = 1;
nodes = (
"337 -119 OFFCURVE",
"272 -157 OFFCURVE",
"220 -157 QCURVE SMOOTH",
"181 -157 OFFCURVE",
"118 -116 OFFCURVE",
"118 -86 QCURVE SMOOTH",
"118 -68 OFFCURVE",
"125 -59 QCURVE",
"132 -48 OFFCURVE",
"165 -37 QCURVE",
"166 -37 OFFCURVE",
"169 -36 QCURVE",
"337 -36 OFFCURVE",
"337 -81 QCURVE SMOOTH"
);
},
{
closed = 1;
nodes = (
"165 296 OFFCURVE",
"165 299 QCURVE SMOOTH",
"165 319 OFFCURVE",
"167 342 OFFCURVE",
"175 378 OFFCURVE",
"198 396 OFFCURVE",
"216 396 QCURVE SMOOTH",
"252 396 OFFCURVE",
"276 332 OFFCURVE",
"276 268 QCURVE SMOOTH",
"276 246 OFFCURVE",
"273 219 OFFCURVE",
"264 187 OFFCURVE",
"241 172 OFFCURVE",
"203 172 OFFCURVE",
"179 192 OFFCURVE",
"169 231 OFFCURVE",
"165 268 OFFCURVE",
"165 294 QCURVE SMOOTH"
);
},
{
closed = 1;
nodes = (
"145 449 OFFCURVE",
"36 364 OFFCURVE",
"36 282 QCURVE SMOOTH",
"36 239 OFFCURVE",
"84 158 OFFCURVE",
"113 142 QCURVE",
"95 132 OFFCURVE",
"82 124 OFFCURVE",
"51 101 OFFCURVE",
"37 77 OFFCURVE",
"37 64 QCURVE SMOOTH",
"37 35 OFFCURVE",
"79 -14 OFFCURVE",
"105 -25 QCURVE",
"70 -36 OFFCURVE",
"23 -86 OFFCURVE",
"23 -108 QCURVE SMOOTH",
"23 -158 OFFCURVE",
"127 -218 OFFCURVE",
"203 -218 QCURVE SMOOTH",
"294 -218 OFFCURVE",
"454 -109 OFFCURVE",
"453 -36 QCURVE SMOOTH",
"452 61 OFFCURVE",
"292 69 QCURVE",
"284 69 OFFCURVE",
"226 71 OFFCURVE",
"195 74 OFFCURVE",
"154 79 OFFCURVE",
"134 88 OFFCURVE",
"134 102 OFFCURVE",
"146 121 OFFCURVE",
"158 125 QCURVE",
"186 120 OFFCURVE",
"226 120 QCURVE SMOOTH",
"303 120 OFFCURVE",
"405 224 OFFCURVE",
"405 287 QCURVE SMOOTH",
"405 310 OFFCURVE",
"390 363 OFFCURVE",
"390 364 QCURVE SMOOTH",
"390 366 OFFCURVE",
"394 367 QCURVE",
"453 367 LINE SMOOTH",
"459 367 OFFCURVE",
"459 381 QCURVE SMOOTH",
"459 388 OFFCURVE",
"443 422 OFFCURVE",
"440 423 QCURVE",
"385 423 LINE SMOOTH",
"356 423 OFFCURVE",
"259 449 OFFCURVE",
"223 449 QCURVE SMOOTH"
);
}
);
width = 485;
}
);
note = g;
unicode = 0067;
},
{
glyphname = h;
layers = (
{
layerId = "E2E62ECD-1E64-44AC-9B50-C09427155398";
paths = (
{
closed = 1;
nodes = (
"343 446 OFFCURVE",
"263 413 OFFCURVE",
"241 388 QCURVE",
"237 384 OFFCURVE",
"236 384 QCURVE SMOOTH",
"232 384 OFFCURVE",
"232 391 QCURVE SMOOTH",
"232 577 LINE SMOOTH",
"232 633 OFFCURVE",
"244 678 QCURVE",
"243 683 OFFCURVE",
"235 695 OFFCURVE",
"231 695 QCURVE SMOOTH",
"229 695 LINE",
"219 692 LINE SMOOTH",
"209 689 OFFCURVE",
"174 679 OFFCURVE",
"130 669 OFFCURVE",
"67 659 OFFCURVE",
"36 656 QCURVE",
"30 656 OFFCURVE",
"30 639 QCURVE SMOOTH",
"30 619 OFFCURVE",
"36 619 QCURVE SMOOTH",
"45 619 LINE SMOOTH",
"92 619 OFFCURVE",
"97 603 QCURVE",
"102 578 OFFCURVE",
"102 531 QCURVE SMOOTH",
"102 134 LINE SMOOTH",
"102 88 OFFCURVE",
"95 58 QCURVE",
"93 51 OFFCURVE",
"41 33 OFFCURVE",
"30 33 QCURVE SMOOTH",
"26 33 OFFCURVE",
"26 0 OFFCURVE",
"30 -4 QCURVE",
"41 -3 OFFCURVE",
"143 4 OFFCURVE",
"167 4 QCURVE SMOOTH",
"190 4 OFFCURVE",
"288 -3 OFFCURVE",
"300 -4 QCURVE",
"302 0 OFFCURVE",
"301 33 OFFCURVE",
"298 33 QCURVE SMOOTH",
"290 33 OFFCURVE",
"241 51 OFFCURVE",
"239 58 QCURVE SMOOTH",
"232 85 OFFCURVE",
"232 149 QCURVE SMOOTH",
"232 317 LINE SMOOTH",
"232 361 OFFCURVE",
"302 361 QCURVE SMOOTH",
"347 361 OFFCURVE",
"387 298 OFFCURVE",
"387 224 QCURVE SMOOTH",
"387 134 LINE SMOOTH",
"387 88 OFFCURVE",
"380 58 QCURVE",
"378 51 OFFCURVE",
"330 33 OFFCURVE",
"319 33 QCURVE SMOOTH",
"315 33 OFFCURVE",
"315 0 OFFCURVE",
"319 -4 QCURVE",
"331 -3 OFFCURVE",
"428 4 OFFCURVE",
"452 4 QCURVE SMOOTH",
"475 4 OFFCURVE",
"578 -3 OFFCURVE",
"589 -4 QCURVE",
"591 0 OFFCURVE",
"590 33 OFFCURVE",
"587 33 QCURVE SMOOTH",
"578 33 OFFCURVE",
"526 51 OFFCURVE",
"524 58 QCURVE SMOOTH",
"517 85 OFFCURVE",
"517 149 QCURVE SMOOTH",
"517 248 LINE SMOOTH",
"517 348 OFFCURVE",
"444 446 OFFCURVE",
"386 446 QCURVE SMOOTH"
);
}
);
width = 622;
}
);
note = h;
unicode = 0068;
},
{
glyphname = i;
layers = (
{
layerId = "E2E62ECD-1E64-44AC-9B50-C09427155398";
paths = (
{
closed = 1;
nodes = (
"189 542 OFFCURVE",
"232 585 OFFCURVE",
"232 647 OFFCURVE",
"189 690 OFFCURVE",
"128 690 OFFCURVE",
"84 647 OFFCURVE",
"84 585 OFFCURVE",
"128 542 OFFCURVE"
);
},
{
closed = 1;
nodes = (
"232 326 LINE SMOOTH",
"232 341 OFFCURVE",
"236 374 OFFCURVE",
"242 418 OFFCURVE",
"243 426 QCURVE",
"243 430 OFFCURVE",
"234 443 OFFCURVE",
"228 443 QCURVE SMOOTH",
"228 443 OFFCURVE",
"218 440 OFFCURVE",
"217 440 QCURVE",
"189 431 OFFCURVE",
"54 404 OFFCURVE",
"34 404 QCURVE SMOOTH",
"29 404 OFFCURVE",
"29 369 QCURVE SMOOTH",
"29 368 OFFCURVE",
"50 364 OFFCURVE",
"77 354 OFFCURVE",
"84 346 QCURVE",
"102 327 OFFCURVE",
"102 271 QCURVE SMOOTH",
"102 134 LINE SMOOTH",
"102 88 OFFCURVE",
"95 58 QCURVE",
"93 51 OFFCURVE",
"42 33 OFFCURVE",
"30 33 QCURVE SMOOTH",
"27 33 OFFCURVE",
"27 0 OFFCURVE",
"30 -4 QCURVE",
"42 -3 OFFCURVE",
"143 4 OFFCURVE",
"167 4 QCURVE SMOOTH",
"190 4 OFFCURVE",
"294 -3 OFFCURVE",
"304 -4 QCURVE",
"306 0 OFFCURVE",
"306 33 OFFCURVE",
"302 33 QCURVE SMOOTH",
"294 33 OFFCURVE",
"241 51 OFFCURVE",
"239 58 QCURVE SMOOTH",
"232 85 OFFCURVE",
"232 149 QCURVE SMOOTH"
);
}
);
width = 326;
}
);
note = i;
unicode = 0069;
},
{
glyphname = j;
layers = (
{
layerId = "E2E62ECD-1E64-44AC-9B50-C09427155398";
paths = (
{
closed = 1;
nodes = (
"126 100 LINE SMOOTH",
"126 31 OFFCURVE",
"104 -78 OFFCURVE",
"80 -133 OFFCURVE",
"42 -175 OFFCURVE",
"32 -180 OFFCURVE",
"24 -184 QCURVE",
"23 -185 OFFCURVE",
"23 -194 QCURVE SMOOTH",
"23 -209 OFFCURVE",
"39 -218 QCURVE",
"63 -218 OFFCURVE",
"184 -140 OFFCURVE",
"208 -102 QCURVE SMOOTH",
"256 -27 OFFCURVE",
"256 120 QCURVE SMOOTH",
"256 326 LINE SMOOTH",
"256 341 OFFCURVE",
"260 375 OFFCURVE",
"267 416 OFFCURVE",
"268 426 QCURVE",
"268 430 OFFCURVE",
"258 443 OFFCURVE",
"252 443 QCURVE",
"247 442 LINE",
"242 440 LINE",
"214 431 OFFCURVE",
"77 404 OFFCURVE",
"58 404 QCURVE SMOOTH",
"54 404 OFFCURVE",
"54 369 QCURVE SMOOTH",
"54 368 OFFCURVE",
"74 364 OFFCURVE",
"101 354 OFFCURVE",
"108 346 QCURVE",
"126 327 OFFCURVE",
"126 271 QCURVE SMOOTH"
);
},
{
closed = 1;
nodes = (
"214 542 OFFCURVE",
"257 585 OFFCURVE",
"257 647 OFFCURVE",
"214 690 OFFCURVE",
"152 690 OFFCURVE",
"109 647 OFFCURVE",
"109 585 OFFCURVE",
"152 542 OFFCURVE"
);
}
);
width = 294;
}
);
note = j;
unicode = 006A;
},
{
glyphname = k;
layers = (
{
layerId = "E2E62ECD-1E64-44AC-9B50-C09427155398";
paths = (
{
closed = 1;
nodes = (
"528 405 OFFCURVE",
"559 405 QCURVE SMOOTH",
"561 405 OFFCURVE",
"563 421 OFFCURVE",
"562 440 OFFCURVE",
"558 442 QCURVE",
"513 440 OFFCURVE",
"454 440 QCURVE SMOOTH",
"412 440 OFFCURVE",
"340 441 QCURVE",
"336 440 OFFCURVE",
"336 412 OFFCURVE",
"338 405 QCURVE",
"340 404 OFFCURVE",
"364 403 OFFCURVE",
"384 397 OFFCURVE",
"384 388 QCURVE SMOOTH",
"384 384 OFFCURVE",
"381 375 OFFCURVE",
"371 364 OFFCURVE",
"361 353 OFFCURVE",
"338 334 OFFCURVE",
"319 317 OFFCURVE",
"282 286 OFFCURVE",
"266 272 QCURVE SMOOTH",
"259 266 OFFCURVE",
"232 259 QCURVE",
"232 577 LINE SMOOTH",
"232 633 OFFCURVE",
"244 678 QCURVE",
"243 683 OFFCURVE",
"235 695 OFFCURVE",
"231 695 QCURVE SMOOTH",
"229 695 LINE",
"219 692 LINE SMOOTH",
"209 689 OFFCURVE",
"174 679 OFFCURVE",
"130 669 OFFCURVE",
"67 659 OFFCURVE",
"36 656 QCURVE",
"30 656 OFFCURVE",
"30 639 QCURVE SMOOTH",
"30 619 OFFCURVE",
"36 619 QCURVE SMOOTH",
"45 619 LINE SMOOTH",
"92 619 OFFCURVE",
"97 603 QCURVE",
"102 578 OFFCURVE",
"102 531 QCURVE SMOOTH",
"102 134 LINE SMOOTH",
"102 88 OFFCURVE",
"95 58 QCURVE",
"93 51 OFFCURVE",
"41 33 OFFCURVE",
"30 33 QCURVE SMOOTH",
"26 33 OFFCURVE",
"26 0 OFFCURVE",
"30 -4 QCURVE",
"41 -3 OFFCURVE",
"143 4 OFFCURVE",
"167 4 QCURVE SMOOTH",
"190 4 OFFCURVE",
"293 -3 OFFCURVE",
"304 -4 QCURVE",
"306 0 OFFCURVE",
"305 33 OFFCURVE",
"302 33 QCURVE SMOOTH",
"293 33 OFFCURVE",
"241 51 OFFCURVE",
"239 58 QCURVE SMOOTH",
"232 85 OFFCURVE",
"232 149 QCURVE SMOOTH",
"232 213 LINE",
"243 216 LINE",
"389 49 LINE",
"390 48 OFFCURVE",
"390 46 QCURVE SMOOTH",
"390 41 OFFCURVE",
"364 33 OFFCURVE",
"354 33 QCURVE SMOOTH",
"350 33 OFFCURVE",
"350 0 OFFCURVE",
"354 -4 QCURVE",
"359 -4 OFFCURVE",
"463 3 OFFCURVE",
"487 3 QCURVE SMOOTH",
"493 3 OFFCURVE",
"613 -3 QCURVE",
"615 1 OFFCURVE",
"615 14 QCURVE SMOOTH",
"615 33 OFFCURVE",
"610 33 QCURVE SMOOTH",
"601 33 OFFCURVE",
"559 48 OFFCURVE",
"546 59 QCURVE",
"534 68 OFFCURVE",
"473 136 OFFCURVE",
"381 242 OFFCURVE",
"352 273 QCURVE",
"418 341 OFFCURVE",
"489 382 QCURVE SMOOTH"
);
}
);
width = 646;
}
);
note = k;
unicode = 006B;
},
{
glyphname = l;
layers = (
{
layerId = "E2E62ECD-1E64-44AC-9B50-C09427155398";
paths = (
{
closed = 1;
nodes = (
"102 134 LINE SMOOTH",
"102 88 OFFCURVE",
"95 58 QCURVE",
"93 51 OFFCURVE",
"41 33 OFFCURVE",
"30 33 QCURVE SMOOTH",
"26 33 OFFCURVE",
"26 0 OFFCURVE",
"30 -4 QCURVE",
"41 -3 OFFCURVE",
"143 4 OFFCURVE",
"167 4 QCURVE SMOOTH",
"190 4 OFFCURVE",
"293 -3 OFFCURVE",
"304 -4 QCURVE",
"306 0 OFFCURVE",
"305 33 OFFCURVE",
"302 33 QCURVE SMOOTH",
"293 33 OFFCURVE",
"241 51 OFFCURVE",
"239 58 QCURVE SMOOTH",
"232 85 OFFCURVE",
"232 149 QCURVE SMOOTH",
"233 577 LINE SMOOTH",
"233 633 OFFCURVE",
"244 678 QCURVE",
"243 683 OFFCURVE",
"235 695 OFFCURVE",
"231 695 QCURVE SMOOTH",
"229 695 LINE",
"219 692 LINE SMOOTH",
"209 689 OFFCURVE",
"174 679 OFFCURVE",
"130 669 OFFCURVE",
"67 659 OFFCURVE",
"36 656 QCURVE",
"30 656 OFFCURVE",
"30 639 QCURVE SMOOTH",
"30 619 OFFCURVE",
"36 619 QCURVE SMOOTH",
"45 619 LINE SMOOTH",
"92 619 OFFCURVE",
"97 603 QCURVE",
"102 578 OFFCURVE",
"102 531 QCURVE SMOOTH"
);
}
);
width = 334;
}
);
note = l;
unicode = 006C;
},
{
glyphname = m;
layers = (
{
layerId = "E2E62ECD-1E64-44AC-9B50-C09427155398";
paths = (
{
closed = 1;
nodes = (
"304 446 OFFCURVE",
"248 394 QCURVE",
"243 389 OFFCURVE",
"241 389 QCURVE",
"240 390 OFFCURVE",
"240 395 QCURVE SMOOTH",
"240 398 OFFCURVE",
"244 426 QCURVE",
"244 430 OFFCURVE",
"234 443 OFFCURVE",
"229 443 QCURVE",
"227 442 LINE",
"225 442 OFFCURVE",
"220 440 OFFCURVE",
"218 440 QCURVE",
"193 435 OFFCURVE",
"103 415 OFFCURVE",
"47 404 OFFCURVE",
"35 404 QCURVE SMOOTH",
"30 404 OFFCURVE",
"30 369 QCURVE SMOOTH",
"30 368 OFFCURVE",
"50 364 OFFCURVE",
"78 354 OFFCURVE",
"85 346 QCURVE",
"103 327 OFFCURVE",
"103 271 QCURVE SMOOTH",
"103 134 LINE SMOOTH",
"103 88 OFFCURVE",
"96 58 QCURVE",
"94 51 OFFCURVE",
"42 33 OFFCURVE",
"31 33 QCURVE SMOOTH",
"27 33 OFFCURVE",
"27 0 OFFCURVE",
"31 -4 QCURVE",
"42 -3 OFFCURVE",
"144 4 OFFCURVE",
"168 4 QCURVE SMOOTH",
"191 4 OFFCURVE",
"289 -3 OFFCURVE",
"301 -4 QCURVE",
"303 0 OFFCURVE",
"302 33 OFFCURVE",
"299 33 QCURVE SMOOTH",
"291 33 OFFCURVE",
"242 51 OFFCURVE",
"240 58 QCURVE SMOOTH",
"233 85 OFFCURVE",
"233 149 QCURVE SMOOTH",
"233 317 LINE SMOOTH",
"233 338 OFFCURVE",
"271 361 OFFCURVE",
"302 361 QCURVE SMOOTH",
"347 361 OFFCURVE",
"388 298 OFFCURVE",
"388 224 QCURVE SMOOTH",
"388 134 LINE SMOOTH",
"388 88 OFFCURVE",
"381 58 QCURVE",
"379 51 OFFCURVE",
"329 33 OFFCURVE",
"318 33 QCURVE SMOOTH",
"314 33 OFFCURVE",
"314 0 OFFCURVE",
"318 -4 QCURVE",
"330 -3 OFFCURVE",
"429 4 OFFCURVE",
"453 4 QCURVE SMOOTH",
"476 4 OFFCURVE",
"577 -3 OFFCURVE",
"588 -4 QCURVE",
"590 0 OFFCURVE",
"589 33 OFFCURVE",
"586 33 QCURVE SMOOTH",
"577 33 OFFCURVE",
"527 51 OFFCURVE",
"525 58 QCURVE SMOOTH",
"518 85 OFFCURVE",
"518 149 QCURVE SMOOTH",
"518 248 LINE SMOOTH",
"518 284 OFFCURVE",
"516 302 QCURVE SMOOTH",
"515 315 OFFCURVE",
"518 323 QCURVE SMOOTH",
"532 361 OFFCURVE",
"588 361 QCURVE SMOOTH",
"633 361 OFFCURVE",
"674 293 OFFCURVE",
"674 224 QCURVE SMOOTH",
"674 134 LINE SMOOTH",
"674 88 OFFCURVE",
"667 58 QCURVE",
"665 51 OFFCURVE",
"615 33 OFFCURVE",
"604 33 QCURVE SMOOTH",
"600 33 OFFCURVE",
"600 0 OFFCURVE",
"604 -4 QCURVE",
"616 -3 OFFCURVE",
"715 4 OFFCURVE",
"739 4 QCURVE SMOOTH",
"762 4 OFFCURVE",
"863 -3 OFFCURVE",
"874 -4 QCURVE",
"876 0 OFFCURVE",
"875 33 OFFCURVE",
"872 33 QCURVE SMOOTH",
"863 33 OFFCURVE",
"813 51 OFFCURVE",
"811 58 QCURVE SMOOTH",
"804 85 OFFCURVE",
"804 149 QCURVE SMOOTH",
"804 248 LINE SMOOTH",
"804 348 OFFCURVE",
"731 446 OFFCURVE",
"673 446 QCURVE SMOOTH",
"555 445 OFFCURVE",
"493 377 QCURVE",
"459 446 OFFCURVE",
"387 446 QCURVE SMOOTH"
);
}
);
width = 888;
}
);
note = m;
unicode = 006D;
},
{
glyphname = n;
layers = (
{
layerId = "E2E62ECD-1E64-44AC-9B50-C09427155398";
paths = (
{
closed = 1;
nodes = (
"304 446 OFFCURVE",
"248 394 QCURVE",
"243 389 OFFCURVE",
"241 389 QCURVE",
"240 390 OFFCURVE",
"240 395 QCURVE SMOOTH",
"240 398 OFFCURVE",
"244 426 QCURVE",
"244 430 OFFCURVE",
"234 443 OFFCURVE",
"229 443 QCURVE",
"227 442 LINE",
"225 442 OFFCURVE",
"220 440 OFFCURVE",
"218 440 QCURVE",
"193 435 OFFCURVE",
"103 415 OFFCURVE",
"47 404 OFFCURVE",
"35 404 QCURVE SMOOTH",
"30 404 OFFCURVE",
"30 369 QCURVE SMOOTH",
"30 368 OFFCURVE",
"50 364 OFFCURVE",
"78 354 OFFCURVE",
"85 346 QCURVE",
"103 327 OFFCURVE",
"103 271 QCURVE SMOOTH",
"103 134 LINE SMOOTH",
"103 88 OFFCURVE",
"96 58 QCURVE",
"94 51 OFFCURVE",
"42 33 OFFCURVE",
"31 33 QCURVE SMOOTH",
"27 33 OFFCURVE",
"27 0 OFFCURVE",
"31 -4 QCURVE",
"42 -3 OFFCURVE",
"144 4 OFFCURVE",
"168 4 QCURVE SMOOTH",
"191 4 OFFCURVE",
"289 -3 OFFCURVE",
"301 -4 QCURVE",
"303 0 OFFCURVE",
"302 33 OFFCURVE",
"299 33 QCURVE SMOOTH",
"291 33 OFFCURVE",
"242 51 OFFCURVE",
"240 58 QCURVE SMOOTH",
"233 85 OFFCURVE",
"233 149 QCURVE SMOOTH",
"233 317 LINE SMOOTH",
"233 338 OFFCURVE",
"271 361 OFFCURVE",
"302 361 QCURVE SMOOTH",
"347 361 OFFCURVE",
"388 298 OFFCURVE",
"388 224 QCURVE SMOOTH",
"388 134 LINE SMOOTH",
"388 88 OFFCURVE",
"381 58 QCURVE",
"379 51 OFFCURVE",
"331 33 OFFCURVE",
"320 33 QCURVE SMOOTH",
"316 33 OFFCURVE",
"316 0 OFFCURVE",
"320 -4 QCURVE",
"332 -3 OFFCURVE",
"429 4 OFFCURVE",
"453 4 QCURVE SMOOTH",
"476 4 OFFCURVE",
"579 -3 OFFCURVE",
"590 -4 QCURVE",
"592 0 OFFCURVE",
"591 33 OFFCURVE",
"588 33 QCURVE SMOOTH",
"579 33 OFFCURVE",
"527 51 OFFCURVE",
"525 58 QCURVE SMOOTH",
"518 85 OFFCURVE",
"518 149 QCURVE SMOOTH",
"518 248 LINE SMOOTH",
"518 348 OFFCURVE",
"445 446 OFFCURVE",
"387 446 QCURVE SMOOTH"
);
}
);
width = 622;
}
);
note = n;
unicode = 006E;
},
{
glyphname = o;
layers = (
{
layerId = "E2E62ECD-1E64-44AC-9B50-C09427155398";
paths = (
{
closed = 1;
nodes = (
"352 392 OFFCURVE",
"352 185 QCURVE SMOOTH",
"352 130 OFFCURVE",
"313 48 OFFCURVE",
"271 48 QCURVE SMOOTH",
"168 48 OFFCURVE",
"168 251 QCURVE SMOOTH",
"168 287 OFFCURVE",
"180 346 OFFCURVE",
"218 392 OFFCURVE",
"247 392 QCURVE SMOOTH"
);
},
{
closed = 1;
nodes = (
"360 -7 OFFCURVE",
"496 125 OFFCURVE",
"496 315 OFFCURVE",
"359 447 OFFCURVE",
"163 447 OFFCURVE",
"26 315 OFFCURVE",
"26 125 OFFCURVE",
"163 -7 OFFCURVE",
"261 -7 QCURVE SMOOTH"
);
}
);
width = 523;
}
);
note = o;
unicode = 006F;
},
{
glyphname = p;
layers = (
{
layerId = "E2E62ECD-1E64-44AC-9B50-C09427155398";
paths = (
{
closed = 1;
nodes = (
"274 446 OFFCURVE",
"230 412 QCURVE",
"232 424 OFFCURVE",
"232 430 QCURVE SMOOTH",
"232 443 OFFCURVE",
"226 443 QCURVE SMOOTH",
"224 443 OFFCURVE",
"193 433 QCURVE SMOOTH",
"93 404 OFFCURVE",
"32 404 QCURVE SMOOTH",
"27 404 OFFCURVE",
"27 369 QCURVE SMOOTH",
"27 368 OFFCURVE",
"47 364 OFFCURVE",
"75 354 OFFCURVE",
"82 346 QCURVE",
"100 327 OFFCURVE",
"100 271 QCURVE SMOOTH",
"100 -80 LINE SMOOTH",
"100 -126 OFFCURVE",
"93 -156 QCURVE",
"91 -163 OFFCURVE",
"39 -181 OFFCURVE",
"28 -181 QCURVE SMOOTH",
"24 -181 OFFCURVE",
"24 -214 OFFCURVE",
"28 -218 QCURVE",
"39 -217 OFFCURVE",
"141 -210 OFFCURVE",
"165 -210 QCURVE SMOOTH",
"188 -210 OFFCURVE",
"291 -217 OFFCURVE",
"302 -218 QCURVE",
"304 -214 OFFCURVE",
"303 -181 OFFCURVE",
"300 -181 QCURVE SMOOTH",
"291 -181 OFFCURVE",
"239 -163 OFFCURVE",
"237 -156 QCURVE SMOOTH",
"230 -129 OFFCURVE",
"230 -65 QCURVE SMOOTH",
"230 -15 LINE SMOOTH",
"230 1 OFFCURVE",
"234 1 QCURVE SMOOTH",
"235 1 OFFCURVE",
"253 -4 OFFCURVE",
"280 -8 OFFCURVE",
"292 -8 QCURVE SMOOTH",
"400 -8 OFFCURVE",
"542 116 OFFCURVE",
"542 227 QCURVE SMOOTH",
"542 314 OFFCURVE",
"417 446 OFFCURVE",
"322 446 QCURVE SMOOTH"
);
},
{
closed = 1;
nodes = (
"398 388 OFFCURVE",
"398 194 QCURVE SMOOTH",
"398 46 OFFCURVE",
"308 46 QCURVE SMOOTH",
"280 46 OFFCURVE",
"230 87 OFFCURVE",
"230 125 QCURVE SMOOTH",
"230 314 LINE SMOOTH",
"230 346 OFFCURVE",
"272 388 OFFCURVE",
"307 388 QCURVE SMOOTH"
);
}
);
width = 567;
}
);
note = p;
unicode = 0070;
},
{
glyphname = q;
layers = (
{
layerId = "E2E62ECD-1E64-44AC-9B50-C09427155398";
paths = (
{
closed = 1;
nodes = (
"167 447 OFFCURVE",
"28 315 OFFCURVE",
"28 213 QCURVE SMOOTH",
"28 118 OFFCURVE",
"161 -8 OFFCURVE",
"244 -8 QCURVE SMOOTH",
"295 -8 OFFCURVE",
"335 21 QCURVE",
"336 22 OFFCURVE",
"337 22 QCURVE SMOOTH",
"341 22 OFFCURVE",
"341 8 QCURVE SMOOTH",
"341 -80 LINE SMOOTH",
"341 -126 OFFCURVE",
"334 -156 QCURVE",
"332 -163 OFFCURVE",
"280 -181 OFFCURVE",
"269 -181 QCURVE SMOOTH",
"265 -181 OFFCURVE",
"265 -214 OFFCURVE",
"269 -218 QCURVE",
"280 -217 OFFCURVE",
"382 -210 OFFCURVE",
"406 -210 QCURVE SMOOTH",
"429 -210 OFFCURVE",
"532 -217 OFFCURVE",
"543 -218 QCURVE",
"545 -214 OFFCURVE",
"544 -181 OFFCURVE",
"541 -181 QCURVE SMOOTH",
"532 -181 OFFCURVE",
"480 -163 OFFCURVE",
"478 -156 QCURVE SMOOTH",
"471 -129 OFFCURVE",
"471 -65 QCURVE SMOOTH",
"471 307 LINE SMOOTH",
"471 327 OFFCURVE",
"473 366 OFFCURVE",
"476 392 OFFCURVE",
"478 412 OFFCURVE",
"480 423 OFFCURVE",
"480 424 QCURVE SMOOTH",
"480 429 OFFCURVE",
"450 448 OFFCURVE",
"446 448 QCURVE SMOOTH",
"444 448 OFFCURVE",
"403 429 OFFCURVE",
"395 429 QCURVE SMOOTH",
"371 429 OFFCURVE",
"309 447 OFFCURVE",
"266 447 QCURVE SMOOTH"
);
},
{
closed = 1;
nodes = (
"341 393 OFFCURVE",
"341 302 QCURVE SMOOTH",
"341 116 LINE SMOOTH",
"341 90 OFFCURVE",
"294 55 OFFCURVE",
"234 55 OFFCURVE",
"195 89 OFFCURVE",
"178 150 OFFCURVE",
"172 206 OFFCURVE",
"172 244 QCURVE SMOOTH",
"172 393 OFFCURVE",
"259 393 QCURVE SMOOTH"
);
}
);
width = 516;
}
);
note = q;
unicode = 0071;
},
{
glyphname = r;
layers = (
{
layerId = "E2E62ECD-1E64-44AC-9B50-C09427155398";
paths = (
{
closed = 1;
nodes = (
"288 447 OFFCURVE",
"239 382 QCURVE",
"240 386 OFFCURVE",
"242 414 OFFCURVE",
"244 426 QCURVE",
"244 430 OFFCURVE",
"234 443 OFFCURVE",
"229 443 QCURVE SMOOTH",
"228 443 OFFCURVE",
"218 440 QCURVE",
"193 435 OFFCURVE",
"103 415 OFFCURVE",
"47 404 OFFCURVE",
"35 404 QCURVE SMOOTH",
"30 404 OFFCURVE",
"30 369 QCURVE SMOOTH",
"30 368 OFFCURVE",
"50 364 OFFCURVE",
"78 354 OFFCURVE",
"85 346 QCURVE",
"103 327 OFFCURVE",
"103 271 QCURVE SMOOTH",
"103 134 LINE SMOOTH",
"103 88 OFFCURVE",
"96 58 QCURVE",
"94 51 OFFCURVE",
"42 33 OFFCURVE",
"31 33 QCURVE SMOOTH",
"27 33 OFFCURVE",
"27 0 OFFCURVE",
"31 -4 QCURVE",
"42 -3 OFFCURVE",
"144 4 OFFCURVE",
"168 4 QCURVE SMOOTH",
"191 4 OFFCURVE",
"289 -3 OFFCURVE",
"301 -4 QCURVE",
"303 0 OFFCURVE",
"302 33 OFFCURVE",
"299 33 QCURVE SMOOTH",
"291 33 OFFCURVE",
"242 51 OFFCURVE",
"240 58 QCURVE SMOOTH",
"233 85 OFFCURVE",
"233 148 QCURVE SMOOTH",
"233 249 LINE SMOOTH",
"233 287 OFFCURVE",
"258 354 OFFCURVE",
"288 354 QCURVE SMOOTH",
"308 354 OFFCURVE",
"360 308 OFFCURVE",
"380 308 QCURVE SMOOTH",
"413 308 OFFCURVE",
"438 358 OFFCURVE",
"438 410 QCURVE",
"396 447 OFFCURVE",
"352 447 QCURVE SMOOTH"
);
}
);
width = 465;
}
);
note = r;
unicode = 0072;
},
{
glyphname = s;
layers = (
{
layerId = "E2E62ECD-1E64-44AC-9B50-C09427155398";
paths = (
{
closed = 1;
nodes = (
"130 449 OFFCURVE",
"26 386 OFFCURVE",
"26 318 QCURVE SMOOTH",
"26 269 OFFCURVE",
"82 202 OFFCURVE",
"140 174 QCURVE SMOOTH",
"196 146 OFFCURVE",
"239 112 OFFCURVE",
"239 87 QCURVE SMOOTH",
"239 67 OFFCURVE",
"207 45 OFFCURVE",
"183 45 QCURVE SMOOTH",
"92 45 OFFCURVE",
"75 144 QCURVE",
"74 153 OFFCURVE",
"42 153 QCURVE SMOOTH",
"31 153 OFFCURVE",
"27 150 QCURVE",
"27 97 OFFCURVE",
"39 28 QCURVE",
"58 12 OFFCURVE",
"144 -10 OFFCURVE",
"179 -10 QCURVE SMOOTH",
"257 -10 OFFCURVE",
"358 58 OFFCURVE",
"358 124 QCURVE SMOOTH",
"358 156 OFFCURVE",
"333 208 OFFCURVE",
"282 247 OFFCURVE",
"251 265 OFFCURVE",
"224 278 QCURVE SMOOTH",
"185 297 OFFCURVE",
"145 330 OFFCURVE",
"145 353 QCURVE SMOOTH",
"145 373 OFFCURVE",
"173 394 OFFCURVE",
"195 394 QCURVE SMOOTH",
"242 394 OFFCURVE",
"285 346 OFFCURVE",
"294 304 QCURVE SMOOTH",
"296 296 OFFCURVE",
"327 296 QCURVE SMOOTH",
"340 296 OFFCURVE",
"340 305 QCURVE SMOOTH",
"340 383 OFFCURVE",
"330 429 QCURVE",
"288 449 OFFCURVE",
"200 449 QCURVE SMOOTH"
);
}
);
width = 384;
}
);
note = s;
unicode = 0073;
},
{
glyphname = t;
layers = (
{
layerId = "E2E62ECD-1E64-44AC-9B50-C09427155398";
paths = (
{
closed = 1;
nodes = (
"97 139 LINE SMOOTH",
"97 62 OFFCURVE",
"176 -7 OFFCURVE",
"231 -7 QCURVE SMOOTH",
"267 -7 OFFCURVE",
"349 35 OFFCURVE",
"349 47 QCURVE SMOOTH",
"349 52 OFFCURVE",
"340 72 OFFCURVE",
"336 72 QCURVE SMOOTH",
"335 72 OFFCURVE",
"321 64 OFFCURVE",
"296 57 OFFCURVE",
"281 57 QCURVE SMOOTH",
"227 57 OFFCURVE",
"227 133 QCURVE SMOOTH",
"227 370 LINE",
"333 370 LINE",
"343 390 OFFCURVE",
"343 419 QCURVE SMOOTH",
"343 429 OFFCURVE",
"335 429 QCURVE SMOOTH",
"227 429 LINE",
"227 527 LINE SMOOTH",
"227 531 OFFCURVE",
"209 538 OFFCURVE",
"201 538 QCURVE",
"200 537 OFFCURVE",
"171 512 OFFCURVE",
"131 477 OFFCURVE",
"116 466 QCURVE SMOOTH",
"82 440 OFFCURVE",
"26 412 QCURVE",
"24 409 OFFCURVE",
"24 401 QCURVE SMOOTH",
"24 370 OFFCURVE",
"32 370 QCURVE SMOOTH",
"97 370 LINE"
);
}
);
width = 374;
}
);
note = t;
unicode = 0074;
},
{
glyphname = u;
layers = (
{
layerId = "E2E62ECD-1E64-44AC-9B50-C09427155398";
paths = (
{
closed = 1;
nodes = (
"512 338 OFFCURVE",
"523 426 QCURVE",
"523 430 OFFCURVE",
"513 443 OFFCURVE",
"508 443 QCURVE",
"503 442 LINE",
"498 440 OFFCURVE",
"497 440 QCURVE",
"469 431 OFFCURVE",
"333 404 OFFCURVE",
"314 404 QCURVE SMOOTH",
"309 404 OFFCURVE",
"309 369 QCURVE SMOOTH",
"309 368 OFFCURVE",
"329 364 OFFCURVE",
"357 354 OFFCURVE",
"364 346 QCURVE",
"382 327 OFFCURVE",
"382 271 QCURVE SMOOTH",
"382 128 LINE SMOOTH",
"382 109 OFFCURVE",
"348 78 OFFCURVE",
"314 78 QCURVE SMOOTH",
"267 78 OFFCURVE",
"227 141 OFFCURVE",
"227 219 QCURVE SMOOTH",
"227 326 LINE SMOOTH",
"227 338 OFFCURVE",
"238 426 QCURVE",
"238 430 OFFCURVE",
"228 443 OFFCURVE",
"223 443 QCURVE SMOOTH",
"222 443 OFFCURVE",
"217 442 QCURVE",
"212 440 LINE",
"184 431 OFFCURVE",
"48 404 OFFCURVE",
"29 404 QCURVE SMOOTH",
"24 404 OFFCURVE",
"24 369 QCURVE SMOOTH",
"24 368 OFFCURVE",
"44 364 OFFCURVE",
"72 354 OFFCURVE",
"79 346 QCURVE",
"97 327 OFFCURVE",
"97 271 QCURVE SMOOTH",
"97 174 LINE SMOOTH",
"97 100 OFFCURVE",
"168 -4 OFFCURVE",
"227 -4 QCURVE SMOOTH",
"274 -4 OFFCURVE",
"355 32 OFFCURVE",
"376 54 QCURVE SMOOTH",
"378 56 OFFCURVE",
"380 54 OFFCURVE",
"380 50 QCURVE SMOOTH",
"380 13 LINE SMOOTH",
"380 -5 OFFCURVE",
"386 -5 QCURVE",
"400 -2 LINE",
"414 0 OFFCURVE",
"457 7 OFFCURVE",
"505 14 OFFCURVE",
"553 20 OFFCURVE",
"568 21 QCURVE",
"574 21 OFFCURVE",
"574 50 QCURVE SMOOTH",
"574 56 OFFCURVE",
"570 58 QCURVE",
"560 58 LINE SMOOTH",
"549 58 OFFCURVE",
"527 63 OFFCURVE",
"522 68 QCURVE",
"512 79 OFFCURVE",
"512 131 QCURVE SMOOTH",
"512 327 LINE SMOOTH"
);
}
);
width = 599;
}
);
note = u;
unicode = 0075;
},
{
glyphname = v;
layers = (
{
layerId = "E2E62ECD-1E64-44AC-9B50-C09427155398";
paths = (
{
closed = 1;
nodes = (
"416 371 OFFCURVE",
"401 342 QCURVE SMOOTH",
"322 176 LINE",
"243 364 LINE",
"241 379 LINE",
"241 390 OFFCURVE",
"294 406 OFFCURVE",
"309 406 QCURVE SMOOTH",
"313 406 OFFCURVE",
"313 439 OFFCURVE",
"309 443 QCURVE",
"300 443 OFFCURVE",
"191 435 OFFCURVE",
"166 435 QCURVE SMOOTH",
"143 435 OFFCURVE",
"40 442 OFFCURVE",
"29 443 QCURVE",
"25 438 OFFCURVE",
"25 426 QCURVE SMOOTH",
"25 406 OFFCURVE",
"29 406 QCURVE SMOOTH",
"44 406 OFFCURVE",
"91 390 OFFCURVE",
"99 371 QCURVE SMOOTH",
"265 -3 LINE",
"269 -11 OFFCURVE",
"281 -11 QCURVE SMOOTH",
"296 -11 OFFCURVE",
"311 18 QCURVE SMOOTH",
"487 366 LINE SMOOTH",
"497 385 OFFCURVE",
"551 406 OFFCURVE",
"566 406 QCURVE SMOOTH",
"570 406 OFFCURVE",
"570 426 QCURVE SMOOTH",
"570 439 OFFCURVE",
"566 443 QCURVE",
"550 442 OFFCURVE",
"475 435 OFFCURVE",
"451 435 QCURVE SMOOTH",
"429 435 OFFCURVE",
"350 442 OFFCURVE",
"335 443 QCURVE",
"333 437 OFFCURVE",
"333 407 OFFCURVE",
"336 406 QCURVE",
"381 406 OFFCURVE",
"402 385 QCURVE SMOOTH"
);
}
);
width = 597;
}
);
note = v;
unicode = 0076;
},
{
glyphname = w;
layers = (
{
layerId = "E2E62ECD-1E64-44AC-9B50-C09427155398";
paths = (
{
closed = 1;
nodes = (
"689 357 OFFCURVE",
"667 311 OFFCURVE",
"620 215 OFFCURVE",
"602 176 QCURVE",
"524 360 OFFCURVE",
"524 375 QCURVE SMOOTH",
"524 391 OFFCURVE",
"561 405 OFFCURVE",
"578 405 QCURVE SMOOTH",
"581 405 OFFCURVE",
"584 438 OFFCURVE",
"582 443 QCURVE",
"572 443 OFFCURVE",
"469 435 OFFCURVE",
"447 435 QCURVE SMOOTH",
"423 435 OFFCURVE",
"332 442 OFFCURVE",
"319 443 QCURVE",
"315 439 OFFCURVE",
"316 406 OFFCURVE",
"320 406 QCURVE SMOOTH",
"348 406 OFFCURVE",
"361 401 QCURVE",
"378 393 OFFCURVE",
"385 383 QCURVE",
"392 372 OFFCURVE",
"392 348 QCURVE SMOOTH",
"392 344 OFFCURVE",
"387 328 OFFCURVE",
"372 294 OFFCURVE",
"358 266 OFFCURVE",
"327 201 OFFCURVE",
"316 177 QCURVE",
"235 362 OFFCURVE",
"235 388 OFFCURVE",
"285 407 OFFCURVE",
"297 407 QCURVE",
"300 408 OFFCURVE",
"299 437 OFFCURVE",
"297 443 QCURVE",
"289 443 OFFCURVE",
"180 435 OFFCURVE",
"158 435 QCURVE SMOOTH",
"134 435 OFFCURVE",
"39 442 OFFCURVE",
"27 443 QCURVE",
"24 440 OFFCURVE",
"24 424 QCURVE SMOOTH",
"24 405 OFFCURVE",
"28 405 QCURVE SMOOTH",
"40 405 OFFCURVE",
"84 386 OFFCURVE",
"91 372 QCURVE",
"260 0 LINE",
"266 -11 OFFCURVE",
"276 -11 QCURVE SMOOTH",
"291 -11 OFFCURVE",
"311 4 OFFCURVE",
"314 11 QCURVE SMOOTH",
"428 258 LINE",
"547 0 LINE SMOOTH",
"552 -11 OFFCURVE",
"562 -11 QCURVE SMOOTH",
"573 -11 OFFCURVE",
"596 3 OFFCURVE",
"599 10 QCURVE",
"764 357 LINE SMOOTH",
"772 375 OFFCURVE",
"838 406 OFFCURVE",
"849 406 QCURVE SMOOTH",
"853 406 OFFCURVE",
"853 423 QCURVE SMOOTH",
"853 434 OFFCURVE",
"850 443 QCURVE",
"834 442 OFFCURVE",
"758 434 OFFCURVE",
"737 434 QCURVE SMOOTH",
"714 434 OFFCURVE",
"619 442 OFFCURVE",
"605 443 QCURVE",
"601 439 OFFCURVE",
"603 405 OFFCURVE",
"607 405 QCURVE SMOOTH",
"611 405 LINE SMOOTH",
"637 405 OFFCURVE",
"689 385 OFFCURVE",
"689 363 QCURVE SMOOTH"
);
}
);
width = 880;
}
);
note = w;
unicode = 0077;
},
{
glyphname = x;
layers = (
{
layerId = "E2E62ECD-1E64-44AC-9B50-C09427155398";
paths = (
{
closed = 1;
nodes = (
"27 405 OFFCURVE",
"32 405 QCURVE SMOOTH",
"48 405 OFFCURVE",
"87 385 OFFCURVE",
"100 368 QCURVE SMOOTH",
"228 207 LINE",
"232 203 OFFCURVE",
"232 193 OFFCURVE",
"230 190 QCURVE",
"119 68 LINE SMOOTH",
"110 58 OFFCURVE",
"59 37 OFFCURVE",
"34 33 QCURVE",
"30 33 OFFCURVE",
"30 15 QCURVE SMOOTH",
"30 4 OFFCURVE",
"32 -4 QCURVE",
"49 -3 OFFCURVE",
"96 1 OFFCURVE",
"135 4 OFFCURVE",
"156 4 QCURVE SMOOTH",
"183 4 OFFCURVE",
"266 -3 OFFCURVE",
"274 -4 QCURVE",
"278 0 OFFCURVE",
"278 15 QCURVE SMOOTH",
"278 33 OFFCURVE",
"276 33 QCURVE",
"271 34 OFFCURVE",
"252 37 OFFCURVE",
"237 40 OFFCURVE",
"221 46 OFFCURVE",
"212 54 OFFCURVE",
"212 59 QCURVE SMOOTH",
"212 70 OFFCURVE",
"219 78 QCURVE",
"276 150 LINE",
"344 71 LINE",
"346 67 OFFCURVE",
"346 65 QCURVE SMOOTH",
"346 53 OFFCURVE",
"313 34 OFFCURVE",
"300 33 QCURVE",
"296 33 OFFCURVE",
"296 8 QCURVE SMOOTH",
"296 6 OFFCURVE",
"298 -4 QCURVE",
"317 -3 OFFCURVE",
"369 1 OFFCURVE",
"412 4 OFFCURVE",
"436 4 QCURVE SMOOTH",
"459 4 OFFCURVE",
"500 1 OFFCURVE",
"550 -3 OFFCURVE",
"568 -4 QCURVE",
"572 1 OFFCURVE",
"572 10 QCURVE SMOOTH",
"572 31 OFFCURVE",
"568 31 QCURVE",
"521 40 OFFCURVE",
"487 84 QCURVE SMOOTH",
"367 235 LINE",
"363 239 OFFCURVE",
"363 245 QCURVE SMOOTH",
"363 248 OFFCURVE",
"366 253 QCURVE",
"480 378 LINE SMOOTH",
"498 398 OFFCURVE",
"569 406 QCURVE",
"572 406 OFFCURVE",
"572 425 QCURVE SMOOTH",
"572 437 OFFCURVE",
"569 443 QCURVE",
"462 436 OFFCURVE",
"451 436 QCURVE SMOOTH",
"441 436 OFFCURVE",
"324 443 QCURVE",
"320 438 OFFCURVE",
"320 424 QCURVE SMOOTH",
"320 406 OFFCURVE",
"324 406 QCURVE SMOOTH",
"386 406 OFFCURVE",
"386 385 QCURVE SMOOTH",
"386 379 OFFCURVE",
"367 351 OFFCURVE",
"330 304 OFFCURVE",
"322 293 QCURVE",
"260 370 LINE SMOOTH",
"255 376 OFFCURVE",
"255 382 QCURVE SMOOTH",
"255 392 OFFCURVE",
"286 406 OFFCURVE",
"300 406 QCURVE SMOOTH",
"305 406 OFFCURVE",
"305 425 QCURVE SMOOTH",
"305 438 OFFCURVE",
"302 443 QCURVE",
"178 436 OFFCURVE",
"167 436 QCURVE SMOOTH",
"154 436 OFFCURVE",
"30 443 QCURVE",
"27 437 OFFCURVE",
"27 425 QCURVE SMOOTH"
);
}
);
width = 605;
}
);
note = x;
unicode = 0078;
},
{
glyphname = y;
layers = (
{
layerId = "E2E62ECD-1E64-44AC-9B50-C09427155398";
paths = (
{
closed = 1;
nodes = (
"124 435 OFFCURVE",
"14 443 OFFCURVE",
"6 443 QCURVE",
"4 441 OFFCURVE",
"4 421 QCURVE SMOOTH",
"4 406 OFFCURVE",
"8 406 QCURVE SMOOTH",
"23 406 OFFCURVE",
"64 389 OFFCURVE",
"74 368 QCURVE",
"79 356 LINE",
"228 26 LINE",
"220 9 OFFCURVE",
"197 -40 QCURVE SMOOTH",
"159 -118 OFFCURVE",
"32 -118 QCURVE",
"9 -134 OFFCURVE",
"9 -165 QCURVE SMOOTH",
"9 -186 OFFCURVE",
"46 -218 OFFCURVE",
"76 -218 QCURVE SMOOTH",
"187 -218 OFFCURVE",
"270 -37 QCURVE SMOOTH",
"456 366 LINE SMOOTH",
"466 386 OFFCURVE",
"525 406 OFFCURVE",
"540 406 QCURVE SMOOTH",
"544 406 OFFCURVE",
"544 426 QCURVE SMOOTH",
"544 435 OFFCURVE",
"540 443 QCURVE",
"524 442 OFFCURVE",
"454 435 OFFCURVE",
"433 435 QCURVE SMOOTH",
"409 435 OFFCURVE",
"314 442 OFFCURVE",
"302 443 QCURVE",
"300 437 OFFCURVE",
"300 424 QCURVE SMOOTH",
"300 406 OFFCURVE",
"304 406 QCURVE SMOOTH",
"330 406 OFFCURVE",
"364 390 OFFCURVE",
"375 374 OFFCURVE",
"375 368 QCURVE SMOOTH",
"375 352 OFFCURVE",
"369 338 QCURVE SMOOTH",
"363 323 OFFCURVE",
"295 176 QCURVE",
"219 355 OFFCURVE",
"217 371 QCURVE SMOOTH",
"216 380 LINE",
"216 390 OFFCURVE",
"265 406 OFFCURVE",
"278 406 QCURVE SMOOTH",
"282 406 OFFCURVE",
"282 422 QCURVE SMOOTH",
"282 434 OFFCURVE",
"279 443 QCURVE",
"268 442 OFFCURVE",
"170 435 OFFCURVE",
"148 435 QCURVE SMOOTH"
);
}
);
width = 544;
}
);
note = y;
unicode = 0079;
},
{
glyphname = z;
layers = (
{
layerId = "E2E62ECD-1E64-44AC-9B50-C09427155398";
paths = (
{
closed = 1;
nodes = (
"184 65 OFFCURVE",
"191 75 QCURVE",
"399 408 LINE",
"399 427 OFFCURVE",
"396 432 QCURVE",
"330 424 OFFCURVE",
"267 424 QCURVE SMOOTH",
"145 424 LINE SMOOTH",
"109 424 OFFCURVE",
"50 430 QCURVE",
"48 400 OFFCURVE",
"34 301 OFFCURVE",
"34 296 QCURVE SMOOTH",
"34 294 OFFCURVE",
"46 294 QCURVE SMOOTH",
"68 294 OFFCURVE",
"71 300 QCURVE",
"81 323 OFFCURVE",
"132 371 OFFCURVE",
"169 370 QCURVE SMOOTH",
"230 369 LINE",
"26 27 LINE",
"25 26 OFFCURVE",
"25 23 QCURVE SMOOTH",
"25 12 OFFCURVE",
"45 0 QCURVE",
"387 0 LINE",
"404 135 LINE",
"400 139 OFFCURVE",
"393 139 QCURVE SMOOTH",
"369 139 OFFCURVE",
"366 130 QCURVE",
"337 54 OFFCURVE",
"258 54 QCURVE SMOOTH",
"196 54 LINE SMOOTH",
"184 54 OFFCURVE",
"184 61 QCURVE SMOOTH"
);
}
);
width = 430;
}
);
note = z;
unicode = 007A;
},
{
glyphname = braceleft;
layers = (
{
layerId = "E2E62ECD-1E64-44AC-9B50-C09427155398";
paths = (
{
closed = 1;
nodes = (
"28 290 OFFCURVE",
"57 282 OFFCURVE",
"65 279 OFFCURVE",
"86 270 OFFCURVE",
"94 261 OFFCURVE",
"106 248 OFFCURVE",
"110 230 OFFCURVE",
"110 219 QCURVE SMOOTH",
"110 194 OFFCURVE",
"94 88 OFFCURVE",
"94 58 QCURVE SMOOTH",
"94 -15 OFFCURVE",
"232 -125 OFFCURVE",
"302 -125 QCURVE SMOOTH",
"306 -125 OFFCURVE",
"306 -114 QCURVE SMOOTH",
"306 -93 OFFCURVE",
"300 -92 QCURVE",
"273 -90 OFFCURVE",
"216 -27 OFFCURVE",
"216 18 QCURVE SMOOTH",
"216 53 OFFCURVE",
"233 144 OFFCURVE",
"233 187 QCURVE SMOOTH",
"233 234 OFFCURVE",
"181 308 OFFCURVE",
"153 308 QCURVE",
"181 308 OFFCURVE",
"233 387 OFFCURVE",
"233 434 QCURVE SMOOTH",
"233 477 OFFCURVE",
"216 578 OFFCURVE",
"216 613 QCURVE SMOOTH",
"216 657 OFFCURVE",
"272 715 OFFCURVE",
"300 717 QCURVE",
"306 718 OFFCURVE",
"306 738 QCURVE SMOOTH",
"306 750 OFFCURVE",
"302 750 QCURVE SMOOTH",
"229 750 OFFCURVE",
"92 651 OFFCURVE",
"92 572 QCURVE SMOOTH",
"92 540 OFFCURVE",
"110 431 OFFCURVE",
"110 406 QCURVE SMOOTH",
"110 370 OFFCURVE",
"67 338 OFFCURVE",
"26 328 QCURVE",
"22 321 OFFCURVE",
"22 310 QCURVE SMOOTH",
"22 297 OFFCURVE",
"25 291 QCURVE"
);
}
);
width = 328;
}
);
note = braceleft;
unicode = 007B;
},
{
glyphname = bar;
layers = (
{
layerId = "E2E62ECD-1E64-44AC-9B50-C09427155398";
paths = (
{
closed = 1;
nodes = (
"122 766 LINE",
"122 768 LINE SMOOTH",
"122 769 OFFCURVE",
"118 772 OFFCURVE",
"114 772 QCURVE SMOOTH",
"64 772 OFFCURVE",
"40 765 QCURVE",
"34 763 OFFCURVE",
"35 757 QCURVE",
"35 -115 LINE SMOOTH",
"35 -121 OFFCURVE",
"42 -121 QCURVE SMOOTH",
"48 -121 OFFCURVE",
"122 -110 OFFCURVE",
"122 -106 QCURVE SMOOTH"
);
}
);
width = 156;
}
);
note = bar;
unicode = 007C;
},
{
glyphname = braceright;
layers = (
{
layerId = "E2E62ECD-1E64-44AC-9B50-C09427155398";
paths = (
{
closed = 1;
nodes = (
"306 297 OFFCURVE",
"306 310 QCURVE SMOOTH",
"306 321 OFFCURVE",
"302 328 QCURVE",
"261 338 OFFCURVE",
"218 370 OFFCURVE",
"218 406 QCURVE SMOOTH",
"218 431 OFFCURVE",
"236 540 OFFCURVE",
"236 572 QCURVE SMOOTH",
"236 651 OFFCURVE",
"99 750 OFFCURVE",
"26 750 QCURVE SMOOTH",
"22 750 OFFCURVE",
"22 738 QCURVE SMOOTH",
"22 718 OFFCURVE",
"28 717 QCURVE",
"56 715 OFFCURVE",
"112 657 OFFCURVE",
"112 613 QCURVE SMOOTH",
"112 578 OFFCURVE",
"95 477 OFFCURVE",
"95 434 QCURVE SMOOTH",
"95 387 OFFCURVE",
"147 308 OFFCURVE",
"175 308 QCURVE",
"147 308 OFFCURVE",
"95 234 OFFCURVE",
"95 187 QCURVE SMOOTH",
"95 144 OFFCURVE",
"112 53 OFFCURVE",
"112 18 QCURVE SMOOTH",
"112 -27 OFFCURVE",
"55 -90 OFFCURVE",
"28 -92 QCURVE",
"22 -93 OFFCURVE",
"22 -114 QCURVE SMOOTH",
"22 -125 OFFCURVE",
"26 -125 QCURVE SMOOTH",
"96 -125 OFFCURVE",
"234 -15 OFFCURVE",
"234 58 QCURVE SMOOTH",
"234 88 OFFCURVE",
"218 194 OFFCURVE",
"218 219 QCURVE SMOOTH",
"218 229 OFFCURVE",
"222 245 OFFCURVE",
"228 256 OFFCURVE",
"240 267 OFFCURVE",
"249 273 OFFCURVE",
"267 280 OFFCURVE",
"276 283 OFFCURVE",
"299 290 OFFCURVE",
"303 291 QCURVE"
);
}
);
width = 328;
}
);
note = braceright;
unicode = 007D;
},
{
glyphname = asciitilde;
layers = (
{
layerId = "E2E62ECD-1E64-44AC-9B50-C09427155398";
paths = (
{
closed = 1;
nodes = (
"81 272 OFFCURVE",
"96 282 OFFCURVE",
"132 298 OFFCURVE",
"150 298 QCURVE SMOOTH",
"198 298 OFFCURVE",
"340 245 OFFCURVE",
"387 245 QCURVE SMOOTH",
"442 245 OFFCURVE",
"492 284 QCURVE SMOOTH",
"515 301 OFFCURVE",
"515 323 QCURVE SMOOTH",
"515 346 OFFCURVE",
"506 350 QCURVE",
"504 348 OFFCURVE",
"487 335 OFFCURVE",
"483 332 OFFCURVE",
"468 321 OFFCURVE",
"461 318 OFFCURVE",
"447 311 OFFCURVE",
"437 308 OFFCURVE",
"423 306 OFFCURVE",
"416 306 QCURVE SMOOTH",
"369 306 OFFCURVE",
"227 359 OFFCURVE",
"180 359 QCURVE SMOOTH",
"131 359 OFFCURVE",
"74 320 QCURVE SMOOTH",
"50 304 OFFCURVE",
"50 258 OFFCURVE",
"59 254 QCURVE"
);
}
);
width = 570;
}
);
note = asciitilde;
unicode = 007E;
},
{
glyphname = exclamdown;
layers = (
{
layerId = "E2E62ECD-1E64-44AC-9B50-C09427155398";
paths = (
{
closed = 1;
nodes = (
"127 -238 OFFCURVE",
"164 -201 OFFCURVE",
"164 -170 QCURVE SMOOTH",
"164 -149 OFFCURVE",
"132 146 OFFCURVE",
"122 211 QCURVE SMOOTH",
"117 242 OFFCURVE",
"89 242 QCURVE SMOOTH",
"81 242 OFFCURVE",
"77 220 QCURVE SMOOTH",
"68 166 OFFCURVE",
"36 -135 OFFCURVE",
"36 -171 QCURVE SMOOTH",
"36 -202 OFFCURVE",
"74 -238 OFFCURVE",
"102 -238 QCURVE SMOOTH"
);
},
{
closed = 1;
nodes = (
"25 335 OFFCURVE",
"68 293 OFFCURVE",
"97 293 QCURVE SMOOTH",
"129 293 OFFCURVE",
"172 335 OFFCURVE",
"172 397 OFFCURVE",
"131 443 OFFCURVE",
"101 443 QCURVE SMOOTH",
"72 443 OFFCURVE",
"25 399 OFFCURVE",
"25 366 QCURVE SMOOTH"
);
}
);
width = 195;
}
);
note = exclamdown;
unicode = 00A1;
},
{
glyphname = cent;
layers = (
{
layerId = "E2E62ECD-1E64-44AC-9B50-C09427155398";
paths = (
{
closed = 1;
nodes = (
"271 447 LINE",
"268 447 OFFCURVE",
"265 447 QCURVE SMOOTH",
"165 447 OFFCURVE",
"26 318 OFFCURVE",
"26 226 QCURVE SMOOTH",
"26 143 OFFCURVE",
"122 18 OFFCURVE",
"198 -1 QCURVE",
"192 -36 LINE",
"192 -45 OFFCURVE",
"231 -45 QCURVE",
"237 -7 LINE",
"245 -7 OFFCURVE",
"252 -7 QCURVE SMOOTH",
"314 -7 OFFCURVE",
"413 58 OFFCURVE",
"423 83 QCURVE",
"427 91 OFFCURVE",
"427 103 QCURVE SMOOTH",
"427 118 OFFCURVE",
"418 122 QCURVE",
"398 107 OFFCURVE",
"374 92 OFFCURVE",
"314 73 OFFCURVE",
"281 73 QCURVE SMOOTH",
"264 73 OFFCURVE",
"251 76 QCURVE",
"298 366 LINE",
"303 358 OFFCURVE",
"308 346 QCURVE SMOOTH",
"328 296 OFFCURVE",
"367 296 QCURVE SMOOTH",
"421 296 OFFCURVE",
"421 388 QCURVE",
"415 396 OFFCURVE",
"393 414 OFFCURVE",
"341 438 OFFCURVE",
"310 443 QCURVE",
"314 466 LINE",
"314 474 OFFCURVE",
"275 474 QCURVE"
);
},
{
closed = 1;
nodes = (
"168 134 OFFCURVE",
"168 242 QCURVE SMOOTH",
"168 392 OFFCURVE",
"248 392 QCURVE SMOOTH",
"255 392 OFFCURVE",
"261 391 QCURVE",
"213 95 LINE"
);
}
);
width = 462;
}
);
note = cent;
unicode = 00A2;
},
{
glyphname = sterling;
layers = (
{
layerId = "E2E62ECD-1E64-44AC-9B50-C09427155398";
paths = (
{
closed = 1;
nodes = (
"51 326 OFFCURVE",
"51 303 QCURVE SMOOTH",
"51 290 OFFCURVE",
"56 290 QCURVE SMOOTH",
"325 290 LINE",
"340 300 OFFCURVE",
"340 325 QCURVE SMOOTH",
"340 335 OFFCURVE",
"335 335 QCURVE SMOOTH",
"57 335 LINE"
);
},
{
closed = 1;
nodes = (
"202 642 OFFCURVE",
"81 529 OFFCURVE",
"81 439 QCURVE SMOOTH",
"81 400 OFFCURVE",
"110 244 OFFCURVE",
"110 218 QCURVE SMOOTH",
"110 114 OFFCURVE",
"98 83 QCURVE",
"46 20 LINE",
"46 14 OFFCURVE",
"63 -5 OFFCURVE",
"79 -8 QCURVE",
"80 -7 OFFCURVE",
"113 14 OFFCURVE",
"146 26 OFFCURVE",
"166 26 QCURVE SMOOTH",
"189 26 OFFCURVE",
"314 -8 OFFCURVE",
"348 -8 QCURVE SMOOTH",
"395 -8 OFFCURVE",
"456 73 OFFCURVE",
"466 114 QCURVE SMOOTH",
"468 122 OFFCURVE",
"468 127 QCURVE SMOOTH",
"468 135 OFFCURVE",
"455 149 OFFCURVE",
"450 149 QCURVE",
"448 147 OFFCURVE",
"434 123 OFFCURVE",
"430 117 OFFCURVE",
"417 100 OFFCURVE",
"408 94 OFFCURVE",
"394 85 OFFCURVE",
"378 82 OFFCURVE",
"368 82 QCURVE SMOOTH",
"355 82 OFFCURVE",
"261 112 OFFCURVE",
"231 112 QCURVE SMOOTH",
"200 112 OFFCURVE",
"180 103 QCURVE",
"221 162 OFFCURVE",
"221 260 QCURVE SMOOTH",
"221 308 OFFCURVE",
"190 458 OFFCURVE",
"190 484 QCURVE SMOOTH",
"190 539 OFFCURVE",
"226 590 OFFCURVE",
"265 590 QCURVE SMOOTH",
"281 590 OFFCURVE",
"307 567 OFFCURVE",
"321 538 OFFCURVE",
"346 515 OFFCURVE",
"362 515 QCURVE SMOOTH",
"414 515 OFFCURVE",
"414 600 QCURVE",
"402 618 OFFCURVE",
"329 642 OFFCURVE",
"290 642 QCURVE SMOOTH"
);
}
);
width = 491;
}
);
note = sterling;
unicode = 00A3;
},
{
glyphname = currency;
layers = (
{
layerId = "E2E62ECD-1E64-44AC-9B50-C09427155398";
paths = (
{
closed = 1;
nodes = (
"161 164 OFFCURVE",
"161 334 QCURVE SMOOTH",
"161 382 OFFCURVE",
"191 452 OFFCURVE",
"226 452 QCURVE SMOOTH",
"313 452 OFFCURVE",
"313 279 QCURVE SMOOTH",
"313 233 OFFCURVE",
"281 164 OFFCURVE",
"246 164 QCURVE SMOOTH"
);
},
{
closed = 1;
nodes = (
"300 497 OFFCURVE",
"237 497 QCURVE SMOOTH",
"178 497 OFFCURVE",
"131 467 QCURVE",
"82 520 LINE",
"70 517 OFFCURVE",
"44 499 OFFCURVE",
"30 480 OFFCURVE",
"34 476 QCURVE SMOOTH",
"83 424 LINE",
"42 372 OFFCURVE",
"42 308 QCURVE SMOOTH",
"42 252 OFFCURVE",
"74 204 QCURVE",
"23 156 LINE",
"26 144 OFFCURVE",
"44 118 OFFCURVE",
"63 104 OFFCURVE",
"67 108 QCURVE SMOOTH",
"119 157 LINE",
"171 119 OFFCURVE",
"237 119 QCURVE SMOOTH",
"294 119 OFFCURVE",
"342 148 QCURVE",
"388 98 LINE",
"400 101 OFFCURVE",
"426 119 OFFCURVE",
"440 138 OFFCURVE",
"436 142 QCURVE SMOOTH",
"391 190 LINE",
"432 240 OFFCURVE",
"432 308 QCURVE SMOOTH",
"432 367 OFFCURVE",
"397 416 QCURVE",
"446 462 LINE",
"443 474 OFFCURVE",
"425 500 OFFCURVE",
"406 514 OFFCURVE",
"402 510 QCURVE SMOOTH",
"351 462 LINE"
);
}
);
width = 469;
}
);
note = currency;
unicode = 00A4;
},
{
glyphname = yen;
layers = (
{
layerId = "E2E62ECD-1E64-44AC-9B50-C09427155398";
paths = (
{
closed = 1;
nodes = (
"144 636 OFFCURVE",
"97 638 OFFCURVE",
"41 641 OFFCURVE",
"24 642 QCURVE",
"20 638 OFFCURVE",
"20 605 OFFCURVE",
"24 605 QCURVE SMOOTH",
"52 605 OFFCURVE",
"77 590 QCURVE SMOOTH",
"98 578 OFFCURVE",
"131 517 QCURVE SMOOTH",
"162 464 LINE SMOOTH",
"194 410 OFFCURVE",
"256 296 OFFCURVE",
"256 289 QCURVE SMOOTH",
"256 259 LINE",
"187 259 LINE",
"181 242 OFFCURVE",
"181 227 QCURVE SMOOTH",
"181 214 OFFCURVE",
"186 214 QCURVE SMOOTH",
"256 214 LINE",
"256 178 LINE",
"187 178 LINE",
"181 162 OFFCURVE",
"181 146 QCURVE SMOOTH",
"181 133 OFFCURVE",
"186 133 QCURVE SMOOTH",
"256 133 LINE",
"255 83 OFFCURVE",
"249 58 QCURVE",
"246 50 OFFCURVE",
"194 33 OFFCURVE",
"183 33 QCURVE SMOOTH",
"180 33 OFFCURVE",
"180 12 QCURVE SMOOTH",
"180 0 OFFCURVE",
"184 -4 QCURVE",
"198 -3 OFFCURVE",
"302 4 OFFCURVE",
"329 4 QCURVE SMOOTH",
"355 4 OFFCURVE",
"461 -4 OFFCURVE",
"468 -4 QCURVE",
"470 2 OFFCURVE",
"470 14 QCURVE SMOOTH",
"470 33 OFFCURVE",
"466 33 QCURVE SMOOTH",
"457 33 OFFCURVE",
"406 51 OFFCURVE",
"404 58 QCURVE SMOOTH",
"396 87 OFFCURVE",
"396 133 QCURVE",
"464 133 LINE",
"470 144 OFFCURVE",
"470 166 QCURVE SMOOTH",
"470 178 OFFCURVE",
"465 178 QCURVE SMOOTH",
"396 178 LINE",
"396 214 LINE",
"464 214 LINE",
"470 224 OFFCURVE",
"470 247 QCURVE SMOOTH",
"470 259 OFFCURVE",
"465 259 QCURVE SMOOTH",
"396 259 LINE",
"396 284 LINE SMOOTH",
"396 297 OFFCURVE",
"545 535 OFFCURVE",
"571 570 QCURVE SMOOTH",
"585 588 OFFCURVE",
"631 606 OFFCURVE",
"649 606 QCURVE SMOOTH",
"653 606 OFFCURVE",
"653 624 QCURVE SMOOTH",
"653 633 OFFCURVE",
"650 642 QCURVE",
"563 636 OFFCURVE",
"537 636 QCURVE SMOOTH",
"506 636 OFFCURVE",
"416 642 QCURVE",
"412 638 OFFCURVE",
"413 605 OFFCURVE",
"417 605 QCURVE SMOOTH",
"481 605 OFFCURVE",
"481 583 QCURVE SMOOTH",
"481 567 OFFCURVE",
"401 429 OFFCURVE",
"372 387 QCURVE SMOOTH",
"367 380 OFFCURVE",
"362 385 QCURVE",
"262 562 LINE SMOOTH",
"254 576 OFFCURVE",
"254 584 QCURVE",
"255 594 OFFCURVE",
"292 605 OFFCURVE",
"307 605 QCURVE SMOOTH",
"310 605 OFFCURVE",
"311 638 OFFCURVE",
"309 642 QCURVE",
"189 636 OFFCURVE",
"166 636 QCURVE SMOOTH"
);
}
);
width = 689;
}
);
note = yen;
unicode = 00A5;
},
{
glyphname = brokenbar;
layers = (
{
layerId = "E2E62ECD-1E64-44AC-9B50-C09427155398";
paths = (
{
closed = 1;
nodes = (
"121 762 LINE",
"121 764 LINE SMOOTH",
"121 765 OFFCURVE",
"117 768 OFFCURVE",
"113 768 QCURVE SMOOTH",
"63 768 OFFCURVE",
"39 761 QCURVE",
"33 759 OFFCURVE",
"34 753 QCURVE",
"34 390 LINE SMOOTH",
"34 384 OFFCURVE",
"41 384 QCURVE SMOOTH",
"47 384 OFFCURVE",
"121 395 OFFCURVE",
"121 399 QCURVE SMOOTH"
);
},
{
closed = 1;
nodes = (
"121 257 LINE",
"121 258 LINE SMOOTH",
"121 260 OFFCURVE",
"117 263 OFFCURVE",
"113 263 QCURVE SMOOTH",
"63 263 OFFCURVE",
"39 256 QCURVE",
"33 254 OFFCURVE",
"34 248 QCURVE",
"34 -115 LINE SMOOTH",
"34 -121 OFFCURVE",
"41 -121 QCURVE SMOOTH",
"47 -121 OFFCURVE",
"121 -110 OFFCURVE",
"121 -106 QCURVE SMOOTH"
);
}
);
width = 154;
}
);
note = brokenbar;
unicode = 00A6;
},
{
glyphname = section;
layers = (
{
layerId = "E2E62ECD-1E64-44AC-9B50-C09427155398";
paths = (
{
closed = 1;
nodes = (
"384 334 OFFCURVE",
"333 400 OFFCURVE",
"260 440 OFFCURVE",
"188 475 OFFCURVE",
"137 521 OFFCURVE",
"137 550 QCURVE SMOOTH",
"137 593 OFFCURVE",
"202 593 QCURVE SMOOTH",
"226 593 OFFCURVE",
"280 543 OFFCURVE",
"293 543 QCURVE SMOOTH",
"312 543 OFFCURVE",
"329 565 OFFCURVE",
"329 593 QCURVE SMOOTH",
"329 595 OFFCURVE",
"326 611 OFFCURVE",
"326 613 QCURVE",
"317 627 OFFCURVE",
"265 651 OFFCURVE",
"231 651 QCURVE SMOOTH",
"168 651 OFFCURVE",
"79 582 OFFCURVE",
"79 518 QCURVE SMOOTH",
"79 480 OFFCURVE",
"89 463 QCURVE",
"25 417 OFFCURVE",
"25 330 QCURVE SMOOTH",
"25 285 OFFCURVE",
"76 217 OFFCURVE",
"148 174 OFFCURVE",
"220 137 OFFCURVE",
"271 88 OFFCURVE",
"271 58 QCURVE SMOOTH",
"271 40 OFFCURVE",
"236 17 OFFCURVE",
"209 17 QCURVE SMOOTH",
"186 17 OFFCURVE",
"130 65 OFFCURVE",
"112 65 QCURVE SMOOTH",
"100 65 OFFCURVE",
"79 40 OFFCURVE",
"79 14 QCURVE SMOOTH",
"79 0 OFFCURVE",
"80 -4 QCURVE",
"89 -17 OFFCURVE",
"143 -41 OFFCURVE",
"177 -41 QCURVE SMOOTH",
"201 -41 OFFCURVE",
"249 -29 OFFCURVE",
"299 -3 OFFCURVE",
"329 52 OFFCURVE",
"329 89 QCURVE SMOOTH",
"329 124 OFFCURVE",
"318 148 QCURVE",
"340 163 OFFCURVE",
"384 244 OFFCURVE",
"384 290 QCURVE SMOOTH"
);
},
{
closed = 1;
nodes = (
"283 211 OFFCURVE",
"228 252 OFFCURVE",
"175 278 OFFCURVE",
"125 307 OFFCURVE",
"95 351 OFFCURVE",
"95 381 QCURVE SMOOTH",
"95 412 OFFCURVE",
"110 424 QCURVE",
"127 396 OFFCURVE",
"202 345 OFFCURVE",
"266 314 OFFCURVE",
"316 260 OFFCURVE",
"316 225 QCURVE SMOOTH",
"316 203 OFFCURVE",
"298 185 QCURVE"
);
}
);
width = 410;
}
);
note = section;
unicode = 00A7;
},
{
glyphname = dieresis;
layers = (
{
layerId = "E2E62ECD-1E64-44AC-9B50-C09427155398";
paths = (
{
closed = 1;
nodes = (
"343 442 OFFCURVE",
"385 484 OFFCURVE",
"385 544 OFFCURVE",
"343 585 OFFCURVE",
"283 585 OFFCURVE",
"241 544 OFFCURVE",
"241 484 OFFCURVE",
"283 442 OFFCURVE"
);
},
{
closed = 1;
nodes = (
"120 442 OFFCURVE",
"162 484 OFFCURVE",
"162 544 OFFCURVE",
"120 585 OFFCURVE",
"60 585 OFFCURVE",
"19 544 OFFCURVE",
"19 484 OFFCURVE",
"60 442 OFFCURVE"
);
}
);
width = 405;
}
);
note = dieresis;
unicode = 00A8;
},
{
glyphname = copyright;
layers = (
{
layerId = "E2E62ECD-1E64-44AC-9B50-C09427155398";
paths = (
{
closed = 1;
nodes = (
"408 273 OFFCURVE",
"394 273 QCURVE SMOOTH",
"393 273 OFFCURVE",
"387 264 OFFCURVE",
"376 249 OFFCURVE",
"370 244 QCURVE",
"354 229 OFFCURVE",
"317 229 QCURVE SMOOTH",
"276 229 OFFCURVE",
"234 297 OFFCURVE",
"234 346 QCURVE SMOOTH",
"234 389 OFFCURVE",
"270 451 OFFCURVE",
"304 451 QCURVE SMOOTH",
"343 451 OFFCURVE",
"382 417 OFFCURVE",
"387 399 QCURVE",
"393 397 OFFCURVE",
"400 397 QCURVE SMOOTH",
"408 397 OFFCURVE",
"408 401 QCURVE SMOOTH",
"408 406 OFFCURVE",
"400 468 OFFCURVE",
"398 469 QCURVE",
"350 481 OFFCURVE",
"302 481 QCURVE SMOOTH",
"243 481 OFFCURVE",
"164 396 OFFCURVE",
"164 337 QCURVE SMOOTH",
"164 281 OFFCURVE",
"242 199 OFFCURVE",
"297 199 QCURVE SMOOTH",
"356 199 OFFCURVE",
"392 219 QCURVE SMOOTH",
"399 223 OFFCURVE",
"411 261 OFFCURVE",
"411 268 QCURVE"
);
},
{
closed = 1;
nodes = (
"394 569 OFFCURVE",
"528 436 OFFCURVE",
"528 246 OFFCURVE",
"394 113 OFFCURVE",
"206 113 OFFCURVE",
"72 246 OFFCURVE",
"72 436 OFFCURVE",
"206 569 OFFCURVE"
);
},
{
closed = 1;
nodes = (
"413 69 OFFCURVE",
"574 229 OFFCURVE",
"574 455 OFFCURVE",
"413 615 OFFCURVE",
"187 615 OFFCURVE",
"27 455 OFFCURVE",
"27 229 OFFCURVE",
"187 69 OFFCURVE"
);
}
);
width = 600;
}
);
note = copyright;
unicode = 00A9;
},
{
glyphname = ordfeminine;
layers = (
{
layerId = "E2E62ECD-1E64-44AC-9B50-C09427155398";
paths = (
{
closed = 1;
nodes = (
"189 313 OFFCURVE",
"169 297 OFFCURVE",
"151 297 QCURVE SMOOTH",
"115 297 OFFCURVE",
"115 343 QCURVE SMOOTH",
"115 350 OFFCURVE",
"119 361 OFFCURVE",
"130 370 OFFCURVE",
"138 376 OFFCURVE",
"156 383 OFFCURVE",
"165 387 OFFCURVE",
"186 393 OFFCURVE",
"189 394 QCURVE",
"189 326 LINE SMOOTH"
);
},
{
closed = 1;
nodes = (
"277 436 LINE SMOOTH",
"277 556 OFFCURVE",
"170 556 QCURVE SMOOTH",
"119 556 OFFCURVE",
"35 508 OFFCURVE",
"35 482 QCURVE SMOOTH",
"35 468 OFFCURVE",
"56 447 OFFCURVE",
"74 447 QCURVE SMOOTH",
"87 447 OFFCURVE",
"113 459 OFFCURVE",
"113 467 QCURVE SMOOTH",
"113 492 OFFCURVE",
"141 518 OFFCURVE",
"159 518 QCURVE SMOOTH",
"189 518 OFFCURVE",
"189 463 QCURVE SMOOTH",
"189 439 LINE SMOOTH",
"189 430 OFFCURVE",
"183 428 QCURVE SMOOTH",
"174 425 OFFCURVE",
"120 411 OFFCURVE",
"88 400 OFFCURVE",
"47 379 OFFCURVE",
"27 349 OFFCURVE",
"27 330 QCURVE SMOOTH",
"27 296 OFFCURVE",
"66 248 OFFCURVE",
"108 248 QCURVE SMOOTH",
"121 248 OFFCURVE",
"149 255 OFFCURVE",
"169 264 OFFCURVE",
"185 274 OFFCURVE",
"190 278 QCURVE",
"195 281 LINE",
"200 269 OFFCURVE",
"229 249 OFFCURVE",
"245 249 QCURVE SMOOTH",
"286 249 OFFCURVE",
"316 271 QCURVE",
"322 286 OFFCURVE",
"322 297 QCURVE SMOOTH",
"322 306 OFFCURVE",
"317 306 QCURVE SMOOTH",
"316 306 OFFCURVE",
"311 302 OFFCURVE",
"302 298 OFFCURVE",
"296 298 QCURVE SMOOTH",
"287 298 OFFCURVE",
"279 305 OFFCURVE",
"277 315 OFFCURVE",
"277 326 QCURVE SMOOTH"
);
}
);
width = 347;
}
);
note = ordfeminine;
unicode = 00AA;
},
{
glyphname = guillemotleft;
layers = (
{
layerId = "E2E62ECD-1E64-44AC-9B50-C09427155398";
paths = (
{
closed = 1;
nodes = (
"380 319 LINE SMOOTH",
"454 390 OFFCURVE",
"454 406 OFFCURVE",
"426 422 OFFCURVE",
"419 423 QCURVE",
"414 418 LINE SMOOTH",
"408 412 OFFCURVE",
"390 396 OFFCURVE",
"365 374 OFFCURVE",
"330 347 OFFCURVE",
"291 318 OFFCURVE",
"240 284 OFFCURVE",
"213 268 QCURVE",
"205 259 OFFCURVE",
"205 241 QCURVE SMOOTH",
"205 230 OFFCURVE",
"212 227 QCURVE",
"278 185 OFFCURVE",
"380 108 OFFCURVE",
"417 75 OFFCURVE",
"418 73 QCURVE",
"425 74 OFFCURVE",
"453 90 OFFCURVE",
"453 106 OFFCURVE",
"379 177 QCURVE SMOOTH",
"307 248 OFFCURVE",
"307 248 QCURVE"
);
},
{
closed = 1;
nodes = (
"201 319 LINE SMOOTH",
"275 390 OFFCURVE",
"275 406 OFFCURVE",
"247 422 OFFCURVE",
"240 423 QCURVE",
"234 418 LINE",
"229 412 OFFCURVE",
"211 396 OFFCURVE",
"186 374 OFFCURVE",
"151 347 OFFCURVE",
"112 318 OFFCURVE",
"61 284 OFFCURVE",
"34 268 QCURVE",
"26 259 OFFCURVE",
"26 241 QCURVE SMOOTH",
"26 230 OFFCURVE",
"33 227 QCURVE",
"99 185 OFFCURVE",
"201 108 OFFCURVE",
"238 75 OFFCURVE",
"239 73 QCURVE",
"246 74 OFFCURVE",
"274 90 OFFCURVE",
"274 106 OFFCURVE",
"200 177 QCURVE SMOOTH",
"128 248 LINE"
);
}
);
width = 477;
}
);
note = guillemotleft;
unicode = 00AB;
},
{
glyphname = logicalnot;
layers = (
{
layerId = "E2E62ECD-1E64-44AC-9B50-C09427155398";
paths = (
{
closed = 1;
nodes = (
"28 356 OFFCURVE",
"34 356 QCURVE SMOOTH",
"423 356 LINE SMOOTH",
"434 356 OFFCURVE",
"434 346 QCURVE SMOOTH",
"434 161 LINE",
"434 160 LINE",
"433 158 OFFCURVE",
"437 154 OFFCURVE",
"441 154 QCURVE SMOOTH",
"445 154 LINE",
"496 161 OFFCURVE",
"504 169 QCURVE",
"504 416 LINE SMOOTH",
"504 427 OFFCURVE",
"492 427 QCURVE SMOOTH",
"43 427 OFFCURVE",
"43 427 QCURVE SMOOTH",
"33 427 OFFCURVE",
"28 366 QCURVE"
);
}
);
width = 539;
}
);
note = logicalnot;
unicode = 00AC;
},
{
glyphname = registered;
layers = (
{
layerId = "E2E62ECD-1E64-44AC-9B50-C09427155398";
paths = (
{
closed = 1;
nodes = (
"269 393 LINE SMOOTH",
"269 399 OFFCURVE",
"274 399 QCURVE SMOOTH",
"278 399 OFFCURVE",
"279 398 QCURVE",
"282 396 OFFCURVE",
"292 381 OFFCURVE",
"311 352 OFFCURVE",
"319 341 QCURVE SMOOTH",
"336 318 OFFCURVE",
"356 296 OFFCURVE",
"407 272 OFFCURVE",
"441 272 QCURVE SMOOTH",
"449 272 OFFCURVE",
"452 273 QCURVE",
"453 277 OFFCURVE",
"453 280 QCURVE SMOOTH",
"453 286 OFFCURVE",
"451 288 QCURVE",
"435 288 OFFCURVE",
"408 315 QCURVE SMOOTH",
"375 348 OFFCURVE",
"344 401 QCURVE",
"342 404 OFFCURVE",
"344 405 QCURVE",
"360 412 OFFCURVE",
"393 454 OFFCURVE",
"393 483 QCURVE SMOOTH",
"393 520 OFFCURVE",
"330 554 OFFCURVE",
"295 554 QCURVE SMOOTH",
"282 554 OFFCURVE",
"248 553 OFFCURVE",
"236 553 QCURVE SMOOTH",
"211 553 OFFCURVE",
"171 555 QCURVE",
"170 554 OFFCURVE",
"170 540 OFFCURVE",
"171 540 QCURVE SMOOTH",
"175 540 OFFCURVE",
"195 532 OFFCURVE",
"196 529 QCURVE",
"199 516 OFFCURVE",
"199 496 QCURVE SMOOTH",
"199 332 LINE SMOOTH",
"199 312 OFFCURVE",
"196 299 QCURVE",
"195 296 OFFCURVE",
"175 288 OFFCURVE",
"170 288 QCURVE SMOOTH",
"169 288 OFFCURVE",
"169 280 QCURVE SMOOTH",
"169 275 OFFCURVE",
"171 273 QCURVE",
"177 273 OFFCURVE",
"223 277 OFFCURVE",
"235 277 QCURVE SMOOTH",
"243 277 OFFCURVE",
"266 276 OFFCURVE",
"291 273 OFFCURVE",
"296 273 QCURVE",
"298 277 OFFCURVE",
"298 288 OFFCURVE",
"296 288 QCURVE SMOOTH",
"292 288 OFFCURVE",
"273 296 OFFCURVE",
"272 299 QCURVE SMOOTH",
"268 311 OFFCURVE",
"269 335 QCURVE"
);
},
{
closed = 1;
nodes = (
"291 425 LINE SMOOTH",
"277 425 OFFCURVE",
"269 430 OFFCURVE",
"269 441 QCURVE SMOOTH",
"269 487 LINE SMOOTH",
"269 516 OFFCURVE",
"270 521 QCURVE",
"270 526 OFFCURVE",
"276 532 OFFCURVE",
"290 532 QCURVE SMOOTH",
"323 532 OFFCURVE",
"323 475 QCURVE SMOOTH",
"323 425 OFFCURVE",
"294 425 QCURVE SMOOTH"
);
},
{
closed = 1;
nodes = (
"394 636 OFFCURVE",
"528 502 OFFCURVE",
"528 314 OFFCURVE",
"394 180 OFFCURVE",
"206 180 OFFCURVE",
"72 314 OFFCURVE",
"72 502 OFFCURVE",
"206 636 OFFCURVE"
);
},
{
closed = 1;
nodes = (
"413 136 OFFCURVE",
"574 296 OFFCURVE",
"574 522 OFFCURVE",
"413 682 OFFCURVE",
"187 682 OFFCURVE",
"27 522 OFFCURVE",
"27 296 OFFCURVE",
"187 136 OFFCURVE"
);
}
);
width = 599;
}
);
note = registered;
unicode = 00AE;
},
{
glyphname = macron;
layers = (
{
layerId = "E2E62ECD-1E64-44AC-9B50-C09427155398";
paths = (
{
closed = 1;
nodes = (
"57 535 OFFCURVE",
"58 532 QCURVE",
"63 530 OFFCURVE",
"63 530 QCURVE",
"312 530 LINE",
"315 534 LINE SMOOTH",
"318 538 OFFCURVE",
"325 567 OFFCURVE",
"326 589 QCURVE",
"326 599 OFFCURVE",
"320 599 QCURVE SMOOTH",
"319 599 LINE",
"73 599 LINE",
"72 599 LINE SMOOTH",
"70 599 OFFCURVE",
"64 591 OFFCURVE",
"58 563 OFFCURVE",
"57 541 QCURVE"
);
}
);
width = 384;
}
);
note = macron;
unicode = 00AF;
},
{
glyphname = degree;
layers = (
{
layerId = "E2E62ECD-1E64-44AC-9B50-C09427155398";
paths = (
{
closed = 1;
nodes = (
"139 590 OFFCURVE",
"170 559 OFFCURVE",
"170 513 OFFCURVE",
"139 482 OFFCURVE",
"95 482 OFFCURVE",
"64 513 OFFCURVE",
"64 559 OFFCURVE",
"95 590 OFFCURVE"
);
},
{
closed = 1;
nodes = (
"157 437 OFFCURVE",
"215 495 OFFCURVE",
"215 536 QCURVE SMOOTH",
"215 576 OFFCURVE",
"158 634 OFFCURVE",
"76 634 OFFCURVE",
"18 576 OFFCURVE",
"18 496 OFFCURVE",
"76 437 OFFCURVE",
"117 437 QCURVE SMOOTH"
);
}
);
width = 233;
}
);
note = degree;
unicode = 00B0;
},
{
glyphname = plusminus;
layers = (
{
layerId = "E2E62ECD-1E64-44AC-9B50-C09427155398";
paths = (
{
closed = 1;
nodes = (
"302 309 OFFCURVE",
"306 309 QCURVE SMOOTH",
"489 309 LINE",
"490 309 LINE SMOOTH",
"492 309 OFFCURVE",
"495 312 OFFCURVE",
"496 315 QCURVE",
"506 352 OFFCURVE",
"506 374 QCURVE SMOOTH",
"506 381 OFFCURVE",
"498 381 QCURVE SMOOTH",
"306 381 LINE SMOOTH",
"302 381 OFFCURVE",
"302 386 QCURVE SMOOTH",
"302 578 LINE",
"292 584 LINE",
"262 584 OFFCURVE",
"235 576 QCURVE SMOOTH",
"229 574 OFFCURVE",
"230 569 QCURVE",
"230 387 LINE SMOOTH",
"230 381 OFFCURVE",
"225 381 QCURVE SMOOTH",
"42 381 LINE",
"40 381 LINE SMOOTH",
"39 381 OFFCURVE",
"36 379 OFFCURVE",
"35 376 QCURVE SMOOTH",
"27 349 OFFCURVE",
"27 319 QCURVE SMOOTH",
"27 309 OFFCURVE",
"33 309 QCURVE SMOOTH",
"224 309 LINE SMOOTH",
"230 309 OFFCURVE",
"230 304 QCURVE SMOOTH",
"230 113 LINE SMOOTH",
"230 106 OFFCURVE",
"236 106 QCURVE SMOOTH",
"242 106 OFFCURVE",
"242 106 QCURVE",
"287 112 OFFCURVE",
"302 122 QCURVE",
"302 306 LINE SMOOTH"
);
},
{
closed = 1;
nodes = (
"43 71 LINE",
"42 71 LINE SMOOTH",
"40 71 OFFCURVE",
"37 69 OFFCURVE",
"36 66 QCURVE",
"35 64 OFFCURVE",
"28 12 QCURVE SMOOTH",
"27 6 OFFCURVE",
"31 -1 OFFCURVE",
"33 -1 OFFCURVE",
"34 -1 QCURVE SMOOTH",
"482 -1 LINE",
"490 7 OFFCURVE",
"498 60 QCURVE",
"499 65 OFFCURVE",
"494 71 OFFCURVE",
"491 71 OFFCURVE",
"490 71 QCURVE SMOOTH"
);
}
);
width = 530;
}
);
note = plusminus;
unicode = 00B1;
},
{
glyphname = uni00B2;
layers = (
{
layerId = "E2E62ECD-1E64-44AC-9B50-C09427155398";
paths = (
{
closed = 1;
nodes = (
"146 586 OFFCURVE",
"173 549 OFFCURVE",
"173 528 QCURVE SMOOTH",
"173 434 OFFCURVE",
"27 288 QCURVE",
"26 285 OFFCURVE",
"26 279 QCURVE SMOOTH",
"26 266 OFFCURVE",
"39 253 QCURVE",
"44 253 OFFCURVE",
"167 254 QCURVE SMOOTH",
"270 253 LINE",
"271 258 OFFCURVE",
"294 345 OFFCURVE",
"298 363 QCURVE",
"293 368 OFFCURVE",
"278 368 QCURVE SMOOTH",
"272 368 OFFCURVE",
"271 364 QCURVE",
"269 361 OFFCURVE",
"260 340 OFFCURVE",
"255 333 OFFCURVE",
"244 320 OFFCURVE",
"228 316 OFFCURVE",
"217 316 QCURVE SMOOTH",
"103 316 LINE SMOOTH",
"101 316 OFFCURVE",
"99 320 OFFCURVE",
"101 322 QCURVE",
"162 362 OFFCURVE",
"260 477 OFFCURVE",
"260 534 QCURVE SMOOTH",
"260 583 OFFCURVE",
"199 644 OFFCURVE",
"151 644 QCURVE SMOOTH",
"107 644 OFFCURVE",
"38 595 OFFCURVE",
"27 574 QCURVE",
"27 572 LINE",
"26 567 OFFCURVE",
"26 564 QCURVE SMOOTH",
"26 559 OFFCURVE",
"38 540 OFFCURVE",
"43 540 QCURVE SMOOTH",
"44 540 OFFCURVE",
"65 563 OFFCURVE",
"101 586 OFFCURVE",
"121 586 QCURVE SMOOTH"
);
}
);
width = 322;
}
);
note = uni00B2;
unicode = 00B2;
},
{
glyphname = uni00B3;
layers = (
{
layerId = "E2E62ECD-1E64-44AC-9B50-C09427155398";
paths = (
{
closed = 1;
nodes = (
"124 645 OFFCURVE",
"54 605 OFFCURVE",
"38 580 QCURVE",
"35 576 OFFCURVE",
"51 559 OFFCURVE",
"58 559 QCURVE SMOOTH",
"60 559 OFFCURVE",
"104 596 OFFCURVE",
"123 596 QCURVE SMOOTH",
"136 596 OFFCURVE",
"159 574 OFFCURVE",
"159 554 QCURVE SMOOTH",
"159 487 OFFCURVE",
"83 470 QCURVE",
"81 464 OFFCURVE",
"81 456 QCURVE SMOOTH",
"81 449 OFFCURVE",
"87 440 QCURVE",
"110 440 LINE SMOOTH",
"149 440 OFFCURVE",
"188 406 OFFCURVE",
"188 324 OFFCURVE",
"153 282 OFFCURVE",
"123 282 QCURVE SMOOTH",
"107 282 OFFCURVE",
"72 315 OFFCURVE",
"48 315 OFFCURVE",
"26 297 OFFCURVE",
"26 284 QCURVE SMOOTH",
"26 270 OFFCURVE",
"29 266 QCURVE",
"53 246 OFFCURVE",
"102 246 QCURVE SMOOTH",
"169 246 OFFCURVE",
"273 317 OFFCURVE",
"273 382 QCURVE SMOOTH",
"273 428 OFFCURVE",
"199 472 OFFCURVE",
"169 472 QCURVE",
"194 485 OFFCURVE",
"241 541 OFFCURVE",
"241 574 QCURVE SMOOTH",
"241 609 OFFCURVE",
"187 645 OFFCURVE",
"159 645 QCURVE SMOOTH"
);
}
);
width = 298;
}
);
note = uni00B3;
unicode = 00B3;
},
{
glyphname = acute;
layers = (
{
layerId = "E2E62ECD-1E64-44AC-9B50-C09427155398";
paths = (
{
closed = 1;
nodes = (
"200 667 OFFCURVE",
"177 687 OFFCURVE",
"154 687 QCURVE SMOOTH",
"129 687 OFFCURVE",
"120 678 QCURVE",
"103 658 OFFCURVE",
"57 592 OFFCURVE",
"27 543 OFFCURVE",
"27 540 QCURVE SMOOTH",
"27 535 OFFCURVE",
"39 522 OFFCURVE",
"44 522 QCURVE SMOOTH",
"57 522 OFFCURVE",
"200 633 OFFCURVE",
"200 658 QCURVE SMOOTH"
);
}
);
width = 234;
}
);
note = acute;
unicode = 00B4;
},
{
glyphname = uni00B5;
layers = (
{
layerId = "E2E62ECD-1E64-44AC-9B50-C09427155398";
paths = (
{
closed = 1;
nodes = (
"256 -9 OFFCURVE",
"315 62 OFFCURVE",
"343 128 QCURVE",
"350 76 OFFCURVE",
"402 -3 OFFCURVE",
"436 -4 QCURVE SMOOTH",
"466 -4 OFFCURVE",
"519 43 OFFCURVE",
"529 76 QCURVE",
"529 90 OFFCURVE",
"526 96 QCURVE",
"518 109 OFFCURVE",
"513 109 QCURVE",
"506 100 OFFCURVE",
"468 78 OFFCURVE",
"451 78 QCURVE SMOOTH",
"429 78 OFFCURVE",
"406 119 OFFCURVE",
"400 176 OFFCURVE",
"401 223 QCURVE",
"406 246 LINE SMOOTH",
"429 354 OFFCURVE",
"429 409 QCURVE SMOOTH",
"429 418 OFFCURVE",
"363 446 OFFCURVE",
"353 446 QCURVE SMOOTH",
"344 446 OFFCURVE",
"307 432 OFFCURVE",
"303 426 QCURVE",
"303 298 LINE",
"303 227 LINE",
"300 198 OFFCURVE",
"291 155 OFFCURVE",
"273 113 OFFCURVE",
"239 90 OFFCURVE",
"215 90 QCURVE SMOOTH",
"188 90 OFFCURVE",
"152 164 OFFCURVE",
"152 223 QCURVE",
"158 266 LINE",
"175 346 OFFCURVE",
"175 409 QCURVE SMOOTH",
"175 418 OFFCURVE",
"120 446 OFFCURVE",
"111 446 QCURVE SMOOTH",
"101 446 OFFCURVE",
"64 432 OFFCURVE",
"60 426 QCURVE",
"60 298 LINE SMOOTH",
"60 287 OFFCURVE",
"64 216 OFFCURVE",
"64 204 QCURVE",
"56 138 OFFCURVE",
"43 -158 OFFCURVE",
"43 -190 QCURVE SMOOTH",
"43 -199 OFFCURVE",
"98 -227 OFFCURVE",
"113 -227 QCURVE SMOOTH",
"126 -227 OFFCURVE",
"159 -213 OFFCURVE",
"163 -207 QCURVE",
"153 -155 OFFCURVE",
"144 -29 OFFCURVE",
"141 75 OFFCURVE",
"141 76 QCURVE",
"141 75 OFFCURVE",
"149 54 OFFCURVE",
"151 49 OFFCURVE",
"158 30 OFFCURVE",
"163 23 OFFCURVE",
"172 8 OFFCURVE",
"179 2 OFFCURVE",
"190 -6 OFFCURVE",
"202 -9 OFFCURVE",
"209 -9 QCURVE SMOOTH"
);
}
);
width = 535;
}
);
note = uni00B5;
unicode = 00B5;
},
{
glyphname = paragraph;
layers = (
{
layerId = "E2E62ECD-1E64-44AC-9B50-C09427155398";
paths = (
{
closed = 1;
nodes = (
"279 269 OFFCURVE",
"287 270 QCURVE",
"303 274 OFFCURVE",
"313 274 QCURVE SMOOTH",
"317 274 OFFCURVE",
"317 270 QCURVE SMOOTH",
"317 103 OFFCURVE",
"313 58 QCURVE",
"313 44 OFFCURVE",
"299 44 QCURVE SMOOTH",
"281 44 OFFCURVE",
"281 57 QCURVE",
"279 261 LINE"
);
},
{
closed = 1;
nodes = (
"173 652 OFFCURVE",
"110 632 OFFCURVE",
"52 589 OFFCURVE",
"16 511 OFFCURVE",
"16 460 QCURVE SMOOTH",
"16 375 OFFCURVE",
"113 263 OFFCURVE",
"197 263 QCURVE SMOOTH",
"217 263 OFFCURVE",
"217 256 QCURVE SMOOTH",
"217 183 LINE SMOOTH",
"217 71 OFFCURVE",
"212 50 QCURVE",
"210 43 OFFCURVE",
"169 28 OFFCURVE",
"161 28 QCURVE SMOOTH",
"158 28 OFFCURVE",
"157 0 OFFCURVE",
"159 -4 QCURVE",
"172 -3 OFFCURVE",
"218 0 OFFCURVE",
"258 2 OFFCURVE",
"278 2 QCURVE SMOOTH",
"314 2 OFFCURVE",
"420 -3 OFFCURVE",
"439 -4 QCURVE",
"443 0 OFFCURVE",
"443 18 QCURVE SMOOTH",
"443 30 OFFCURVE",
"439 30 QCURVE SMOOTH",
"428 30 OFFCURVE",
"388 44 OFFCURVE",
"385 52 QCURVE",
"378 78 OFFCURVE",
"378 290 QCURVE SMOOTH",
"378 292 OFFCURVE",
"383 294 QCURVE",
"396 298 OFFCURVE",
"408 304 QCURVE",
"428 316 OFFCURVE",
"428 333 QCURVE SMOOTH",
"428 346 OFFCURVE",
"425 352 QCURVE",
"382 343 LINE",
"377 343 OFFCURVE",
"377 348 QCURVE SMOOTH",
"377 352 OFFCURVE",
"376 464 OFFCURVE",
"376 500 QCURVE SMOOTH",
"376 594 OFFCURVE",
"379 604 QCURVE",
"382 612 OFFCURVE",
"421 622 OFFCURVE",
"434 622 QCURVE SMOOTH",
"438 622 OFFCURVE",
"442 650 OFFCURVE",
"438 654 QCURVE",
"317 648 LINE",
"288 648 OFFCURVE",
"236 652 OFFCURVE",
"206 652 QCURVE SMOOTH"
);
},
{
closed = 1;
nodes = (
"281 606 OFFCURVE",
"298 606 QCURVE SMOOTH",
"305 606 OFFCURVE",
"315 599 OFFCURVE",
"315 596 QCURVE",
"317 570 OFFCURVE",
"317 340 QCURVE SMOOTH",
"317 336 OFFCURVE",
"310 332 QCURVE",
"298 326 OFFCURVE",
"287 326 QCURVE SMOOTH",
"279 326 OFFCURVE",
"279 332 QCURVE SMOOTH",
"279 434 OFFCURVE",
"281 594 QCURVE SMOOTH"
);
}
);
width = 468;
}
);
note = paragraph;
unicode = 00B6;
},
{
glyphname = periodcentered;
layers = (
{
layerId = "E2E62ECD-1E64-44AC-9B50-C09427155398";
paths = (
{
closed = 1;
nodes = (
"137 188 OFFCURVE",
"178 234 OFFCURVE",
"178 265 QCURVE SMOOTH",
"178 295 OFFCURVE",
"135 338 OFFCURVE",
"105 338 QCURVE SMOOTH",
"74 338 OFFCURVE",
"31 295 OFFCURVE",
"31 235 OFFCURVE",
"76 188 OFFCURVE",
"107 188 QCURVE SMOOTH"
);
}
);
width = 205;
}
);
note = periodcentered;
unicode = 00B7;
},
{
glyphname = cedilla;
layers = (
{
layerId = "E2E62ECD-1E64-44AC-9B50-C09427155398";
paths = (
{
closed = 1;
nodes = (
"240 -2 LINE",
"208 -2 LINE",
"204 -8 OFFCURVE",
"185 -49 OFFCURVE",
"180 -57 QCURVE",
"179 -60 OFFCURVE",
"192 -73 OFFCURVE",
"194 -73 QCURVE",
"209 -67 OFFCURVE",
"224 -67 QCURVE SMOOTH",
"248 -67 OFFCURVE",
"248 -95 QCURVE SMOOTH",
"248 -107 OFFCURVE",
"228 -124 OFFCURVE",
"209 -124 QCURVE SMOOTH",
"196 -124 OFFCURVE",
"178 -116 QCURVE",
"159 -109 LINE",
"152 -109 OFFCURVE",
"152 -123 QCURVE SMOOTH",
"152 -134 OFFCURVE",
"154 -140 QCURVE",
"170 -156 OFFCURVE",
"202 -156 QCURVE SMOOTH",
"247 -156 OFFCURVE",
"299 -114 OFFCURVE",
"299 -78 QCURVE SMOOTH",
"299 -58 OFFCURVE",
"267 -27 OFFCURVE",
"245 -27 QCURVE SMOOTH",
"238 -27 OFFCURVE",
"226 -28 QCURVE"
);
}
);
width = 443;
}
);
note = cedilla;
unicode = 00B8;
},
{
glyphname = uni00B9;
layers = (
{
layerId = "E2E62ECD-1E64-44AC-9B50-C09427155398";
paths = (
{
closed = 1;
nodes = (
"75 560 OFFCURVE",
"81 560 QCURVE SMOOTH",
"94 560 OFFCURVE",
"94 529 QCURVE SMOOTH",
"94 330 LINE SMOOTH",
"94 312 OFFCURVE",
"83 297 QCURVE",
"78 291 OFFCURVE",
"40 281 OFFCURVE",
"32 281 QCURVE SMOOTH",
"30 281 OFFCURVE",
"30 254 OFFCURVE",
"32 252 QCURVE",
"36 252 OFFCURVE",
"130 257 OFFCURVE",
"160 257 OFFCURVE",
"241 252 OFFCURVE",
"248 252 QCURVE",
"251 255 OFFCURVE",
"251 266 QCURVE SMOOTH",
"251 281 OFFCURVE",
"247 281 QCURVE SMOOTH",
"239 281 OFFCURVE",
"203 289 OFFCURVE",
"197 295 QCURVE",
"187 306 OFFCURVE",
"187 331 QCURVE SMOOTH",
"187 543 LINE SMOOTH",
"187 580 OFFCURVE",
"200 628 QCURVE",
"199 631 OFFCURVE",
"186 648 OFFCURVE",
"183 648 QCURVE SMOOTH",
"182 648 LINE SMOOTH",
"179 648 OFFCURVE",
"23 572 QCURVE",
"23 563 LINE SMOOTH",
"23 557 OFFCURVE",
"34 544 OFFCURVE",
"38 543 QCURVE"
);
}
);
width = 277;
}
);
note = uni00B9;
unicode = 00B9;
},
{
glyphname = ordmasculine;
layers = (
{
layerId = "E2E62ECD-1E64-44AC-9B50-C09427155398";
paths = (
{
closed = 1;
nodes = (
"247 517 OFFCURVE",
"247 377 QCURVE SMOOTH",
"247 340 OFFCURVE",
"221 284 OFFCURVE",
"192 284 QCURVE SMOOTH",
"123 284 OFFCURVE",
"123 421 QCURVE SMOOTH",
"123 460 OFFCURVE",
"148 517 OFFCURVE",
"176 517 QCURVE SMOOTH"
);
},
{
closed = 1;
nodes = (
"252 247 OFFCURVE",
"344 336 OFFCURVE",
"344 464 OFFCURVE",
"251 554 OFFCURVE",
"119 554 OFFCURVE",
"27 464 OFFCURVE",
"27 336 OFFCURVE",
"119 247 OFFCURVE",
"185 247 QCURVE SMOOTH"
);
}
);
width = 370;
}
);
note = ordmasculine;
unicode = 00BA;
},
{
glyphname = guillemotright;
layers = (
{
layerId = "E2E62ECD-1E64-44AC-9B50-C09427155398";
paths = (
{
closed = 1;
nodes = (
"100 177 LINE SMOOTH",
"26 106 OFFCURVE",
"26 90 OFFCURVE",
"54 74 OFFCURVE",
"61 73 QCURVE",
"62 75 OFFCURVE",
"99 108 OFFCURVE",
"201 185 OFFCURVE",
"267 227 QCURVE",
"274 230 OFFCURVE",
"274 241 QCURVE SMOOTH",
"274 259 OFFCURVE",
"266 268 QCURVE",
"239 284 OFFCURVE",
"188 318 OFFCURVE",
"149 347 OFFCURVE",
"114 374 OFFCURVE",
"89 396 OFFCURVE",
"71 412 OFFCURVE",
"66 418 QCURVE",
"60 423 OFFCURVE",
"60 423 QCURVE",
"53 422 OFFCURVE",
"25 406 OFFCURVE",
"25 390 OFFCURVE",
"99 319 QCURVE SMOOTH",
"172 248 OFFCURVE",
"172 248 QCURVE"
);
},
{
closed = 1;
nodes = (
"279 177 LINE SMOOTH",
"205 106 OFFCURVE",
"205 90 OFFCURVE",
"233 74 OFFCURVE",
"240 73 QCURVE",
"241 75 OFFCURVE",
"278 108 OFFCURVE",
"380 185 OFFCURVE",
"446 227 QCURVE",
"453 230 OFFCURVE",
"453 241 QCURVE SMOOTH",
"453 259 OFFCURVE",
"445 268 QCURVE",
"418 284 OFFCURVE",
"367 318 OFFCURVE",
"328 347 OFFCURVE",
"293 374 OFFCURVE",
"268 396 OFFCURVE",
"250 412 OFFCURVE",
"244 418 QCURVE SMOOTH",
"239 423 LINE",
"232 422 OFFCURVE",
"204 406 OFFCURVE",
"204 390 OFFCURVE",
"278 319 QCURVE SMOOTH",
"351 248 LINE"
);
}
);
width = 479;
}
);
note = guillemotright;
unicode = 00BB;
},
{
glyphname = onequarter;
layers = (
{
layerId = "E2E62ECD-1E64-44AC-9B50-C09427155398";
paths = (
{
closed = 1;
nodes = (
"74 560 OFFCURVE",
"80 560 QCURVE SMOOTH",
"93 560 OFFCURVE",
"93 529 QCURVE SMOOTH",
"93 330 LINE SMOOTH",
"93 312 OFFCURVE",
"82 297 QCURVE",
"77 291 OFFCURVE",
"39 281 OFFCURVE",
"31 281 QCURVE SMOOTH",
"29 281 OFFCURVE",
"29 254 OFFCURVE",
"31 252 QCURVE",
"35 252 OFFCURVE",
"129 257 OFFCURVE",
"159 257 OFFCURVE",
"240 252 OFFCURVE",
"247 252 QCURVE",
"250 255 OFFCURVE",
"250 266 QCURVE SMOOTH",
"250 281 OFFCURVE",
"246 281 QCURVE SMOOTH",
"238 281 OFFCURVE",
"202 289 OFFCURVE",
"196 295 QCURVE",
"186 306 OFFCURVE",
"186 331 QCURVE SMOOTH",
"186 543 LINE SMOOTH",
"186 580 OFFCURVE",
"199 628 QCURVE",
"198 631 OFFCURVE",
"185 648 OFFCURVE",
"182 648 QCURVE SMOOTH",
"181 648 LINE SMOOTH",
"178 648 OFFCURVE",
"22 572 QCURVE",
"22 563 LINE SMOOTH",
"22 557 OFFCURVE",
"33 544 OFFCURVE",
"37 543 QCURVE"
);
},
{
closed = 1;
nodes = (
"619 -3 OFFCURVE",
"641 2 QCURVE",
"641 93 LINE SMOOTH",
"641 98 OFFCURVE",
"645 98 QCURVE SMOOTH",
"670 98 LINE",
"672 98 LINE",
"673 99 OFFCURVE",
"676 102 OFFCURVE",
"676 104 QCURVE SMOOTH",
"676 154 OFFCURVE",
"666 154 QCURVE SMOOTH",
"647 154 LINE",
"641 156 OFFCURVE",
"641 158 QCURVE SMOOTH",
"641 391 LINE SMOOTH",
"641 398 OFFCURVE",
"624 398 QCURVE SMOOTH",
"612 398 OFFCURVE",
"604 388 QCURVE SMOOTH",
"382 123 LINE",
"382 105 OFFCURVE",
"390 100 QCURVE",
"546 100 LINE SMOOTH",
"551 100 OFFCURVE",
"552 97 QCURVE",
"552 3 LINE SMOOTH",
"552 -3 OFFCURVE",
"595 -3 QCURVE SMOOTH"
);
},
{
closed = 1;
nodes = (
"552 159 OFFCURVE",
"546 156 QCURVE",
"467 156 LINE SMOOTH",
"463 156 OFFCURVE",
"463 162 QCURVE SMOOTH",
"463 164 LINE",
"548 266 LINE",
"551 267 LINE",
"552 267 OFFCURVE",
"552 261 QCURVE SMOOTH",
"552 160 LINE SMOOTH"
);
},
{
closed = 1;
nodes = (
"578 618 LINE",
"578 620 OFFCURVE",
"576 626 OFFCURVE",
"574 628 QCURVE SMOOTH",
"556 647 OFFCURVE",
"538 647 QCURVE SMOOTH",
"534 647 OFFCURVE",
"532 644 QCURVE",
"187 12 LINE",
"189 3 LINE",
"204 -16 OFFCURVE",
"225 -16 QCURVE SMOOTH",
"229 -16 OFFCURVE",
"229 -14 QCURVE",
"577 617 LINE"
);
}
);
width = 699;
}
);
note = onequarter;
unicode = 00BC;
},
{
glyphname = onehalf;
layers = (
{
layerId = "E2E62ECD-1E64-44AC-9B50-C09427155398";
paths = (
{
closed = 1;
nodes = (
"574 332 OFFCURVE",
"601 295 OFFCURVE",
"601 274 QCURVE SMOOTH",
"601 180 OFFCURVE",
"455 34 QCURVE",
"451 15 OFFCURVE",
"467 -1 QCURVE",
"472 -1 OFFCURVE",
"595 0 QCURVE SMOOTH",
"698 -1 LINE",
"699 4 OFFCURVE",
"722 91 OFFCURVE",
"726 109 QCURVE",
"721 114 OFFCURVE",
"706 114 QCURVE SMOOTH",
"700 114 OFFCURVE",
"699 110 QCURVE",
"697 107 OFFCURVE",
"688 86 OFFCURVE",
"683 79 OFFCURVE",
"672 66 OFFCURVE",
"656 62 OFFCURVE",
"645 62 QCURVE SMOOTH",
"531 62 LINE SMOOTH",
"529 62 OFFCURVE",
"527 66 OFFCURVE",
"529 68 QCURVE",
"590 108 OFFCURVE",
"688 223 OFFCURVE",
"688 280 QCURVE SMOOTH",
"688 329 OFFCURVE",
"627 390 OFFCURVE",
"579 390 QCURVE SMOOTH",
"535 390 OFFCURVE",
"466 341 OFFCURVE",
"455 320 QCURVE",
"455 318 LINE",
"454 313 OFFCURVE",
"454 310 QCURVE SMOOTH",
"454 305 OFFCURVE",
"466 286 OFFCURVE",
"471 286 QCURVE SMOOTH",
"472 286 OFFCURVE",
"493 309 OFFCURVE",
"529 332 OFFCURVE",
"549 332 QCURVE SMOOTH"
);
},
{
closed = 1;
nodes = (
"74 560 OFFCURVE",
"80 560 QCURVE SMOOTH",
"93 560 OFFCURVE",
"93 529 QCURVE SMOOTH",
"93 330 LINE SMOOTH",
"93 312 OFFCURVE",
"82 297 QCURVE",
"77 291 OFFCURVE",
"39 281 OFFCURVE",
"31 281 QCURVE SMOOTH",
"29 281 OFFCURVE",
"29 254 OFFCURVE",
"31 252 QCURVE",
"35 252 OFFCURVE",
"129 257 OFFCURVE",
"159 257 OFFCURVE",
"240 252 OFFCURVE",
"247 252 QCURVE",
"250 255 OFFCURVE",
"250 266 QCURVE SMOOTH",
"250 281 OFFCURVE",
"246 281 QCURVE SMOOTH",
"238 281 OFFCURVE",
"202 289 OFFCURVE",
"196 295 QCURVE",
"186 306 OFFCURVE",
"186 331 QCURVE SMOOTH",
"186 543 LINE SMOOTH",
"186 580 OFFCURVE",
"199 628 QCURVE",
"198 631 OFFCURVE",
"185 648 OFFCURVE",
"182 648 QCURVE SMOOTH",
"181 648 LINE SMOOTH",
"178 648 OFFCURVE",
"22 572 QCURVE",
"22 563 LINE SMOOTH",
"22 557 OFFCURVE",
"33 544 OFFCURVE",
"37 543 QCURVE"
);
},
{
closed = 1;
nodes = (
"578 618 LINE",
"578 620 OFFCURVE",
"576 626 OFFCURVE",
"574 628 QCURVE SMOOTH",
"556 647 OFFCURVE",
"538 647 QCURVE SMOOTH",
"534 647 OFFCURVE",
"532 644 QCURVE",
"187 12 LINE",
"186 11 LINE",
"186 10 OFFCURVE",
"186 6 OFFCURVE",
"188 4 QCURVE",
"204 -16 OFFCURVE",
"225 -16 QCURVE SMOOTH",
"229 -16 OFFCURVE",
"229 -14 QCURVE",
"577 617 LINE"
);
}
);
width = 748;
}
);
note = onehalf;
unicode = 00BD;
},
{
glyphname = threequarters;
layers = (
{
layerId = "E2E62ECD-1E64-44AC-9B50-C09427155398";
paths = (
{
closed = 1;
nodes = (
"121 645 OFFCURVE",
"52 605 OFFCURVE",
"36 580 QCURVE",
"33 576 OFFCURVE",
"49 559 OFFCURVE",
"56 559 QCURVE SMOOTH",
"58 559 OFFCURVE",
"101 596 OFFCURVE",
"120 596 QCURVE SMOOTH",
"134 596 OFFCURVE",
"156 574 OFFCURVE",
"156 554 QCURVE SMOOTH",
"156 487 OFFCURVE",
"80 470 QCURVE",
"78 464 OFFCURVE",
"78 456 QCURVE SMOOTH",
"78 449 OFFCURVE",
"84 440 QCURVE",
"106 440 LINE SMOOTH",
"146 440 OFFCURVE",
"185 406 OFFCURVE",
"185 324 OFFCURVE",
"150 282 OFFCURVE",
"120 282 QCURVE SMOOTH",
"104 282 OFFCURVE",
"69 315 OFFCURVE",
"45 315 OFFCURVE",
"23 297 OFFCURVE",
"23 284 QCURVE SMOOTH",
"23 270 OFFCURVE",
"26 266 QCURVE",
"50 246 OFFCURVE",
"99 246 QCURVE SMOOTH",
"166 246 OFFCURVE",
"270 317 OFFCURVE",
"270 382 QCURVE SMOOTH",
"270 428 OFFCURVE",
"196 472 OFFCURVE",
"166 472 QCURVE",
"191 485 OFFCURVE",
"238 541 OFFCURVE",
"238 574 QCURVE SMOOTH",
"238 609 OFFCURVE",
"184 645 OFFCURVE",
"156 645 QCURVE SMOOTH"
);
},
{
closed = 1;
nodes = (
"613 -3 OFFCURVE",
"635 2 QCURVE",
"635 93 LINE SMOOTH",
"635 98 OFFCURVE",
"639 98 QCURVE SMOOTH",
"664 98 LINE",
"666 98 LINE",
"667 99 OFFCURVE",
"670 102 OFFCURVE",
"670 104 QCURVE SMOOTH",
"670 154 OFFCURVE",
"660 154 QCURVE SMOOTH",
"641 154 LINE",
"635 156 OFFCURVE",
"635 158 QCURVE SMOOTH",
"635 391 LINE SMOOTH",
"635 398 OFFCURVE",
"618 398 QCURVE SMOOTH",
"606 398 OFFCURVE",
"598 388 QCURVE SMOOTH",
"376 123 LINE",
"376 105 OFFCURVE",
"384 100 QCURVE",
"540 100 LINE SMOOTH",
"545 100 OFFCURVE",
"546 97 QCURVE",
"546 3 LINE SMOOTH",
"546 -3 OFFCURVE",
"589 -3 QCURVE SMOOTH"
);
},
{
closed = 1;
nodes = (
"546 267 OFFCURVE",
"546 261 QCURVE SMOOTH",
"546 160 LINE SMOOTH",
"546 159 OFFCURVE",
"540 156 QCURVE",
"461 156 LINE SMOOTH",
"457 156 OFFCURVE",
"457 162 QCURVE SMOOTH",
"457 164 LINE",
"542 266 LINE",
"545 267 LINE"
);
},
{
closed = 1;
nodes = (
"572 618 LINE",
"572 620 OFFCURVE",
"570 626 OFFCURVE",
"568 628 QCURVE SMOOTH",
"550 647 OFFCURVE",
"531 647 QCURVE SMOOTH",
"527 647 OFFCURVE",
"526 644 QCURVE",
"181 12 LINE",
"180 11 LINE",
"180 10 OFFCURVE",
"180 6 OFFCURVE",
"182 4 QCURVE",
"198 -16 OFFCURVE",
"217 -16 QCURVE SMOOTH",
"221 -16 OFFCURVE",
"223 -14 QCURVE",
"571 617 LINE"
);
}
);
width = 693;
}
);
note = threequarters;
unicode = 00BE;
},
{
glyphname = questiondown;
layers = (
{
layerId = "E2E62ECD-1E64-44AC-9B50-C09427155398";
paths = (
{
closed = 1;
nodes = (
"319 405 OFFCURVE",
"272 449 OFFCURVE",
"243 449 QCURVE SMOOTH",
"213 449 OFFCURVE",
"172 403 OFFCURVE",
"172 341 OFFCURVE",
"215 299 OFFCURVE",
"247 299 QCURVE SMOOTH",
"276 299 OFFCURVE",
"319 341 OFFCURVE",
"319 372 QCURVE SMOOTH"
);
},
{
closed = 1;
nodes = (
"222 203 OFFCURVE",
"221 184 OFFCURVE",
"212 167 OFFCURVE",
"208 159 OFFCURVE",
"190 146 OFFCURVE",
"182 141 OFFCURVE",
"151 125 OFFCURVE",
"144 121 QCURVE SMOOTH",
"81 87 OFFCURVE",
"23 15 OFFCURVE",
"23 -55 QCURVE SMOOTH",
"23 -137 OFFCURVE",
"171 -228 OFFCURVE",
"259 -232 QCURVE",
"292 -232 OFFCURVE",
"318 -219 QCURVE",
"327 -206 OFFCURVE",
"327 -176 QCURVE SMOOTH",
"327 -150 OFFCURVE",
"286 -108 OFFCURVE",
"254 -108 QCURVE SMOOTH",
"232 -108 OFFCURVE",
"183 -122 OFFCURVE",
"166 -122 QCURVE SMOOTH",
"109 -122 OFFCURVE",
"109 -72 QCURVE SMOOTH",
"109 -42 OFFCURVE",
"156 7 OFFCURVE",
"238 40 QCURVE SMOOTH",
"272 54 OFFCURVE",
"281 139 OFFCURVE",
"267 226 QCURVE",
"266 234 OFFCURVE",
"259 248 OFFCURVE",
"255 248 QCURVE SMOOTH",
"243 248 OFFCURVE",
"222 230 OFFCURVE",
"222 217 QCURVE SMOOTH"
);
}
);
width = 349;
}
);
note = questiondown;
unicode = 00BF;
},
{
glyphname = AE;
layers = (
{
layerId = "E2E62ECD-1E64-44AC-9B50-C09427155398";
paths = (
{
closed = 1;
nodes = (
"147 132 LINE",
"106 69 LINE",
"97 57 OFFCURVE",
"28 33 OFFCURVE",
"16 33 QCURVE SMOOTH",
"15 33 OFFCURVE",
"10 13 OFFCURVE",
"10 8 QCURVE SMOOTH",
"10 -2 OFFCURVE",
"12 -4 QCURVE",
"29 -3 OFFCURVE",
"113 4 OFFCURVE",
"139 4 QCURVE SMOOTH",
"164 4 OFFCURVE",
"240 -3 OFFCURVE",
"254 -4 QCURVE",
"257 2 OFFCURVE",
"263 33 OFFCURVE",
"260 33 QCURVE SMOOTH",
"224 33 OFFCURVE",
"200 44 QCURVE",
"187 51 OFFCURVE",
"190 67 QCURVE SMOOTH",
"193 84 OFFCURVE",
"223 129 QCURVE SMOOTH",
"270 205 LINE",
"272 210 OFFCURVE",
"278 210 QCURVE SMOOTH",
"313 211 OFFCURVE",
"370 211 QCURVE SMOOTH",
"413 211 OFFCURVE",
"439 210 QCURVE",
"448 210 OFFCURVE",
"448 200 QCURVE SMOOTH",
"448 135 LINE SMOOTH",
"448 79 OFFCURVE",
"442 56 QCURVE",
"439 49 OFFCURVE",
"393 33 OFFCURVE",
"382 33 QCURVE SMOOTH",
"378 33 OFFCURVE",
"378 13 QCURVE SMOOTH",
"378 0 OFFCURVE",
"382 -4 QCURVE",
"522 2 LINE",
"565 2 OFFCURVE",
"807 -2 OFFCURVE",
"864 -2 QCURVE",
"869 32 OFFCURVE",
"918 170 QCURVE",
"912 176 OFFCURVE",
"888 176 QCURVE SMOOTH",
"876 176 OFFCURVE",
"874 170 QCURVE",
"862 139 OFFCURVE",
"819 89 OFFCURVE",
"802 80 QCURVE SMOOTH",
"752 54 OFFCURVE",
"690 54 QCURVE SMOOTH",
"664 54 LINE SMOOTH",
"601 54 OFFCURVE",
"596 70 QCURVE SMOOTH",
"588 93 OFFCURVE",
"588 141 QCURVE SMOOTH",
"588 295 LINE SMOOTH",
"588 304 OFFCURVE",
"660 304 QCURVE SMOOTH",
"725 304 OFFCURVE",
"738 296 QCURVE",
"739 295 OFFCURVE",
"745 292 OFFCURVE",
"747 290 OFFCURVE",
"752 282 OFFCURVE",
"756 272 OFFCURVE",
"762 252 OFFCURVE",
"766 238 QCURVE",
"769 230 OFFCURVE",
"782 230 QCURVE SMOOTH",
"799 230 OFFCURVE",
"803 234 QCURVE",
"803 423 LINE",
"798 428 OFFCURVE",
"781 428 QCURVE SMOOTH",
"767 428 OFFCURVE",
"766 421 QCURVE",
"762 407 OFFCURVE",
"760 392 QCURVE SMOOTH",
"757 367 OFFCURVE",
"752 363 QCURVE",
"746 359 OFFCURVE",
"684 359 QCURVE SMOOTH",
"631 359 LINE SMOOTH",
"588 359 OFFCURVE",
"588 365 QCURVE SMOOTH",
"588 519 LINE SMOOTH",
"588 573 OFFCURVE",
"593 597 QCURVE",
"595 610 OFFCURVE",
"658 610 QCURVE SMOOTH",
"696 610 LINE SMOOTH",
"735 610 OFFCURVE",
"817 556 OFFCURVE",
"836 518 QCURVE",
"839 511 OFFCURVE",
"850 511 QCURVE SMOOTH",
"868 511 OFFCURVE",
"873 516 QCURVE",
"845 654 OFFCURVE",
"844 664 QCURVE",
"788 664 OFFCURVE",
"566 656 OFFCURVE",
"521 656 QCURVE SMOOTH",
"454 656 OFFCURVE",
"383 664 QCURVE",
"380 661 OFFCURVE",
"380 627 OFFCURVE",
"384 627 QCURVE SMOOTH",
"395 627 OFFCURVE",
"433 609 OFFCURVE",
"433 598 QCURVE SMOOTH",
"433 590 OFFCURVE",
"429 584 QCURVE SMOOTH"
);
},
{
closed = 1;
nodes = (
"448 273 OFFCURVE",
"439 273 QCURVE SMOOTH",
"428 273 OFFCURVE",
"411 272 OFFCURVE",
"397 271 OFFCURVE",
"383 271 QCURVE SMOOTH",
"348 271 OFFCURVE",
"318 274 QCURVE",
"316 274 OFFCURVE",
"316 278 QCURVE",
"438 475 LINE SMOOTH",
"441 480 OFFCURVE",
"445 480 QCURVE SMOOTH",
"448 480 OFFCURVE",
"448 475 QCURVE SMOOTH",
"448 282 LINE SMOOTH"
);
}
);
width = 931;
}
);
note = AE;
unicode = 00C6;
},
{
glyphname = Eth;
layers = (
{
layerId = "E2E62ECD-1E64-44AC-9B50-C09427155398";
paths = (
{
closed = 1;
nodes = (
"32 344 OFFCURVE",
"32 322 QCURVE SMOOTH",
"32 307 OFFCURVE",
"37 307 QCURVE SMOOTH",
"383 307 LINE",
"389 320 OFFCURVE",
"389 339 QCURVE SMOOTH",
"389 353 OFFCURVE",
"383 353 QCURVE SMOOTH",
"38 353 LINE"
);
},
{
closed = 1;
nodes = (
"95 659 OFFCURVE",
"14 664 QCURVE",
"11 661 OFFCURVE",
"11 645 QCURVE SMOOTH",
"11 627 OFFCURVE",
"15 627 QCURVE SMOOTH",
"26 627 OFFCURVE",
"79 607 OFFCURVE",
"82 599 QCURVE",
"88 576 OFFCURVE",
"88 521 QCURVE SMOOTH",
"88 143 LINE SMOOTH",
"88 78 OFFCURVE",
"82 55 QCURVE",
"79 47 OFFCURVE",
"28 33 OFFCURVE",
"16 33 QCURVE SMOOTH",
"12 33 OFFCURVE",
"12 13 QCURVE SMOOTH",
"12 0 OFFCURVE",
"16 -4 QCURVE",
"162 2 LINE",
"198 2 OFFCURVE",
"315 -3 OFFCURVE",
"334 -3 QCURVE SMOOTH",
"496 -3 OFFCURVE",
"680 191 OFFCURVE",
"680 336 QCURVE SMOOTH",
"680 419 OFFCURVE",
"606 563 OFFCURVE",
"445 659 OFFCURVE",
"335 659 QCURVE SMOOTH",
"161 659 LINE SMOOTH"
);
},
{
closed = 1;
nodes = (
"228 569 OFFCURVE",
"241 587 QCURVE SMOOTH",
"253 603 OFFCURVE",
"338 603 QCURVE SMOOTH",
"343 603 LINE SMOOTH",
"429 603 OFFCURVE",
"528 450 OFFCURVE",
"528 340 QCURVE SMOOTH",
"528 197 OFFCURVE",
"435 53 OFFCURVE",
"350 53 QCURVE SMOOTH",
"259 53 OFFCURVE",
"237 66 QCURVE SMOOTH",
"228 71 OFFCURVE",
"228 136 QCURVE SMOOTH",
"228 524 LINE SMOOTH"
);
}
);
width = 706;
}
);
note = Eth;
unicode = 00D0;
},
{
glyphname = multiply;
layers = (
{
layerId = "E2E62ECD-1E64-44AC-9B50-C09427155398";
paths = (
{
closed = 1;
nodes = (
"26 111 LINE SMOOTH",
"17 102 OFFCURVE",
"50 63 QCURVE SMOOTH",
"58 54 OFFCURVE",
"66 54 QCURVE SMOOTH",
"70 54 OFFCURVE",
"71 55 QCURVE SMOOTH",
"209 193 LINE SMOOTH",
"212 196 OFFCURVE",
"217 192 QCURVE",
"352 57 LINE",
"354 56 LINE",
"355 55 OFFCURVE",
"361 57 OFFCURVE",
"364 60 QCURVE SMOOTH",
"384 80 OFFCURVE",
"398 106 QCURVE",
"400 109 OFFCURVE",
"398 113 OFFCURVE",
"398 114 QCURVE",
"397 114 LINE",
"267 244 LINE SMOOTH",
"264 247 OFFCURVE",
"268 251 QCURVE SMOOTH",
"397 380 LINE",
"398 381 LINE SMOOTH",
"399 382 OFFCURVE",
"399 386 OFFCURVE",
"398 389 QCURVE",
"384 415 OFFCURVE",
"364 435 QCURVE SMOOTH",
"357 442 OFFCURVE",
"352 437 QCURVE SMOOTH",
"217 302 LINE SMOOTH",
"213 298 OFFCURVE",
"210 301 QCURVE SMOOTH",
"76 435 LINE SMOOTH",
"69 442 OFFCURVE",
"64 437 QCURVE SMOOTH",
"39 412 OFFCURVE",
"28 392 QCURVE SMOOTH",
"24 385 OFFCURVE",
"30 379 QCURVE SMOOTH",
"159 250 LINE SMOOTH",
"162 247 OFFCURVE",
"160 245 QCURVE SMOOTH"
);
}
);
width = 425;
}
);
note = multiply;
unicode = 00D7;
},
{
glyphname = Oslash;
layers = (
{
layerId = "E2E62ECD-1E64-44AC-9B50-C09427155398";
paths = (
{
closed = 1;
nodes = (
"383 611 OFFCURVE",
"457 556 OFFCURVE",
"495 463 OFFCURVE",
"512 364 OFFCURVE",
"512 309 QCURVE SMOOTH",
"512 198 OFFCURVE",
"437 46 OFFCURVE",
"362 46 QCURVE SMOOTH",
"313 46 OFFCURVE",
"239 105 OFFCURVE",
"200 200 OFFCURVE",
"181 299 OFFCURVE",
"181 350 QCURVE SMOOTH",
"181 422 OFFCURVE",
"208 534 OFFCURVE",
"278 611 OFFCURVE",
"331 611 QCURVE SMOOTH"
);
},
{
closed = 1;
nodes = (
"129 4 LINE",
"127 -3 OFFCURVE",
"167 -18 QCURVE",
"544 655 LINE",
"546 661 OFFCURVE",
"506 676 QCURVE"
);
},
{
closed = 1;
nodes = (
"25 188 OFFCURVE",
"214 -10 OFFCURVE",
"478 -10 OFFCURVE",
"668 188 OFFCURVE",
"668 468 OFFCURVE",
"478 667 OFFCURVE",
"214 667 OFFCURVE",
"25 468 OFFCURVE"
);
}
);
width = 700;
}
);
note = Oslash;
unicode = 00D8;
},
{
glyphname = Thorn;
layers = (
{
layerId = "E2E62ECD-1E64-44AC-9B50-C09427155398";
paths = (
{
closed = 1;
nodes = (
"148 656 OFFCURVE",
"10 662 QCURVE",
"8 660 OFFCURVE",
"8 642 QCURVE SMOOTH",
"8 625 OFFCURVE",
"12 625 QCURVE SMOOTH",
"23 625 OFFCURVE",
"69 608 OFFCURVE",
"74 600 QCURVE",
"82 586 OFFCURVE",
"82 522 QCURVE SMOOTH",
"82 138 LINE SMOOTH",
"82 85 OFFCURVE",
"75 58 QCURVE",
"72 50 OFFCURVE",
"20 33 OFFCURVE",
"9 33 QCURVE SMOOTH",
"6 33 OFFCURVE",
"6 12 QCURVE SMOOTH",
"6 0 OFFCURVE",
"10 -4 QCURVE",
"24 -3 OFFCURVE",
"128 4 OFFCURVE",
"155 4 QCURVE SMOOTH",
"181 4 OFFCURVE",
"287 -4 OFFCURVE",
"294 -4 QCURVE",
"296 2 OFFCURVE",
"296 14 QCURVE SMOOTH",
"296 33 OFFCURVE",
"292 33 QCURVE SMOOTH",
"283 33 OFFCURVE",
"232 51 OFFCURVE",
"230 58 QCURVE SMOOTH",
"222 89 OFFCURVE",
"222 141 QCURVE SMOOTH",
"222 359 LINE SMOOTH",
"222 406 OFFCURVE",
"226 451 OFFCURVE",
"229 457 OFFCURVE",
"234 460 QCURVE SMOOTH",
"242 465 OFFCURVE",
"280 465 QCURVE SMOOTH",
"372 465 OFFCURVE",
"372 328 QCURVE SMOOTH",
"372 192 OFFCURVE",
"288 192 QCURVE SMOOTH",
"256 192 OFFCURVE",
"243 200 QCURVE",
"238 200 OFFCURVE",
"240 168 OFFCURVE",
"244 162 QCURVE SMOOTH",
"246 159 OFFCURVE",
"262 150 OFFCURVE",
"294 140 OFFCURVE",
"310 140 QCURVE SMOOTH",
"399 140 OFFCURVE",
"524 258 OFFCURVE",
"524 339 QCURVE SMOOTH",
"524 387 OFFCURVE",
"477 462 OFFCURVE",
"404 501 OFFCURVE",
"330 520 OFFCURVE",
"296 520 QCURVE SMOOTH",
"281 520 OFFCURVE",
"247 516 OFFCURVE",
"236 514 QCURVE SMOOTH",
"226 512 LINE",
"222 512 OFFCURVE",
"222 516 QCURVE SMOOTH",
"222 521 LINE SMOOTH",
"222 574 OFFCURVE",
"229 601 QCURVE SMOOTH",
"231 608 OFFCURVE",
"285 625 OFFCURVE",
"294 625 QCURVE SMOOTH",
"298 625 OFFCURVE",
"298 644 QCURVE SMOOTH",
"298 653 OFFCURVE",
"295 662 QCURVE",
"175 656 OFFCURVE",
"155 656 QCURVE SMOOTH"
);
}
);
width = 572;
}
);
note = Thorn;
unicode = 00DE;
},
{
glyphname = germandbls;
layers = (
{
layerId = "E2E62ECD-1E64-44AC-9B50-C09427155398";
paths = (
{
closed = 1;
nodes = (
"518 624 OFFCURVE",
"406 696 OFFCURVE",
"334 696 QCURVE SMOOTH",
"236 696 OFFCURVE",
"98 573 OFFCURVE",
"98 452 QCURVE SMOOTH",
"98 432 LINE SMOOTH",
"98 426 OFFCURVE",
"93 426 QCURVE SMOOTH",
"52 426 LINE SMOOTH",
"48 426 OFFCURVE",
"37 385 OFFCURVE",
"37 375 QCURVE SMOOTH",
"37 369 OFFCURVE",
"40 369 QCURVE SMOOTH",
"93 369 LINE SMOOTH",
"98 369 OFFCURVE",
"98 361 QCURVE SMOOTH",
"98 273 OFFCURVE",
"97 135 QCURVE SMOOTH",
"97 81 OFFCURVE",
"88 46 QCURVE SMOOTH",
"86 39 OFFCURVE",
"44 24 OFFCURVE",
"33 24 QCURVE SMOOTH",
"29 24 OFFCURVE",
"29 12 QCURVE SMOOTH",
"29 -1 OFFCURVE",
"32 -4 QCURVE",
"44 -3 OFFCURVE",
"139 4 OFFCURVE",
"163 4 QCURVE SMOOTH",
"186 4 OFFCURVE",
"283 -3 OFFCURVE",
"294 -4 QCURVE",
"296 0 OFFCURVE",
"295 30 OFFCURVE",
"292 30 QCURVE SMOOTH",
"284 30 OFFCURVE",
"237 47 OFFCURVE",
"236 54 QCURVE",
"228 90 OFFCURVE",
"228 139 QCURVE SMOOTH",
"228 475 LINE SMOOTH",
"228 513 OFFCURVE",
"232 561 OFFCURVE",
"245 615 OFFCURVE",
"276 642 OFFCURVE",
"300 642 QCURVE SMOOTH",
"396 642 OFFCURVE",
"396 549 QCURVE SMOOTH",
"396 514 OFFCURVE",
"373 463 OFFCURVE",
"340 432 OFFCURVE",
"308 403 OFFCURVE",
"285 361 OFFCURVE",
"285 334 QCURVE SMOOTH",
"285 296 OFFCURVE",
"322 240 OFFCURVE",
"376 206 OFFCURVE",
"429 174 OFFCURVE",
"466 132 OFFCURVE",
"466 104 QCURVE SMOOTH",
"466 90 LINE SMOOTH",
"466 76 OFFCURVE",
"455 48 OFFCURVE",
"444 48 QCURVE SMOOTH",
"429 48 OFFCURVE",
"409 70 OFFCURVE",
"399 98 OFFCURVE",
"371 120 OFFCURVE",
"348 120 QCURVE SMOOTH",
"329 120 OFFCURVE",
"309 77 OFFCURVE",
"309 49 QCURVE",
"318 33 OFFCURVE",
"404 -7 OFFCURVE",
"445 -7 QCURVE SMOOTH",
"503 -7 OFFCURVE",
"584 71 OFFCURVE",
"584 130 QCURVE SMOOTH",
"584 172 OFFCURVE",
"515 249 OFFCURVE",
"473 271 QCURVE SMOOTH",
"385 319 OFFCURVE",
"385 379 QCURVE SMOOTH",
"385 405 OFFCURVE",
"427 442 OFFCURVE",
"476 463 OFFCURVE",
"518 520 OFFCURVE",
"518 565 QCURVE SMOOTH"
);
}
);
width = 608;
}
);
note = germandbls;
unicode = 00DF;
},
{
glyphname = ae;
layers = (
{
layerId = "E2E62ECD-1E64-44AC-9B50-C09427155398";
paths = (
{
closed = 1;
nodes = (
"252 90 OFFCURVE",
"226 65 OFFCURVE",
"202 65 QCURVE SMOOTH",
"180 65 OFFCURVE",
"149 97 OFFCURVE",
"149 133 QCURVE SMOOTH",
"149 150 OFFCURVE",
"166 172 OFFCURVE",
"204 185 OFFCURVE",
"228 190 OFFCURVE",
"252 193 QCURVE",
"252 108 LINE SMOOTH"
);
},
{
closed = 1;
nodes = (
"492 392 OFFCURVE",
"532 331 OFFCURVE",
"532 292 QCURVE SMOOTH",
"532 284 OFFCURVE",
"526 282 QCURVE",
"518 280 OFFCURVE",
"394 264 QCURVE",
"387 264 OFFCURVE",
"387 270 QCURVE SMOOTH",
"387 315 OFFCURVE",
"422 392 OFFCURVE",
"460 392 QCURVE SMOOTH"
);
},
{
closed = 1;
nodes = (
"163 449 OFFCURVE",
"28 364 OFFCURVE",
"28 313 QCURVE",
"45 283 OFFCURVE",
"91 283 QCURVE SMOOTH",
"113 283 OFFCURVE",
"149 304 OFFCURVE",
"149 326 QCURVE SMOOTH",
"149 393 OFFCURVE",
"207 393 QCURVE SMOOTH",
"227 393 OFFCURVE",
"252 348 OFFCURVE",
"252 311 QCURVE SMOOTH",
"252 266 LINE SMOOTH",
"252 254 OFFCURVE",
"243 252 QCURVE SMOOTH",
"235 250 OFFCURVE",
"188 239 OFFCURVE",
"162 233 OFFCURVE",
"116 218 OFFCURVE",
"87 205 OFFCURVE",
"53 182 OFFCURVE",
"33 156 OFFCURVE",
"19 121 OFFCURVE",
"19 100 QCURVE SMOOTH",
"19 54 OFFCURVE",
"84 -7 OFFCURVE",
"139 -7 QCURVE SMOOTH",
"200 -7 OFFCURVE",
"274 26 OFFCURVE",
"311 61 QCURVE",
"377 -8 OFFCURVE",
"471 -8 QCURVE SMOOTH",
"533 -8 OFFCURVE",
"635 57 OFFCURVE",
"645 81 QCURVE SMOOTH",
"650 93 OFFCURVE",
"650 115 OFFCURVE",
"641 122 QCURVE",
"620 107 OFFCURVE",
"598 93 OFFCURVE",
"539 73 OFFCURVE",
"506 73 QCURVE SMOOTH",
"472 73 OFFCURVE",
"422 104 OFFCURVE",
"398 149 OFFCURVE",
"387 185 OFFCURVE",
"387 196 QCURVE SMOOTH",
"387 202 OFFCURVE",
"392 203 QCURVE",
"571 226 OFFCURVE",
"618 233 QCURVE SMOOTH",
"642 237 OFFCURVE",
"659 251 OFFCURVE",
"658 262 QCURVE SMOOTH",
"656 289 OFFCURVE",
"633 350 OFFCURVE",
"591 410 OFFCURVE",
"517 449 OFFCURVE",
"471 449 QCURVE SMOOTH",
"409 449 OFFCURVE",
"346 404 QCURVE",
"305 449 OFFCURVE",
"242 449 QCURVE SMOOTH"
);
}
);
width = 679;
}
);
note = ae;
unicode = 00E6;
},
{
glyphname = eth;
layers = (
{
layerId = "E2E62ECD-1E64-44AC-9B50-C09427155398";
paths = (
{
closed = 1;
nodes = (
"126 528 LINE",
"119 522 OFFCURVE",
"144 492 QCURVE",
"418 662 LINE",
"424 667 OFFCURVE",
"399 697 QCURVE"
);
},
{
closed = 1;
nodes = (
"156 447 OFFCURVE",
"28 302 OFFCURVE",
"28 217 QCURVE SMOOTH",
"28 121 OFFCURVE",
"170 -6 OFFCURVE",
"259 -6 QCURVE SMOOTH",
"303 -6 OFFCURVE",
"381 21 OFFCURVE",
"451 81 OFFCURVE",
"491 194 OFFCURVE",
"491 271 QCURVE SMOOTH",
"491 354 OFFCURVE",
"438 497 OFFCURVE",
"354 594 OFFCURVE",
"247 663 OFFCURVE",
"141 695 OFFCURVE",
"92 695 QCURVE SMOOTH",
"82 695 OFFCURVE",
"82 662 QCURVE",
"166 639 OFFCURVE",
"287 527 OFFCURVE",
"315 443 QCURVE",
"302 447 OFFCURVE",
"250 447 QCURVE SMOOTH"
);
},
{
closed = 1;
nodes = (
"279 392 OFFCURVE",
"332 353 OFFCURVE",
"340 318 QCURVE SMOOTH",
"347 287 OFFCURVE",
"349 203 QCURVE SMOOTH",
"349 48 OFFCURVE",
"270 48 QCURVE SMOOTH",
"217 48 OFFCURVE",
"170 161 OFFCURVE",
"170 245 QCURVE SMOOTH",
"170 392 OFFCURVE",
"252 392 QCURVE SMOOTH"
);
}
);
width = 521;
}
);
note = eth;
unicode = 00F0;
},
{
glyphname = divide;
layers = (
{
layerId = "E2E62ECD-1E64-44AC-9B50-C09427155398";
paths = (
{
closed = 1;
nodes = (
"283 378 OFFCURVE",
"320 414 OFFCURVE",
"320 437 QCURVE SMOOTH",
"320 443 LINE",
"317 468 OFFCURVE",
"284 498 OFFCURVE",
"259 498 QCURVE SMOOTH",
"235 498 OFFCURVE",
"198 461 OFFCURVE",
"198 438 QCURVE SMOOTH",
"198 434 LINE",
"201 409 OFFCURVE",
"234 378 OFFCURVE",
"259 378 QCURVE SMOOTH"
);
},
{
closed = 1;
nodes = (
"320 58 LINE",
"317 83 OFFCURVE",
"283 118 OFFCURVE",
"235 118 OFFCURVE",
"198 80 OFFCURVE",
"198 57 QCURVE SMOOTH",
"198 52 LINE",
"201 27 OFFCURVE",
"235 -6 OFFCURVE",
"283 -6 OFFCURVE",
"320 33 OFFCURVE",
"320 56 QCURVE SMOOTH"
);
},
{
closed = 1;
nodes = (
"25 216 OFFCURVE",
"27 213 QCURVE",
"31 211 OFFCURVE",
"31 211 QCURVE",
"479 211 LINE",
"480 212 LINE",
"482 212 OFFCURVE",
"486 215 OFFCURVE",
"487 218 QCURVE",
"495 250 OFFCURVE",
"495 273 QCURVE SMOOTH",
"495 282 OFFCURVE",
"488 283 QCURVE",
"39 283 LINE SMOOTH",
"32 283 OFFCURVE",
"25 231 OFFCURVE",
"25 220 QCURVE SMOOTH"
);
}
);
width = 522;
}
);
note = divide;
unicode = 00F7;
},
{
glyphname = oslash;
layers = (
{
layerId = "E2E62ECD-1E64-44AC-9B50-C09427155398";
paths = (
{
closed = 1;
nodes = (
"120 4 LINE",
"119 1 OFFCURVE",
"133 -9 OFFCURVE",
"148 -16 OFFCURVE",
"154 -18 QCURVE",
"407 434 LINE",
"410 441 OFFCURVE",
"373 455 QCURVE"
);
},
{
closed = 1;
nodes = (
"352 392 OFFCURVE",
"352 185 QCURVE SMOOTH",
"352 130 OFFCURVE",
"313 48 OFFCURVE",
"271 48 QCURVE SMOOTH",
"168 48 OFFCURVE",
"168 251 QCURVE SMOOTH",
"168 287 OFFCURVE",
"180 346 OFFCURVE",
"218 392 OFFCURVE",
"247 392 QCURVE SMOOTH"
);
},
{
closed = 1;
nodes = (
"360 -7 OFFCURVE",
"496 125 OFFCURVE",
"496 315 OFFCURVE",
"359 447 OFFCURVE",
"163 447 OFFCURVE",
"26 315 OFFCURVE",
"26 125 OFFCURVE",
"163 -7 OFFCURVE",
"261 -7 QCURVE SMOOTH"
);
}
);
width = 462;
}
);
note = oslash;
unicode = 00F8;
},
{
glyphname = thorn;
layers = (
{
layerId = "E2E62ECD-1E64-44AC-9B50-C09427155398";
paths = (
{
closed = 1;
nodes = (
"269 446 OFFCURVE",
"225 412 QCURVE",
"223 412 OFFCURVE",
"223 418 QCURVE SMOOTH",
"223 577 LINE SMOOTH",
"223 633 OFFCURVE",
"235 678 QCURVE",
"234 683 OFFCURVE",
"226 695 OFFCURVE",
"222 695 QCURVE SMOOTH",
"220 695 LINE",
"210 692 LINE SMOOTH",
"200 689 OFFCURVE",
"165 679 OFFCURVE",
"121 669 OFFCURVE",
"58 659 OFFCURVE",
"27 656 QCURVE",
"21 656 OFFCURVE",
"21 639 QCURVE SMOOTH",
"21 619 OFFCURVE",
"27 619 QCURVE SMOOTH",
"36 619 LINE SMOOTH",
"83 619 OFFCURVE",
"88 603 QCURVE",
"93 578 OFFCURVE",
"93 528 QCURVE SMOOTH",
"93 -80 LINE SMOOTH",
"93 -126 OFFCURVE",
"86 -156 QCURVE",
"84 -163 OFFCURVE",
"32 -181 OFFCURVE",
"21 -181 QCURVE SMOOTH",
"17 -181 OFFCURVE",
"17 -214 OFFCURVE",
"21 -218 QCURVE",
"32 -217 OFFCURVE",
"134 -210 OFFCURVE",
"158 -210 QCURVE SMOOTH",
"181 -210 OFFCURVE",
"284 -217 OFFCURVE",
"295 -218 QCURVE",
"297 -214 OFFCURVE",
"296 -181 OFFCURVE",
"293 -181 QCURVE SMOOTH",
"284 -181 OFFCURVE",
"232 -163 OFFCURVE",
"230 -156 QCURVE SMOOTH",
"223 -129 OFFCURVE",
"223 -65 QCURVE SMOOTH",
"223 -15 LINE SMOOTH",
"223 1 OFFCURVE",
"227 1 QCURVE SMOOTH",
"228 1 OFFCURVE",
"246 -4 OFFCURVE",
"273 -8 OFFCURVE",
"285 -8 QCURVE SMOOTH",
"393 -8 OFFCURVE",
"535 116 OFFCURVE",
"535 227 QCURVE SMOOTH",
"535 314 OFFCURVE",
"410 446 OFFCURVE",
"315 446 QCURVE SMOOTH"
);
},
{
closed = 1;
nodes = (
"391 388 OFFCURVE",
"391 194 QCURVE SMOOTH",
"391 46 OFFCURVE",
"301 46 QCURVE SMOOTH",
"273 46 OFFCURVE",
"223 87 OFFCURVE",
"223 125 QCURVE SMOOTH",
"223 314 LINE SMOOTH",
"223 346 OFFCURVE",
"265 388 OFFCURVE",
"300 388 QCURVE SMOOTH"
);
}
);
width = 567;
}
);
note = thorn;
unicode = 00FE;
},
{
glyphname = Aogonek;
layers = (
{
layerId = "E2E62ECD-1E64-44AC-9B50-C09427155398";
paths = (
{
closed = 1;
nodes = (
"414 280 LINE",
"411 275 OFFCURVE",
"411 275 QCURVE",
"380 273 OFFCURVE",
"339 273 QCURVE SMOOTH",
"296 273 OFFCURVE",
"266 276 QCURVE",
"264 276 OFFCURVE",
"264 280 QCURVE",
"342 458 LINE"
);
},
{
closed = 1;
nodes = (
"122 134 LINE",
"93 71 LINE",
"86 59 OFFCURVE",
"20 32 OFFCURVE",
"8 32 QCURVE SMOOTH",
"6 32 OFFCURVE",
"6 11 QCURVE SMOOTH",
"6 0 OFFCURVE",
"10 -4 QCURVE",
"28 -3 OFFCURVE",
"102 4 OFFCURVE",
"154 4 OFFCURVE",
"248 -3 OFFCURVE",
"258 -4 QCURVE",
"260 2 OFFCURVE",
"260 32 OFFCURVE",
"257 33 QCURVE",
"250 33 OFFCURVE",
"201 44 OFFCURVE",
"191 49 QCURVE SMOOTH",
"178 56 OFFCURVE",
"178 70 QCURVE SMOOTH",
"178 86 OFFCURVE",
"198 131 QCURVE SMOOTH",
"231 207 LINE",
"234 212 OFFCURVE",
"238 212 QCURVE SMOOTH",
"273 213 OFFCURVE",
"339 213 QCURVE SMOOTH",
"418 213 OFFCURVE",
"437 212 QCURVE",
"440 212 OFFCURVE",
"444 208 QCURVE",
"473 134 LINE SMOOTH",
"497 72 OFFCURVE",
"497 60 OFFCURVE",
"494 55 QCURVE",
"489 48 OFFCURVE",
"440 33 OFFCURVE",
"429 33 QCURVE SMOOTH",
"425 33 OFFCURVE",
"425 0 OFFCURVE",
"429 -4 QCURVE",
"555 3 OFFCURVE",
"579 3 QCURVE",
"532 -11 OFFCURVE",
"445 -100 OFFCURVE",
"445 -140 QCURVE SMOOTH",
"445 -176 OFFCURVE",
"497 -218 OFFCURVE",
"526 -218 QCURVE SMOOTH",
"563 -218 OFFCURVE",
"632 -171 OFFCURVE",
"649 -149 QCURVE SMOOTH",
"655 -141 OFFCURVE",
"655 -127 QCURVE SMOOTH",
"655 -109 OFFCURVE",
"650 -109 QCURVE",
"638 -119 OFFCURVE",
"589 -142 OFFCURVE",
"570 -142 QCURVE SMOOTH",
"553 -142 OFFCURVE",
"529 -125 OFFCURVE",
"529 -110 QCURVE SMOOTH",
"529 -54 OFFCURVE",
"623 2 QCURVE",
"632 1 OFFCURVE",
"699 -3 OFFCURVE",
"714 -4 QCURVE",
"716 -1 OFFCURVE",
"716 33 OFFCURVE",
"712 33 QCURVE SMOOTH",
"699 33 OFFCURVE",
"648 50 OFFCURVE",
"641 66 QCURVE SMOOTH",
"625 103 OFFCURVE",
"610 141 QCURVE SMOOTH",
"389 659 LINE",
"384 667 OFFCURVE",
"374 667 QCURVE SMOOTH",
"368 667 OFFCURVE",
"355 656 OFFCURVE",
"342 633 OFFCURVE",
"334 618 OFFCURVE",
"321 588 OFFCURVE",
"320 586 QCURVE"
);
}
);
width = 721;
}
);
note = Aogonek;
unicode = 0104;
},
{
glyphname = aogonek;
layers = (
{
layerId = "E2E62ECD-1E64-44AC-9B50-C09427155398";
paths = (
{
closed = 1;
nodes = (
"182 65 OFFCURVE",
"151 97 OFFCURVE",
"151 133 QCURVE SMOOTH",
"151 143 OFFCURVE",
"157 159 OFFCURVE",
"173 173 OFFCURVE",
"184 182 OFFCURVE",
"212 193 OFFCURVE",
"222 197 OFFCURVE",
"257 208 OFFCURVE",
"259 209 QCURVE",
"259 108 LINE SMOOTH",
"259 90 OFFCURVE",
"230 65 OFFCURVE",
"204 65 QCURVE SMOOTH"
);
},
{
closed = 1;
nodes = (
"389 271 LINE SMOOTH",
"389 372 OFFCURVE",
"314 449 OFFCURVE",
"244 449 QCURVE SMOOTH",
"165 449 OFFCURVE",
"30 364 OFFCURVE",
"30 313 QCURVE",
"47 283 OFFCURVE",
"93 283 QCURVE SMOOTH",
"115 283 OFFCURVE",
"151 304 OFFCURVE",
"151 326 QCURVE SMOOTH",
"151 393 OFFCURVE",
"209 393 QCURVE SMOOTH",
"259 393 OFFCURVE",
"259 311 QCURVE SMOOTH",
"259 275 LINE SMOOTH",
"259 263 OFFCURVE",
"250 260 QCURVE SMOOTH",
"238 256 OFFCURVE",
"175 239 OFFCURVE",
"135 226 OFFCURVE",
"79 201 OFFCURVE",
"46 172 OFFCURVE",
"21 127 OFFCURVE",
"21 100 QCURVE SMOOTH",
"21 54 OFFCURVE",
"86 -7 OFFCURVE",
"141 -7 QCURVE SMOOTH",
"161 -7 OFFCURVE",
"201 3 OFFCURVE",
"230 17 OFFCURVE",
"252 31 OFFCURVE",
"266 42 OFFCURVE",
"267 42 QCURVE",
"276 10 OFFCURVE",
"315 0 QCURVE",
"277 -18 OFFCURVE",
"201 -105 OFFCURVE",
"201 -140 QCURVE SMOOTH",
"201 -176 OFFCURVE",
"253 -218 OFFCURVE",
"282 -218 QCURVE SMOOTH",
"319 -218 OFFCURVE",
"388 -171 OFFCURVE",
"405 -149 QCURVE SMOOTH",
"411 -141 OFFCURVE",
"411 -127 QCURVE SMOOTH",
"411 -109 OFFCURVE",
"406 -109 QCURVE",
"394 -119 OFFCURVE",
"345 -142 OFFCURVE",
"326 -142 QCURVE SMOOTH",
"309 -142 OFFCURVE",
"285 -125 OFFCURVE",
"285 -110 QCURVE SMOOTH",
"285 -81 OFFCURVE",
"360 -13 OFFCURVE",
"401 10 QCURVE SMOOTH",
"447 36 LINE",
"454 48 OFFCURVE",
"454 76 QCURVE SMOOTH",
"454 78 OFFCURVE",
"445 86 OFFCURVE",
"443 86 QCURVE",
"438 83 LINE",
"434 80 OFFCURVE",
"420 75 OFFCURVE",
"413 75 QCURVE SMOOTH",
"389 75 OFFCURVE",
"389 109 QCURVE SMOOTH"
);
}
);
width = 486;
}
);
note = aogonek;
unicode = 0105;
},
{
glyphname = dcroat;
layers = (
{
layerId = "E2E62ECD-1E64-44AC-9B50-C09427155398";
paths = (
{
closed = 1;
nodes = (
"315 396 OFFCURVE",
"339 366 QCURVE SMOOTH",
"353 349 OFFCURVE",
"353 323 QCURVE SMOOTH",
"353 144 LINE SMOOTH",
"353 66 OFFCURVE",
"278 66 QCURVE SMOOTH",
"238 66 OFFCURVE",
"189 164 OFFCURVE",
"189 244 QCURVE SMOOTH",
"189 311 OFFCURVE",
"247 396 OFFCURVE",
"272 396 QCURVE SMOOTH"
);
},
{
closed = 1;
nodes = (
"174 450 OFFCURVE",
"47 306 OFFCURVE",
"47 205 QCURVE SMOOTH",
"47 108 OFFCURVE",
"167 -6 OFFCURVE",
"248 -6 QCURVE SMOOTH",
"275 -6 OFFCURVE",
"321 13 OFFCURVE",
"334 25 OFFCURVE",
"349 40 QCURVE SMOOTH",
"351 42 OFFCURVE",
"353 40 OFFCURVE",
"353 36 QCURVE SMOOTH",
"353 11 LINE SMOOTH",
"353 -6 OFFCURVE",
"359 -6 QCURVE",
"374 -4 LINE",
"388 -1 OFFCURVE",
"432 6 OFFCURVE",
"481 13 OFFCURVE",
"530 19 OFFCURVE",
"545 20 QCURVE",
"551 20 OFFCURVE",
"551 45 QCURVE SMOOTH",
"551 56 OFFCURVE",
"548 57 QCURVE",
"538 58 LINE",
"529 58 OFFCURVE",
"509 60 OFFCURVE",
"491 68 OFFCURVE",
"489 75 QCURVE",
"483 104 OFFCURVE",
"483 147 QCURVE SMOOTH",
"483 503 LINE SMOOTH",
"483 508 OFFCURVE",
"488 508 QCURVE SMOOTH",
"534 508 LINE",
"536 508 LINE SMOOTH",
"537 508 OFFCURVE",
"540 511 OFFCURVE",
"541 514 QCURVE",
"551 551 OFFCURVE",
"551 569 QCURVE SMOOTH",
"551 576 OFFCURVE",
"543 576 QCURVE SMOOTH",
"488 576 LINE SMOOTH",
"483 576 OFFCURVE",
"483 581 QCURVE SMOOTH",
"483 600 LINE",
"485 649 OFFCURVE",
"494 678 QCURVE",
"493 683 OFFCURVE",
"485 695 OFFCURVE",
"481 695 QCURVE SMOOTH",
"479 695 LINE",
"469 692 LINE SMOOTH",
"459 689 OFFCURVE",
"424 679 OFFCURVE",
"380 669 OFFCURVE",
"317 659 OFFCURVE",
"286 656 QCURVE",
"280 656 OFFCURVE",
"280 639 QCURVE SMOOTH",
"280 619 OFFCURVE",
"286 619 QCURVE SMOOTH",
"295 619 LINE SMOOTH",
"342 619 OFFCURVE",
"347 603 QCURVE",
"350 588 OFFCURVE",
"350 580 QCURVE SMOOTH",
"350 576 OFFCURVE",
"347 576 QCURVE SMOOTH",
"211 576 LINE",
"210 576 LINE SMOOTH",
"208 576 OFFCURVE",
"205 574 OFFCURVE",
"204 571 QCURVE SMOOTH",
"196 544 OFFCURVE",
"196 518 QCURVE SMOOTH",
"196 508 OFFCURVE",
"202 508 QCURVE SMOOTH",
"349 508 LINE SMOOTH",
"353 508 OFFCURVE",
"353 504 QCURVE SMOOTH",
"353 452 LINE SMOOTH",
"353 433 OFFCURVE",
"349 433 QCURVE",
"313 452 OFFCURVE",
"270 451 QCURVE SMOOTH"
);
}
);
width = 574;
}
);
note = dcroat;
unicode = 0111;
},
{
glyphname = Eogonek;
layers = (
{
layerId = "E2E62ECD-1E64-44AC-9B50-C09427155398";
paths = (
{
closed = 1;
nodes = (
"94 659 OFFCURVE",
"14 664 QCURVE",
"11 661 OFFCURVE",
"11 645 QCURVE SMOOTH",
"11 627 OFFCURVE",
"15 627 QCURVE SMOOTH",
"26 627 OFFCURVE",
"79 607 OFFCURVE",
"82 599 QCURVE",
"88 576 OFFCURVE",
"88 521 QCURVE SMOOTH",
"88 143 LINE SMOOTH",
"88 78 OFFCURVE",
"82 55 QCURVE",
"79 47 OFFCURVE",
"28 33 OFFCURVE",
"16 33 QCURVE SMOOTH",
"12 33 OFFCURVE",
"12 13 QCURVE SMOOTH",
"12 0 OFFCURVE",
"16 -4 QCURVE",
"162 2 LINE",
"182 2 OFFCURVE",
"413 -1 QCURVE",
"364 -16 OFFCURVE",
"284 -100 OFFCURVE",
"284 -140 QCURVE SMOOTH",
"284 -176 OFFCURVE",
"336 -218 OFFCURVE",
"365 -218 QCURVE SMOOTH",
"402 -218 OFFCURVE",
"471 -171 OFFCURVE",
"488 -149 QCURVE SMOOTH",
"494 -141 OFFCURVE",
"494 -127 QCURVE SMOOTH",
"494 -109 OFFCURVE",
"489 -109 QCURVE",
"477 -119 OFFCURVE",
"428 -142 OFFCURVE",
"409 -142 QCURVE SMOOTH",
"392 -142 OFFCURVE",
"368 -125 OFFCURVE",
"368 -110 QCURVE SMOOTH",
"368 -76 OFFCURVE",
"466 -10 OFFCURVE",
"504 -2 QCURVE",
"509 32 OFFCURVE",
"558 170 QCURVE",
"552 176 OFFCURVE",
"528 176 QCURVE SMOOTH",
"516 176 OFFCURVE",
"514 170 QCURVE",
"502 139 OFFCURVE",
"459 89 OFFCURVE",
"442 80 QCURVE SMOOTH",
"392 54 OFFCURVE",
"330 54 QCURVE SMOOTH",
"304 54 LINE SMOOTH",
"241 54 OFFCURVE",
"236 70 QCURVE SMOOTH",
"228 93 OFFCURVE",
"228 141 QCURVE SMOOTH",
"228 295 LINE SMOOTH",
"228 304 OFFCURVE",
"300 304 QCURVE SMOOTH",
"365 304 OFFCURVE",
"378 296 QCURVE",
"379 295 OFFCURVE",
"385 292 OFFCURVE",
"387 290 OFFCURVE",
"392 282 OFFCURVE",
"396 272 OFFCURVE",
"402 252 OFFCURVE",
"406 238 QCURVE",
"409 230 OFFCURVE",
"422 230 QCURVE SMOOTH",
"439 230 OFFCURVE",
"443 234 QCURVE",
"443 423 LINE",
"438 428 OFFCURVE",
"421 428 QCURVE SMOOTH",
"407 428 OFFCURVE",
"406 421 QCURVE",
"402 407 OFFCURVE",
"400 392 QCURVE SMOOTH",
"397 367 OFFCURVE",
"392 363 QCURVE",
"386 359 OFFCURVE",
"324 359 QCURVE SMOOTH",
"271 359 LINE SMOOTH",
"228 359 OFFCURVE",
"228 365 QCURVE SMOOTH",
"228 519 LINE SMOOTH",
"228 573 OFFCURVE",
"233 597 QCURVE",
"235 610 OFFCURVE",
"298 610 QCURVE SMOOTH",
"336 610 LINE SMOOTH",
"375 610 OFFCURVE",
"457 556 OFFCURVE",
"476 518 QCURVE",
"479 511 OFFCURVE",
"490 511 QCURVE SMOOTH",
"508 511 OFFCURVE",
"513 516 QCURVE",
"485 654 OFFCURVE",
"484 664 QCURVE",
"428 664 OFFCURVE",
"206 659 OFFCURVE",
"161 659 QCURVE SMOOTH"
);
}
);
width = 606;
}
);
note = Eogonek;
unicode = 0118;
},
{
glyphname = eogonek;
layers = (
{
layerId = "E2E62ECD-1E64-44AC-9B50-C09427155398";
paths = (
{
closed = 1;
nodes = (
"252 393 OFFCURVE",
"285 333 OFFCURVE",
"285 294 QCURVE SMOOTH",
"285 275 OFFCURVE",
"271 275 QCURVE SMOOTH",
"160 275 LINE SMOOTH",
"153 275 OFFCURVE",
"153 281 QCURVE SMOOTH",
"153 319 OFFCURVE",
"184 393 OFFCURVE",
"221 393 QCURVE SMOOTH"
);
},
{
closed = 1;
nodes = (
"146 449 OFFCURVE",
"11 316 OFFCURVE",
"11 221 QCURVE SMOOTH",
"11 125 OFFCURVE",
"134 -8 OFFCURVE",
"231 -8 QCURVE SMOOTH",
"254 -8 OFFCURVE",
"270 -4 QCURVE",
"236 -24 OFFCURVE",
"168 -106 OFFCURVE",
"168 -140 QCURVE SMOOTH",
"168 -176 OFFCURVE",
"220 -218 OFFCURVE",
"249 -218 QCURVE SMOOTH",
"286 -218 OFFCURVE",
"355 -171 OFFCURVE",
"372 -149 QCURVE SMOOTH",
"378 -141 OFFCURVE",
"378 -127 QCURVE SMOOTH",
"378 -109 OFFCURVE",
"373 -109 QCURVE",
"361 -119 OFFCURVE",
"312 -142 OFFCURVE",
"293 -142 QCURVE SMOOTH",
"276 -142 OFFCURVE",
"252 -125 OFFCURVE",
"252 -110 QCURVE SMOOTH",
"252 -79 OFFCURVE",
"307 -10 OFFCURVE",
"365 39 QCURVE SMOOTH",
"398 66 OFFCURVE",
"408 83 QCURVE",
"412 91 OFFCURVE",
"412 103 QCURVE SMOOTH",
"412 118 OFFCURVE",
"403 122 QCURVE",
"383 107 OFFCURVE",
"359 92 OFFCURVE",
"299 73 OFFCURVE",
"266 73 QCURVE SMOOTH",
"212 73 OFFCURVE",
"161 147 OFFCURVE",
"155 195 QCURVE SMOOTH",
"154 202 OFFCURVE",
"154 213 QCURVE SMOOTH",
"154 220 OFFCURVE",
"160 220 QCURVE SMOOTH",
"256 220 OFFCURVE",
"367 223 QCURVE SMOOTH",
"398 224 OFFCURVE",
"420 235 OFFCURVE",
"420 257 QCURVE SMOOTH",
"420 287 OFFCURVE",
"401 350 OFFCURVE",
"362 411 OFFCURVE",
"290 449 OFFCURVE",
"244 449 QCURVE SMOOTH"
);
}
);
width = 431;
}
);
note = eogonek;
unicode = 0119;
},
{
glyphname = Hbar;
layers = (
{
layerId = "E2E62ECD-1E64-44AC-9B50-C09427155398";
paths = (
{
closed = 1;
nodes = (
"168 656 OFFCURVE",
"30 662 QCURVE",
"28 660 OFFCURVE",
"28 645 QCURVE SMOOTH",
"28 625 OFFCURVE",
"32 625 QCURVE SMOOTH",
"44 625 OFFCURVE",
"90 609 OFFCURVE",
"95 598 QCURVE SMOOTH",
"100 586 OFFCURVE",
"102 535 QCURVE",
"43 535 LINE",
"37 526 OFFCURVE",
"37 504 QCURVE SMOOTH",
"37 489 OFFCURVE",
"42 489 QCURVE SMOOTH",
"102 489 LINE",
"102 138 LINE SMOOTH",
"102 84 OFFCURVE",
"95 57 QCURVE",
"92 49 OFFCURVE",
"40 33 OFFCURVE",
"28 33 QCURVE SMOOTH",
"26 33 OFFCURVE",
"26 13 QCURVE SMOOTH",
"26 0 OFFCURVE",
"30 -4 QCURVE",
"45 -3 OFFCURVE",
"144 4 OFFCURVE",
"196 4 OFFCURVE",
"309 -4 OFFCURVE",
"314 -4 QCURVE",
"317 3 OFFCURVE",
"316 33 OFFCURVE",
"312 33 QCURVE SMOOTH",
"303 33 OFFCURVE",
"252 51 OFFCURVE",
"250 58 QCURVE SMOOTH",
"242 89 OFFCURVE",
"242 142 QCURVE SMOOTH",
"242 306 LINE",
"240 308 LINE",
"240 310 OFFCURVE",
"364 311 QCURVE SMOOTH",
"387 311 OFFCURVE",
"481 309 QCURVE",
"483 305 LINE",
"483 138 LINE SMOOTH",
"483 82 OFFCURVE",
"477 59 QCURVE",
"474 51 OFFCURVE",
"422 33 OFFCURVE",
"411 33 QCURVE SMOOTH",
"407 33 OFFCURVE",
"406 0 OFFCURVE",
"410 -4 QCURVE",
"423 -3 OFFCURVE",
"532 4 OFFCURVE",
"559 4 QCURVE SMOOTH",
"585 4 OFFCURVE",
"685 -4 OFFCURVE",
"694 -4 QCURVE",
"697 5 OFFCURVE",
"697 13 QCURVE SMOOTH",
"697 34 OFFCURVE",
"693 34 QCURVE SMOOTH",
"684 34 OFFCURVE",
"633 50 OFFCURVE",
"631 57 QCURVE SMOOTH",
"623 88 OFFCURVE",
"623 142 QCURVE SMOOTH",
"623 489 LINE",
"685 489 LINE",
"691 502 OFFCURVE",
"691 521 QCURVE SMOOTH",
"691 535 OFFCURVE",
"685 535 QCURVE SMOOTH",
"623 535 LINE",
"624 574 OFFCURVE",
"631 601 QCURVE SMOOTH",
"633 608 OFFCURVE",
"685 625 OFFCURVE",
"694 625 QCURVE SMOOTH",
"699 625 OFFCURVE",
"699 644 QCURVE SMOOTH",
"699 653 OFFCURVE",
"696 662 QCURVE",
"576 656 OFFCURVE",
"561 656 QCURVE SMOOTH",
"550 656 OFFCURVE",
"412 662 QCURVE",
"408 658 OFFCURVE",
"409 625 OFFCURVE",
"413 625 QCURVE SMOOTH",
"424 625 OFFCURVE",
"473 607 OFFCURVE",
"476 599 QCURVE",
"482 577 OFFCURVE",
"483 535 QCURVE",
"362 534 LINE SMOOTH",
"315 534 OFFCURVE",
"243 535 QCURVE",
"245 588 OFFCURVE",
"250 601 QCURVE",
"253 608 OFFCURVE",
"305 625 OFFCURVE",
"314 625 QCURVE SMOOTH",
"318 625 OFFCURVE",
"318 657 OFFCURVE",
"315 662 QCURVE",
"195 656 OFFCURVE",
"169 656 QCURVE SMOOTH"
);
},
{
closed = 1;
nodes = (
"410 490 OFFCURVE",
"483 489 QCURVE",
"483 375 LINE SMOOTH",
"483 373 OFFCURVE",
"481 371 QCURVE",
"391 369 OFFCURVE",
"364 369 QCURVE SMOOTH",
"342 369 OFFCURVE",
"244 371 QCURVE",
"242 374 LINE",
"242 489 LINE",
"363 490 LINE SMOOTH"
);
}
);
width = 727;
}
);
note = Hbar;
unicode = 0126;
},
{
glyphname = hbar;
layers = (
{
layerId = "E2E62ECD-1E64-44AC-9B50-C09427155398";
paths = (
{
closed = 1;
nodes = (
"43 557 OFFCURVE",
"43 535 QCURVE SMOOTH",
"43 520 OFFCURVE",
"48 520 QCURVE SMOOTH",
"368 520 LINE",
"374 534 OFFCURVE",
"374 552 QCURVE SMOOTH",
"374 566 OFFCURVE",
"368 566 QCURVE SMOOTH",
"49 566 LINE"
);
},
{
closed = 1;
nodes = (
"343 446 OFFCURVE",
"263 413 OFFCURVE",
"241 388 QCURVE",
"237 384 OFFCURVE",
"236 384 QCURVE SMOOTH",
"232 384 OFFCURVE",
"232 391 QCURVE SMOOTH",
"232 577 LINE SMOOTH",
"232 633 OFFCURVE",
"244 678 QCURVE",
"243 683 OFFCURVE",
"235 695 OFFCURVE",
"231 695 QCURVE SMOOTH",
"229 695 LINE",
"219 692 LINE SMOOTH",
"209 689 OFFCURVE",
"174 679 OFFCURVE",
"130 669 OFFCURVE",
"67 659 OFFCURVE",
"36 656 QCURVE",
"30 656 OFFCURVE",
"30 639 QCURVE SMOOTH",
"30 619 OFFCURVE",
"36 619 QCURVE SMOOTH",
"45 619 LINE SMOOTH",
"92 619 OFFCURVE",
"97 603 QCURVE",
"102 578 OFFCURVE",
"102 531 QCURVE SMOOTH",
"102 134 LINE SMOOTH",
"102 88 OFFCURVE",
"95 58 QCURVE",
"93 51 OFFCURVE",
"41 33 OFFCURVE",
"30 33 QCURVE SMOOTH",
"26 33 OFFCURVE",
"26 0 OFFCURVE",
"30 -4 QCURVE",
"41 -3 OFFCURVE",
"143 4 OFFCURVE",
"167 4 QCURVE SMOOTH",
"190 4 OFFCURVE",
"288 -3 OFFCURVE",
"300 -4 QCURVE",
"302 0 OFFCURVE",
"301 33 OFFCURVE",
"298 33 QCURVE SMOOTH",
"290 33 OFFCURVE",
"241 51 OFFCURVE",
"239 58 QCURVE SMOOTH",
"232 85 OFFCURVE",
"232 149 QCURVE SMOOTH",
"232 317 LINE SMOOTH",
"232 361 OFFCURVE",
"302 361 QCURVE SMOOTH",
"347 361 OFFCURVE",
"387 298 OFFCURVE",
"387 224 QCURVE SMOOTH",
"387 134 LINE SMOOTH",
"387 88 OFFCURVE",
"380 58 QCURVE",
"378 51 OFFCURVE",
"330 33 OFFCURVE",
"319 33 QCURVE SMOOTH",
"315 33 OFFCURVE",
"315 0 OFFCURVE",
"319 -4 QCURVE",
"331 -3 OFFCURVE",
"428 4 OFFCURVE",
"452 4 QCURVE SMOOTH",
"475 4 OFFCURVE",
"578 -3 OFFCURVE",
"589 -4 QCURVE",
"591 0 OFFCURVE",
"590 33 OFFCURVE",
"587 33 QCURVE SMOOTH",
"578 33 OFFCURVE",
"526 51 OFFCURVE",
"524 58 QCURVE SMOOTH",
"517 85 OFFCURVE",
"517 149 QCURVE SMOOTH",
"517 248 LINE SMOOTH",
"517 348 OFFCURVE",
"444 446 OFFCURVE",
"386 446 QCURVE SMOOTH"
);
}
);
width = 590;
}
);
note = hbar;
unicode = 0127;
},
{
glyphname = Iogonek;
layers = (
{
layerId = "E2E62ECD-1E64-44AC-9B50-C09427155398";
paths = (
{
closed = 1;
nodes = (
"138 656 OFFCURVE",
"0 662 QCURVE",
"-2 660 OFFCURVE",
"-2 642 QCURVE SMOOTH",
"-2 625 OFFCURVE",
"2 625 QCURVE SMOOTH",
"13 625 OFFCURVE",
"59 608 OFFCURVE",
"64 600 QCURVE",
"72 586 OFFCURVE",
"72 522 QCURVE SMOOTH",
"72 138 LINE SMOOTH",
"72 85 OFFCURVE",
"65 58 QCURVE",
"62 50 OFFCURVE",
"10 33 OFFCURVE",
"-1 33 QCURVE SMOOTH",
"-4 33 OFFCURVE",
"-4 12 QCURVE SMOOTH",
"-4 0 OFFCURVE",
"0 -4 QCURVE",
"14 -3 OFFCURVE",
"118 4 OFFCURVE",
"145 4 QCURVE SMOOTH",
"171 4 OFFCURVE",
"185 3 QCURVE",
"138 -11 OFFCURVE",
"52 -100 OFFCURVE",
"52 -140 QCURVE SMOOTH",
"52 -176 OFFCURVE",
"104 -218 OFFCURVE",
"133 -218 QCURVE SMOOTH",
"170 -218 OFFCURVE",
"239 -171 OFFCURVE",
"256 -149 QCURVE SMOOTH",
"262 -141 OFFCURVE",
"262 -127 QCURVE SMOOTH",
"262 -109 OFFCURVE",
"257 -109 QCURVE",
"245 -119 OFFCURVE",
"196 -142 OFFCURVE",
"177 -142 QCURVE SMOOTH",
"160 -142 OFFCURVE",
"136 -125 OFFCURVE",
"136 -110 QCURVE SMOOTH",
"136 -55 OFFCURVE",
"227 0 QCURVE",
"245 -2 OFFCURVE",
"284 -4 QCURVE",
"286 2 OFFCURVE",
"286 14 QCURVE SMOOTH",
"286 33 OFFCURVE",
"282 33 QCURVE SMOOTH",
"273 33 OFFCURVE",
"222 51 OFFCURVE",
"220 58 QCURVE SMOOTH",
"212 89 OFFCURVE",
"212 146 QCURVE SMOOTH",
"212 516 LINE",
"212 531 LINE SMOOTH",
"212 546 OFFCURVE",
"216 589 OFFCURVE",
"219 601 QCURVE SMOOTH",
"221 608 OFFCURVE",
"275 625 OFFCURVE",
"284 625 QCURVE SMOOTH",
"288 625 OFFCURVE",
"288 644 QCURVE SMOOTH",
"288 653 OFFCURVE",
"285 662 QCURVE",
"165 656 OFFCURVE",
"145 656 QCURVE SMOOTH"
);
}
);
width = 283;
}
);
note = Iogonek;
unicode = 012E;
},
{
glyphname = iogonek;
layers = (
{
layerId = "E2E62ECD-1E64-44AC-9B50-C09427155398";
paths = (
{
closed = 1;
nodes = (
"23 404 OFFCURVE",
"23 369 QCURVE SMOOTH",
"23 368 OFFCURVE",
"43 364 OFFCURVE",
"71 354 OFFCURVE",
"78 346 QCURVE",
"96 327 OFFCURVE",
"96 271 QCURVE SMOOTH",
"96 134 LINE SMOOTH",
"96 88 OFFCURVE",
"89 58 QCURVE",
"87 51 OFFCURVE",
"35 33 OFFCURVE",
"24 33 QCURVE SMOOTH",
"20 33 OFFCURVE",
"20 0 OFFCURVE",
"24 -4 QCURVE",
"35 -3 OFFCURVE",
"137 4 OFFCURVE",
"161 4 QCURVE SMOOTH",
"175 4 OFFCURVE",
"209 2 QCURVE",
"163 -13 OFFCURVE",
"78 -101 OFFCURVE",
"78 -140 QCURVE SMOOTH",
"78 -176 OFFCURVE",
"130 -218 OFFCURVE",
"159 -218 QCURVE SMOOTH",
"196 -218 OFFCURVE",
"265 -171 OFFCURVE",
"282 -149 QCURVE SMOOTH",
"288 -141 OFFCURVE",
"288 -127 QCURVE SMOOTH",
"288 -109 OFFCURVE",
"283 -109 QCURVE",
"271 -119 OFFCURVE",
"222 -142 OFFCURVE",
"203 -142 QCURVE SMOOTH",
"186 -142 OFFCURVE",
"162 -125 OFFCURVE",
"162 -110 QCURVE SMOOTH",
"162 -55 OFFCURVE",
"251 -1 QCURVE",
"279 -3 OFFCURVE",
"298 -4 QCURVE",
"300 0 OFFCURVE",
"299 33 OFFCURVE",
"296 33 QCURVE SMOOTH",
"287 33 OFFCURVE",
"235 51 OFFCURVE",
"233 58 QCURVE SMOOTH",
"226 85 OFFCURVE",
"226 149 QCURVE SMOOTH",
"226 326 LINE SMOOTH",
"226 338 OFFCURVE",
"237 426 QCURVE",
"237 430 OFFCURVE",
"227 443 OFFCURVE",
"222 443 QCURVE",
"217 442 LINE",
"212 440 OFFCURVE",
"211 440 QCURVE",
"183 431 OFFCURVE",
"47 404 OFFCURVE",
"28 404 QCURVE SMOOTH"
);
},
{
closed = 1;
nodes = (
"78 585 OFFCURVE",
"121 542 OFFCURVE",
"183 542 OFFCURVE",
"226 585 OFFCURVE",
"226 647 OFFCURVE",
"183 690 OFFCURVE",
"121 690 OFFCURVE",
"78 647 OFFCURVE"
);
}
);
width = 310;
}
);
note = iogonek;
unicode = 012F;
},
{
glyphname = dotlessi;
layers = (
{
layerId = "E2E62ECD-1E64-44AC-9B50-C09427155398";
paths = (
{
closed = 1;
nodes = (
"228 326 LINE SMOOTH",
"228 338 OFFCURVE",
"239 426 QCURVE",
"239 430 OFFCURVE",
"229 443 OFFCURVE",
"224 443 QCURVE",
"219 442 LINE",
"214 440 OFFCURVE",
"213 440 QCURVE",
"185 431 OFFCURVE",
"49 404 OFFCURVE",
"30 404 QCURVE SMOOTH",
"25 404 OFFCURVE",
"25 375 QCURVE SMOOTH",
"25 374 OFFCURVE",
"45 370 OFFCURVE",
"73 360 OFFCURVE",
"80 352 QCURVE",
"98 333 OFFCURVE",
"98 277 QCURVE SMOOTH",
"98 131 LINE SMOOTH",
"98 85 OFFCURVE",
"91 55 QCURVE SMOOTH",
"89 47 OFFCURVE",
"43 30 OFFCURVE",
"32 30 QCURVE SMOOTH",
"28 30 OFFCURVE",
"28 0 OFFCURVE",
"32 -4 QCURVE",
"45 -3 OFFCURVE",
"139 4 OFFCURVE",
"163 4 QCURVE SMOOTH",
"186 4 OFFCURVE",
"282 -3 OFFCURVE",
"294 -4 QCURVE",
"296 0 OFFCURVE",
"295 30 OFFCURVE",
"292 30 QCURVE SMOOTH",
"284 30 OFFCURVE",
"238 48 OFFCURVE",
"236 55 QCURVE SMOOTH",
"228 87 OFFCURVE",
"228 146 QCURVE SMOOTH"
);
}
);
width = 327;
}
);
note = dotlessi;
unicode = 0131;
},
